<?xml version="1.0" encoding="utf-8"?>
<svg viewBox="0 0 303 411" xmlns="http://www.w3.org/2000/svg">
  <g transform="matrix(1.317323, 0, 0, 1.317323, -157.608508, -99.296121)" style="">
    <title>Legs</title>
    <path style="fill: none; stroke-linecap: round; stroke-width: 15px; stroke: rgb(226, 190, 199);" d="M 166.914 222.995 C 166.914 222.995 148.064 244.719 168.171 269.124 C 188.278 293.53 167.991 317.935 167.991 317.935 C 167.991 317.935 153.63 343.681 169.068 366.746"/>
    <path style="fill: none; stroke-linecap: round; stroke-width: 15px; stroke: rgb(226, 190, 199);" d="M 284.818 369.496 C 284.818 369.496 265.968 347.772 286.075 323.367 C 306.182 298.961 285.895 274.556 285.895 274.556 C 285.895 274.556 271.534 248.81 286.972 225.745" transform="matrix(-1, 0, 0, -1, 571.765625, 595.240997)"/>
    <path style="fill: none; stroke-width: 15px; stroke-linecap: round; stroke: rgb(226, 190, 199);" d="M 207.408 228.015 C 207.408 228.015 189.359 247.354 207.408 270.046 C 225.457 292.738 206.893 315.944 206.893 315.944 C 206.893 315.944 188.069 340.956 208.698 359.522"/>
    <path style="fill: none; stroke-width: 15px; stroke-linecap: round; stroke: rgb(226, 190, 199);" d="M 249.422 360.812 C 249.422 360.812 231.373 341.473 249.422 318.781 C 267.471 296.089 248.907 272.883 248.907 272.883 C 248.907 272.883 230.083 247.871 250.712 229.305" transform="matrix(-1, 0, 0, -1, 498.363388, 590.117004)"/>
  </g>
  <g transform="matrix(1.317323, 0, 0, 1.317323, -157.608508, -99.296121)" style="">
    <title>Body</title>
    <path style="fill: rgb(226, 190, 199); stroke: rgb(226, 190, 199);" d="M 140.043 231.345 L 327.31 233.149 C 327.31 233.149 338.857 217.995 328.393 203.201 C 317.929 188.407 351.925 111.555 254.785 85.212 C 157.645 58.869 138.961 197.428 138.961 197.428 C 138.961 197.428 115.507 223.768 140.043 231.345 Z">
      <title>Body</title>
    </path>
    <path style="fill: rgb(217, 184, 192); stroke: rgb(217, 184, 192);" d="M 138.54 198.621 C 112.793 231.403 143.849 230.628 143.849 230.628 L 326.793 234.018 C 326.793 234.018 341.869 225.84 328.823 204.35 C 315.777 182.86 174.109 229.81 138.54 198.621 Z"/>
  </g>
  <g transform="matrix(1.317323, 0, 0, 1.317323, -157.608508, -99.296121)" style="">
    <title>Eyes</title>
    <ellipse style="stroke: rgb(0, 0, 0);" cx="210.312" cy="144.735" rx="8.517" ry="8.247"/>
    <ellipse style="stroke: rgb(0, 0, 0);" cx="263.441" cy="144.871" rx="8.517" ry="8.247"/>
  </g>
  <path style="stroke: rgb(0, 0, 0); fill: none; stroke-width: 3px; stroke-linecap: round;" d="M 144.315 141.143 C 144.315 141.143 152.808 157.448 163.338 141.483">
    <title>Mouth</title>
  </path>
</svg>