<?xml version="1.0" encoding="utf-8"?>
<svg viewBox="0 0 460 426" xmlns="http://www.w3.org/2000/svg">
  <g transform="matrix(1, 0, 0, 1, 1.241855, -40.360135)">
    <path style="fill: rgb(255, 158, 110); stroke: rgb(255, 158, 110);" d="M 172.617 221.36 L 215.151 56.194 C 215.151 56.194 227.259 34.461 239.056 56.194 C 250.853 77.927 275.38 218.255 275.38 218.255 L 172.617 221.36 Z"/>
    <ellipse style="fill: rgb(255, 158, 110); stroke: rgb(255, 158, 110);" cx="224.62" cy="264.514" rx="80.254" ry="69.854"/>
    <path style="fill: rgb(255, 158, 110); stroke: rgb(255, 158, 110);" d="M 312.169 298.216 L 354.703 133.05 C 354.703 133.05 366.811 111.317 378.608 133.05 C 390.405 154.783 414.932 295.111 414.932 295.111 L 312.169 298.216 Z" transform="matrix(0.374606, 0.927184, -0.927184, 0.374606, 422.815902, -205.243039)"/>
    <path style="fill: rgb(255, 158, 110); stroke: rgb(255, 158, 110);" d="M 37.72 295.112 L 80.254 129.946 C 80.254 129.946 92.362 108.213 104.159 129.946 C 115.956 151.679 140.483 292.007 140.483 292.007 L 37.72 295.112 Z" transform="matrix(0.374606, -0.927184, 0.927184, 0.374606, -136.852073, 212.507477)"/>
    <path style="fill: rgb(255, 158, 110); stroke: rgb(255, 158, 110);" d="M 91.432 465.868 L 133.966 300.702 C 133.966 300.702 146.074 278.969 157.871 300.702 C 169.668 322.435 194.195 462.763 194.195 462.763 L 91.432 465.868 Z" transform="matrix(-0.829037, -0.559193, 0.559193, -0.829037, 49.581491, 772.069484)"/>
    <path style="fill: rgb(255, 158, 110); stroke: rgb(255, 158, 110);" d="M 263.738 464.004 L 306.272 298.838 C 306.272 298.838 318.38 277.105 330.177 298.838 C 341.974 320.571 366.501 460.899 366.501 460.899 L 263.738 464.004 Z" transform="matrix(-0.829038, 0.559193, -0.559193, -0.829038, 786.952669, 512.587356)"/>
  </g>
</svg>