<?xml version="1.0" encoding="utf-8"?>
<svg viewBox="0 0 456 438" xmlns="http://www.w3.org/2000/svg" xmlns:bx="https://boxy-svg.com">
  <g transform="matrix(1, 0, 0, 1, -28.646773, -39.297471)">
    <path style="fill: rgb(239, 174, 144); stroke: rgb(239, 174, 144);" d="M 194.971 211.115 L 249.612 61.161 C 249.612 61.161 263.893 22.353 279.416 61.161 C 294.939 99.969 309.221 210.494 309.221 210.494 L 194.971 211.115 Z"/>
    <path style="fill: rgb(239, 174, 144); stroke: rgb(239, 174, 144);" d="M 332.815 309.309 L 387.457 159.355 C 387.457 159.355 401.738 120.547 417.261 159.355 C 432.784 198.163 447.066 308.688 447.066 308.688 L 332.815 309.309 Z" transform="matrix(0.358368, 0.933581, -0.933581, 0.358368, 460.915019, -219.219321)"/>
    <path style="fill: rgb(239, 174, 144); stroke: rgb(239, 174, 144);" d="M 54.331 309.618 L 108.973 159.664 C 108.973 159.664 123.254 120.856 138.777 159.664 C 154.3 198.472 168.582 308.997 168.582 308.997 L 54.331 309.618 Z" transform="matrix(0.358368, -0.93358, 0.93358, 0.358368, -139.490998, 249.073349)"/>
    <path style="fill: rgb(239, 174, 144); stroke: rgb(239, 174, 144);" d="M 287.177 479.441 L 341.819 329.487 C 341.819 329.487 356.1 290.679 371.623 329.487 C 387.146 368.295 401.428 478.82 401.428 478.82 L 287.177 479.441 Z" transform="matrix(-0.743145, 0.66913, -0.66913, -0.743145, 865.037748, 459.62342)"/>
    <path style="fill: rgb(239, 174, 144); stroke: rgb(239, 174, 144);" d="M 90.344 304.477 L 144.986 454.431 C 144.986 454.431 159.267 493.239 174.79 454.431 C 190.313 415.623 204.595 305.098 204.595 305.098 L 90.344 304.477 Z" transform="matrix(0.694659, 0.719339, -0.719339, 0.694659, 324.188094, 12.415482)"/>
    <path d="M -247.749 -371.61 L -162.4 -307.163 L -195.001 -202.885 L -300.497 -202.885 L -333.098 -307.163 Z" style="fill: rgb(239, 174, 144); stroke: rgb(239, 174, 144);" transform="matrix(-1, 0, 0, -1, 0, 0)" bx:shape="n-gon -247.749 -278.341 89.741 93.269 5 0 1@605b8989"/>
  </g>
</svg>