<?xml version="1.0" encoding="utf-8"?>
<svg viewBox="0 0 1000 500" xmlns="http://www.w3.org/2000/svg" xmlns:bx="https://boxy-svg.com">
  <defs>
    <filter id="gaussian-blur-filter-0" color-interpolation-filters="sRGB" x="-500%" y="-500%" width="1000%" height="1000%" bx:preset="gaussian-blur 1 10">
      <feGaussianBlur stdDeviation="10 10" edgeMode="none"/>
    </filter>
    <filter id="drop-shadow-filter-2" x="-500%" y="-500%" width="1000%" height="1000%" bx:preset="drop-shadow 1 10 10 3 0.04 rgba(0,0,0,0.3)">
      <feGaussianBlur in="SourceAlpha" stdDeviation="3"/>
      <feOffset dx="10" dy="10"/>
      <feComponentTransfer result="offsetblur">
        <feFuncA id="spread-ctrl" type="linear" slope="0.08"/>
      </feComponentTransfer>
      <feFlood flood-color="rgba(0,0,0,0.3)"/>
      <feComposite in2="offsetblur" operator="in"/>
      <feMerge>
        <feMergeNode/>
        <feMergeNode in="SourceGraphic"/>
      </feMerge>
    </filter>
    <filter id="drop-shadow-filter-1" x="-500%" y="-500%" width="1000%" height="1000%" bx:preset="drop-shadow 1 10 10 3 0.04 rgba(0,0,0,0.3)">
      <feGaussianBlur in="SourceAlpha" stdDeviation="3"/>
      <feOffset dx="10" dy="10"/>
      <feComponentTransfer result="offsetblur">
        <feFuncA id="spread-ctrl" type="linear" slope="0.08"/>
      </feComponentTransfer>
      <feFlood flood-color="rgba(0,0,0,0.3)"/>
      <feComposite in2="offsetblur" operator="in"/>
      <feMerge>
        <feMergeNode/>
        <feMergeNode in="SourceGraphic"/>
      </feMerge>
    </filter>
    <filter id="drop-shadow-filter-0" x="-500%" y="-500%" width="1000%" height="1000%" bx:preset="drop-shadow 1 10 10 3 0.04 rgba(0,0,0,0.3)">
      <feGaussianBlur in="SourceAlpha" stdDeviation="3"/>
      <feOffset dx="10" dy="10"/>
      <feComponentTransfer result="offsetblur">
        <feFuncA id="spread-ctrl" type="linear" slope="0.08"/>
      </feComponentTransfer>
      <feFlood flood-color="rgba(0,0,0,0.3)"/>
      <feComposite in2="offsetblur" operator="in"/>
      <feMerge>
        <feMergeNode/>
        <feMergeNode in="SourceGraphic"/>
      </feMerge>
    </filter>
    <filter id="drop-shadow-filter-4" x="-500%" y="-500%" width="1000%" height="1000%" bx:preset="drop-shadow 1 4 10 3 0.04 rgba(0,0,0,0.3)">
      <feGaussianBlur in="SourceAlpha" stdDeviation="3"/>
      <feOffset dx="4" dy="10"/>
      <feComponentTransfer result="offsetblur">
        <feFuncA id="spread-ctrl" type="linear" slope="0.08"/>
      </feComponentTransfer>
      <feFlood flood-color="rgba(0,0,0,0.3)"/>
      <feComposite in2="offsetblur" operator="in"/>
      <feMerge>
        <feMergeNode/>
        <feMergeNode in="SourceGraphic"/>
      </feMerge>
    </filter>
    <filter id="drop-shadow-filter-3" x="-500%" y="-500%" width="1000%" height="1000%" bx:preset="drop-shadow 1 10 10 3 0.04 rgba(0,0,0,0.3)">
      <feGaussianBlur in="SourceAlpha" stdDeviation="3"/>
      <feOffset dx="10" dy="10"/>
      <feComponentTransfer result="offsetblur">
        <feFuncA id="spread-ctrl" type="linear" slope="0.08"/>
      </feComponentTransfer>
      <feFlood flood-color="rgba(0,0,0,0.3)"/>
      <feComposite in2="offsetblur" operator="in"/>
      <feMerge>
        <feMergeNode/>
        <feMergeNode in="SourceGraphic"/>
      </feMerge>
    </filter>
  </defs>
  <rect x="-0.194" y="-0.358" width="999.665" height="530.138" style="fill: rgb(182, 222, 247); stroke: rgb(182, 222, 247); visibility: hidden;">
    <title>Background</title>
  </rect>
  <path d="M 257.293 171.23 C 261.754 169.888 266.197 170.052 270.022 171.23 C 273.785 172.389 276.581 173.29 280.1 178.125 C 286.622 187.088 293.64 216.814 301.315 231.163 C 307.625 242.961 316.305 248.15 321.469 259.803 C 327.431 273.259 327.619 295.859 333.137 308.598 C 337.568 318.827 342.638 330.569 349.579 332.465 C 356.33 334.309 365.747 326.04 373.976 320.797 C 383.224 314.905 393.537 306.209 402.086 297.99 C 410.48 289.922 418.466 277.657 424.892 272.002 C 429.347 268.082 432.422 265.98 436.561 264.577 C 440.57 263.217 445.281 262.516 449.29 263.516 C 453.429 264.548 454.979 268.43 460.958 270.941 C 470.825 275.085 492.181 281.398 507.631 283.67 C 522.582 285.869 539.619 282.704 552.183 284.731 C 562.592 286.411 570 291.649 578.702 293.217 C 586.959 294.705 593.618 292.287 603.099 294.278 C 615.346 296.85 632.989 307.489 646.59 310.189 C 658.604 312.574 663.965 311.177 680.534 311.25 C 709.107 311.376 769.732 307.289 813.128 309.128 C 855.62 310.93 907.735 314.753 938.297 321.857 C 959.663 326.824 972.723 333.183 986.031 340.951 C 997.785 347.812 1007.498 355.314 1015.202 364.818 C 1022.85 374.253 1029 386.149 1032.174 397.701 C 1035.318 409.143 1035.178 421.103 1034.296 433.767 C 1033.338 447.508 1030.583 463.948 1025.809 477.258 C 1021.233 490.017 1013.322 503.29 1006.716 512.263 C 1001.392 519.494 995.179 524.028 990.274 528.704 C 986.156 532.631 983.411 534.473 979.136 538.782 C 973.553 544.41 967.764 553.774 959.512 560.527 C 950.079 568.247 940.36 575.915 924.507 581.742 C 902.714 589.752 860.947 595.457 835.404 598.714 C 814.617 601.365 800.05 601.516 781.306 601.896 C 761.585 602.296 746.136 600.734 719.782 600.836 C 682.398 600.98 610.131 604.441 572.337 604.018 C 545.319 603.716 519.617 600.618 508.692 600.836 C 503.8 600.933 503.47 601.835 500.206 601.896 C 496.249 601.971 495.508 600.866 486.416 600.836 C 460.834 600.751 349.986 604.93 302.906 608.261 C 269.139 610.65 249.239 615.358 223.349 616.747 C 198.366 618.088 176.421 618.406 150.157 616.747 C 120.99 614.904 76.893 610.047 55.75 605.079 C 42.504 601.966 36.372 599.66 28.171 594.471 C 19.918 589.25 12.796 582.371 6.425 573.786 C -0.677 564.217 -8.127 550.377 -11.608 538.782 C -14.811 528.112 -15.967 519.583 -14.79 506.959 C -13.261 490.561 1.295 461.582 1.121 447.557 C 1.107 446.397 0.974 445.288 0.753 444.226 C -7.733 454.801 -7.707 473.597 -13.44 479.457 C -17.321 483.423 -21.6 484.244 -26.169 483.7 C -31.55 483.058 -40.321 477.895 -43.671 473.622 C -46.491 470.027 -46.797 466.213 -46.854 460.893 C -46.931 453.68 -45.363 441.912 -41.55 433.314 C -37.58 424.36 -32.74 416.692 -22.987 408.386 C -13.769 400.535 7.596 390.231 22.75 382.505 C 24.87 377.108 27.172 372.01 29.762 368 C 38.387 354.648 51.915 341.446 61.054 333.526 C 67.761 327.713 71.992 324.356 79.087 321.857 C 86.949 319.089 99.16 320.608 106.666 318.675 C 112.711 317.119 115.437 316.13 121.517 312.311 C 130.754 306.507 144.153 296.755 157.052 283.14 C 174.268 264.968 199.066 225.537 214.333 207.826 C 224.791 195.694 232.47 188.173 240.321 181.838 C 246.478 176.87 251.948 172.839 257.293 171.23 Z" style="stroke-width: 2px; fill: rgb(229, 229, 229); stroke: rgb(229, 229, 229); visibility: hidden;">
    <title>Mountain</title>
  </path>
  <path style="stroke: rgb(237, 216, 197); fill: rgb(237, 216, 197);" d="M -18.46 445.345 L -25.932 544.98 L 1004.454 531.28 C 1004.454 531.28 1225.311 387.224 1028.948 298.384 C 832.585 209.544 -18.46 445.345 -18.46 445.345 Z">
    <title>Sand</title>
  </path>
  <ellipse style="fill: rgb(255, 247, 131); stroke: rgb(255, 247, 131); filter: url(#gaussian-blur-filter-0); visibility: hidden;" cx="121.651" cy="100.107" rx="48.364" ry="48.157">
    <title>Sun</title>
  </ellipse>
  <path stroke-width="0" d="M 245.293 33.729 C 251.233 32.579 259.159 33.854 264.728 35.187 C 269.535 36.337 275.204 39.061 277.117 40.531 C 278.059 41.255 277.236 42.181 278.332 42.475 C 280.929 43.17 292.003 39.182 297.767 38.588 C 302.653 38.084 306.079 37.714 310.885 38.588 C 316.59 39.625 324.332 42.294 329.834 45.39 C 335.008 48.301 340.676 53.655 343.196 56.322 C 344.651 57.863 344.065 59.641 345.625 59.966 C 348.136 60.489 354.651 55.567 358.986 54.622 C 362.973 53.752 366.549 53.472 370.647 54.136 C 375.241 54.88 380.968 57.072 385.223 59.48 C 389.244 61.755 394.252 66.736 395.669 67.983 C 396.176 68.429 395.954 68.288 396.398 68.712 C 397.452 69.717 400.48 72.045 402.957 74.785 C 406.311 78.494 412.693 85.273 414.618 89.847 C 416.092 93.348 416.248 96.479 415.59 99.564 C 414.917 102.721 413.558 106.005 410.488 108.553 C 406.418 111.932 398.469 114.482 391.054 116.327 C 382.564 118.439 371.379 119.086 361.901 119.728 C 352.772 120.346 347.036 120.247 335.179 120.214 C 317.467 120.164 282.532 118.626 262.298 118.756 C 246.327 118.858 236.718 119.156 221.971 120.214 C 205.196 121.417 178.045 126.284 166.582 126.044 C 160.204 125.91 157.774 125.085 153.95 123.615 C 150.272 122.201 146.408 120.08 143.99 117.541 C 141.777 115.219 140.309 111.998 139.617 109.282 C 138.99 106.822 138.6 104.981 139.617 101.994 C 141.181 97.401 146.981 88.504 151.521 84.259 C 155.462 80.574 159.378 79.005 164.639 76.971 C 170.909 74.547 182.114 74.512 187.232 71.384 C 191.172 68.976 191.298 64.635 194.763 61.91 C 198.807 58.728 205.604 55.975 210.796 54.136 C 215.539 52.456 221.461 53.337 224.644 50.978 C 227.492 48.866 226.879 44.2 229.745 41.503 C 233.217 38.235 239.619 34.828 245.293 33.729 Z" style="stroke-width: 2px; stroke: rgb(255, 255, 255); fill: rgb(255, 255, 255); filter: url(#drop-shadow-filter-2); visibility: hidden;">
    <title>Cloud big</title>
  </path>
  <path d="M 541.863 39.478 C 547.821 39.229 556.289 39.693 561.934 41.554 C 566.894 43.189 570.521 48.021 574.393 49.167 C 577.583 50.112 579.94 49.253 583.39 49.167 C 587.572 49.063 593.178 48.007 597.925 48.475 C 602.635 48.94 607.142 49.819 611.767 51.936 C 616.944 54.305 624.231 58.682 627.34 62.664 C 629.838 65.863 631.202 69.43 630.801 73.046 C 630.349 77.117 628.129 83.192 623.533 85.85 C 617.437 89.375 603.957 88.011 593.772 87.926 C 583.213 87.838 574.416 85.07 561.242 85.158 C 544.007 85.273 510.318 92.769 497.567 90.695 C 490.364 89.523 486.723 86.607 484.071 83.428 C 481.828 80.739 480.836 77.17 481.302 73.738 C 481.844 69.744 484.443 63.916 488.569 60.933 C 493.451 57.405 506.107 58.279 510.371 55.743 C 513.109 54.114 512.604 51.796 514.87 49.86 C 517.891 47.278 523.45 43.979 528.02 42.246 C 532.458 40.564 536.698 39.693 541.863 39.478 Z" style="fill: rgb(255, 255, 255); stroke: rgb(246, 246, 246); stroke-width: 0px; filter: url(#drop-shadow-filter-1); visibility: hidden;">
    <title>Cloud small</title>
  </path>
  <path d="M 772.6 49.392 C 786.638 47.156 811.71 49.882 823.133 52.455 C 830.48 54.11 831.924 57.213 838.446 59.346 C 847.151 62.191 861.358 66.471 872.135 67.002 C 882.231 67.5 892.022 63.224 901.23 63.174 C 909.824 63.127 916.631 63.586 925.731 66.237 C 936.947 69.504 958.938 78.93 963.631 83.464 C 965.731 85.492 965.35 87.105 965.163 88.824 C 964.975 90.551 965.995 92.409 962.483 93.8 C 949.74 98.849 852.342 98.084 820.836 98.394 C 801.875 98.581 795.114 96.865 781.022 97.629 C 765.663 98.46 750.285 102.454 732.02 103.754 C 710.873 105.259 684.471 105.416 660.814 105.285 C 637.256 105.155 600.49 105.112 590.374 102.988 C 586.472 102.169 585.87 101.775 584.631 99.926 C 583.134 97.69 582.48 92.118 583.1 89.589 C 583.577 87.641 584.055 87.006 586.545 85.378 C 591.955 81.842 608.493 74.348 621.765 71.596 C 636.676 68.505 664.309 69.079 672.299 69.299 C 675.567 69.389 674.739 70.291 677.658 70.065 C 683.731 69.595 699.549 63.807 710.582 62.408 C 721.499 61.024 733.091 63.863 743.505 61.643 C 753.745 59.459 760.978 51.243 772.6 49.392 Z" style="fill: rgb(255, 255, 255); stroke: rgb(255, 255, 255); stroke-width: 0px; filter: url(#drop-shadow-filter-0); visibility: hidden;">
    <title>Cloud long</title>
  </path>
  <rect x="1131.919" y="160.924" width="7.161" height="128.279" style="fill: rgb(190, 190, 190); stroke: rgb(190, 190, 190); filter: url(#drop-shadow-filter-4);" transform="matrix(0.982163, -0.188029, 0.17346, 0.984953, -604.439401, 272.625279)" bx:origin="4.244 0.515">
    <title>Umbrella Stand</title>
  </rect>
  <g style="filter: url(#drop-shadow-filter-3);" transform="matrix(0.902207, 0, 0, 0.902207, 43.563218, 33.703434)">
    <title>Umbrella</title>
    <path style="stroke: rgb(0, 0, 0); fill: rgb(255, 255, 255); stroke-width: 0px;" d="M 449.157 213.156 L 641.248 220.204 C 641.248 220.204 555.755 96.368 449.157 213.156 Z" transform="matrix(0.981636, -0.190763, 0.190763, 0.981636, -26.540119, 107.523183)"/>
    <path style="stroke-width: 0px; stroke: rgb(255, 163, 163); fill: rgb(255, 83, 83);" d="M 477.476 213.532 L 618.082 218.691 C 618.082 218.691 555.504 128.046 477.476 213.532 Z" transform="matrix(0.981636, -0.190762, 0.190762, 0.981636, -27.666061, 108.127079)"/>
    <path style="stroke-width: 0px; stroke: rgb(255, 163, 163); fill: rgb(255, 255, 255);" d="M 501.108 214.025 L 599.461 217.634 C 599.461 217.634 555.688 154.228 501.108 214.025 Z" transform="matrix(0.981636, -0.190762, 0.190762, 0.981636, -28.618203, 108.701122)"/>
    <path style="stroke-width: 0px; stroke: rgb(255, 163, 163); fill: rgb(255, 83, 83);" d="M 523.084 215.167 L 577.272 217.156 C 577.272 217.156 553.155 182.221 523.084 215.167 Z" transform="matrix(0.981636, -0.190762, 0.190762, 0.981636, -29.783026, 108.792745)"/>
  </g>
  <rect style="fill: rgb(215, 170, 255); stroke: rgb(215, 170, 255); filter: none;" x="579.579" y="319.906" width="55.223" height="107.908" rx="10" ry="10">
    <title>Towel</title>
  </rect>
  <g transform="matrix(1, 0, 0, 1, 1.693829, -27.638724)">
    <title>Waves</title>
    <path stroke-width="0" d="M 1044.5 460.341 C 1051.091 459.468 1052.851 459.932 1056.403 461.333 C 1059.961 462.738 1063.744 465.179 1065.826 468.773 C 1068.225 472.914 1069.923 480.557 1068.802 485.635 C 1067.7 490.623 1065.535 494.967 1059.378 499.026 C 1049.164 505.76 1023.794 510.78 1003.831 515.889 C 982.074 521.456 957.562 527.779 933.405 530.767 C 908.661 533.828 885.837 535.108 857.027 533.743 C 822.754 532.119 768.822 521.45 739.981 518.864 C 720.423 517.111 713.635 516.513 695.345 516.881 C 670.979 517.37 639.411 520.26 604.088 523.824 C 560.602 528.212 495.85 538.948 451.333 542.67 C 414.128 545.781 391.662 548.236 353.133 546.638 C 304.744 544.631 228.766 531.119 180.54 526.8 C 142.28 523.373 111.961 519.076 83.332 520.848 C 58.721 522.371 33.974 528.445 17.865 533.743 C 6.349 537.531 -0.703 544.546 -7.925 546.638 C -13.322 548.201 -17.398 548.883 -21.811 547.63 C -26.521 546.292 -32.477 542.44 -35.202 538.207 C -37.913 533.997 -39.106 527.23 -38.178 522.336 C -37.257 517.482 -35.284 513.058 -29.747 508.945 C -21.004 502.451 -0.403 496.725 16.873 492.083 C 36.193 486.891 63.888 481.89 81.348 480.18 C 94.572 478.884 95.727 478.969 114.081 480.18 C 153.734 482.795 287.925 501.544 337.263 504.978 C 366.654 507.023 374.071 506.895 398.761 505.969 C 430.745 504.771 473.792 500.477 515.808 496.05 C 562.379 491.144 628.2 479.802 666.579 477.204 C 693.649 475.371 706.418 475.512 730.062 477.204 C 757.74 479.184 793.318 487.47 823.302 490.099 C 851.73 492.591 880.96 494.619 905.631 493.075 C 927.271 491.72 942.851 488.012 964.154 483.155 C 988.576 477.588 1030.151 462.242 1044.5 460.341 Z" style="stroke-width: 2px; stroke: rgb(255, 255, 255); fill: rgb(255, 255, 255);">
      <title>Wave 3</title>
    </path>
    <path stroke-width="0" d="M 1049.343 459.777 C 1055.934 458.752 1057.694 459.297 1061.246 460.941 C 1064.804 462.59 1068.587 465.454 1070.669 469.672 C 1073.068 474.531 1074.766 483.5 1073.645 489.459 C 1072.543 495.313 1070.378 500.41 1064.221 505.174 C 1054.007 513.076 1028.637 518.967 1008.674 524.962 C 986.917 531.495 962.405 538.915 938.248 542.422 C 913.504 546.014 890.68 547.516 861.87 545.914 C 827.597 544.008 773.665 531.488 744.824 528.453 C 725.266 526.396 718.478 525.695 700.188 526.126 C 675.822 526.7 644.254 530.092 608.931 534.274 C 565.445 539.423 500.693 552.022 456.176 556.39 C 418.971 560.041 396.505 562.921 357.976 561.046 C 309.587 558.691 233.609 542.835 185.383 537.766 C 147.123 533.745 116.804 528.702 88.175 530.782 C 63.564 532.569 38.817 539.697 22.708 545.914 C 11.192 550.359 4.14 558.591 -3.082 561.046 C -8.479 562.88 -12.555 563.681 -16.968 562.21 C -21.678 560.64 -27.634 556.12 -30.359 551.152 C -33.07 546.212 -34.263 538.271 -33.335 532.528 C -32.414 526.832 -30.441 521.64 -24.904 516.814 C -16.161 509.193 4.44 502.473 21.716 497.026 C 41.036 490.933 68.731 485.065 86.191 483.058 C 99.415 481.537 100.57 481.637 118.924 483.058 C 158.577 486.127 292.768 508.128 342.106 512.158 C 371.497 514.558 378.914 514.408 403.604 513.321 C 435.588 511.915 478.635 506.876 520.651 501.681 C 567.222 495.924 633.043 482.614 671.422 479.566 C 698.492 477.414 711.261 477.58 734.905 479.566 C 762.583 481.889 798.161 491.613 828.145 494.698 C 856.573 497.622 885.803 500.002 910.474 498.19 C 932.114 496.6 947.694 492.249 968.997 486.549 C 993.419 480.016 1034.994 462.008 1049.343 459.777 Z" style="stroke-width: 2px; fill: rgb(213, 244, 254); stroke: rgb(213, 244, 254);">
      <title>Wave 1</title>
    </path>
    <path stroke-width="0" d="M 1047.017 458.205 C 1053.608 456.914 1055.368 457.6 1058.92 459.673 C 1062.478 461.751 1066.261 465.362 1068.343 470.679 C 1070.742 476.805 1072.44 488.111 1071.319 495.623 C 1070.217 503.002 1068.052 509.429 1061.895 515.433 C 1051.681 525.395 1026.311 532.821 1006.348 540.379 C 984.591 548.615 960.079 557.969 935.922 562.389 C 911.178 566.917 888.354 568.811 859.544 566.791 C 825.271 564.389 771.339 548.606 742.498 544.78 C 722.94 542.187 716.152 541.302 697.862 541.847 C 673.496 542.57 641.928 546.846 606.605 552.118 C 563.119 558.609 498.367 574.491 453.85 579.997 C 416.645 584.6 394.179 588.231 355.65 585.867 C 307.261 582.898 231.283 562.91 183.057 556.52 C 144.797 551.451 114.478 545.094 85.849 547.715 C 61.238 549.968 36.491 558.954 20.382 566.791 C 8.866 572.395 1.814 582.773 -5.408 585.867 C -10.805 588.18 -14.881 589.189 -19.294 587.335 C -24.004 585.356 -29.96 579.657 -32.685 573.395 C -35.396 567.167 -36.589 557.156 -35.661 549.917 C -34.74 542.736 -32.767 536.191 -27.23 530.107 C -18.487 520.5 2.114 512.029 19.39 505.162 C 38.71 497.482 66.405 490.083 83.865 487.554 C 97.089 485.636 98.244 485.762 116.598 487.554 C 156.251 491.422 290.442 519.158 339.78 524.238 C 369.171 527.264 376.588 527.074 401.278 525.704 C 433.262 523.932 476.309 517.58 518.325 511.031 C 564.896 503.773 630.717 486.994 669.096 483.151 C 696.166 480.44 708.935 480.648 732.579 483.151 C 760.257 486.08 795.835 498.338 825.819 502.227 C 854.247 505.914 883.477 508.914 908.148 506.63 C 929.788 504.625 945.368 499.14 966.671 491.955 C 991.093 483.719 1032.668 461.017 1047.017 458.205 Z" style="stroke-width: 2px; stroke: rgb(83, 155, 179); fill: rgb(83, 155, 179);">
      <title>Wave 2</title>
    </path>
  </g>
</svg>