<?xml version="1.0" encoding="utf-8"?>
<svg viewBox="0 0 346 489" xmlns="http://www.w3.org/2000/svg">
  <path d="M 41.055 288.52 C 41.055 186.875 51.21 136.233 181.594 104.474 C 260.913 85.154 287.806 147.342 310.363 209.514 C 284.894 175.841 247.805 155.101 208.753 155.101 C 131.135 155.101 68.214 237.501 68.214 339.146 C 68.214 367.378 73.068 394.125 81.743 418.035 C 56.59 384.779 41.055 339.026 41.055 288.52 Z" style="fill: rgb(41, 170, 223); stroke: rgb(41, 170, 223);">
    <title>Body (lower)</title>
  </path>
  <path style="fill: rgb(0, 112, 186); stroke: rgb(0, 112, 186);" d="M 259.656 135.427 C 259.656 135.427 210.392 73.369 98.9 137.286 C -12.592 201.203 81.119 417.461 81.119 417.461 C 81.119 417.461 -63.053 223.309 46.998 101.724 C 157.05 -19.861 304.746 64.92 304.746 64.92 C 304.746 64.92 327.746 82.755 334.776 110.463 C 335.267 112.031 335.621 113.726 335.855 115.519 C 337.895 127.323 336.875 140.699 330.128 155.102 C 326.101 168.523 321.558 179.065 321.558 179.065 C 321.558 179.065 322.942 184.295 324.072 208.715 C 325.201 233.136 308.507 207.256 308.507 207.256 L 292.947 170.091 C 285.795 161.6 275.919 149.17 259.656 135.427 Z">
    <title>Body (upper)</title>
  </path>
  <path style="fill: rgb(0, 112, 186); stroke: rgb(0, 112, 186);" d="M 62.944 443.984 C 62.944 443.984 25.22 370.265 104.071 356.588 C 182.922 342.91 94.82 389.175 94.82 389.175 C 94.82 389.175 70.384 410.978 87.083 443.122 C 103.782 475.266 102.169 487.427 102.169 487.427 C 102.169 487.427 84.267 482.604 62.944 443.984 Z" transform="matrix(0.927184, 0.374607, -0.374607, 0.927184, 164.55968, -5.099211)">
    <title>Tail</title>
  </path>
  <ellipse style="stroke: rgb(201, 236, 251); fill: rgb(201, 236, 251);" cx="302.304" cy="120.543" rx="5.496" ry="5.496">
    <title>Eye</title>
  </ellipse>
  <path style="stroke: rgb(41, 170, 223); fill: rgb(41, 170, 223);" d="M 216.842 135.998 C 222.408 171.256 189.008 203.691 182.484 209.644 C 182.393 209.633 182.303 209.618 182.213 209.599 C 181.935 209.542 181.619 209.468 181.427 209.318 C 181.424 209.316 181.421 209.313 181.419 209.311 L 181.446 207.839 C 185.094 198.084 187.142 186.058 186.861 173.37 C 186.649 163.609 185.078 154.697 182.518 147.247 L 182.562 144.873 C 181.859 142.749 210.675 96.96 216.842 135.998 Z">
    <title>fin smol</title>
  </path>
  <path style="stroke: rgb(0, 112, 186); fill: rgb(0, 112, 186);" d="M 139.659 56.082 C 147.909 18.907 97.79 -14.95 88.124 -21.226 C 87.99 -21.216 88.146 -21.291 88.013 -21.271 C 87.6 -21.211 87.355 -21.14 87.07 -20.98 C 87.066 -20.98 87.205 -20.6 87.202 -20.598 L 87.44 -19.776 C 94.227 -9.903 95.645 3.301 95.23 16.679 C 94.916 26.97 92.587 36.366 88.793 44.221 L 88.858 46.724 C 87.816 48.964 130.521 97.242 139.659 56.082 Z" transform="matrix(0.743145, -0.669131, 0.669131, 0.743145, 12.051347, 82.757486)">
    <title>fin tol</title>
  </path>
</svg>