<?xml version="1.0" encoding="UTF-8" standalone="no"?>
<svg
   xmlns:dc="http://purl.org/dc/elements/1.1/"
   xmlns:cc="http://creativecommons.org/ns#"
   xmlns:rdf="http://www.w3.org/1999/02/22-rdf-syntax-ns#"
   xmlns:svg="http://www.w3.org/2000/svg"
   xmlns="http://www.w3.org/2000/svg"
   xmlns:xlink="http://www.w3.org/1999/xlink"
   xmlns:sodipodi="http://sodipodi.sourceforge.net/DTD/sodipodi-0.dtd"
   xmlns:inkscape="http://www.inkscape.org/namespaces/inkscape"
   version="1.0"
   width="512"
   height="512"
   viewBox="0 0 51.2 51.2"
   id="svg0"
   sodipodi:version="0.32"
   inkscape:version="0.92.5 (2060ec1f9f, 2020-04-08)"
   sodipodi:docname="Ambox_globe_Asia_Australia.svg"
   inkscape:output_extension="org.inkscape.output.svg.inkscape">
  <metadata
     id="metadata19">
    <rdf:RDF>
      <cc:Work
         rdf:about="">
        <dc:format>image/svg+xml</dc:format>
        <dc:type
           rdf:resource="http://purl.org/dc/dcmitype/StillImage" />
        <dc:title></dc:title>
      </cc:Work>
    </rdf:RDF>
  </metadata>
  <sodipodi:namedview
     inkscape:window-height="1051"
     inkscape:window-width="1920"
     inkscape:pageshadow="2"
     inkscape:pageopacity="0.0"
     guidetolerance="10.0"
     gridtolerance="10.0"
     objecttolerance="10.0"
     borderopacity="1.0"
     bordercolor="#666666"
     pagecolor="#ffffff"
     id="base"
     inkscape:zoom="1"
     inkscape:cx="288.1756"
     inkscape:cy="287.04968"
     inkscape:window-x="0"
     inkscape:window-y="0"
     inkscape:current-layer="svg0"
     showguides="true"
     inkscape:guide-bbox="true"
     showgrid="false"
     inkscape:window-maximized="1">
    <inkscape:grid
       type="xygrid"
       id="grid964" />
  </sodipodi:namedview>
  <defs
     id="defs4">
    <inkscape:perspective
       sodipodi:type="inkscape:persp3d"
       inkscape:vp_x="0 : 310 : 1"
       inkscape:vp_y="0 : 1000 : 0"
       inkscape:vp_z="620 : 310 : 1"
       inkscape:persp3d-origin="310 : 206.66667 : 1"
       id="perspective85" />
    <linearGradient
       spreadMethod="pad"
       gradientUnits="userSpaceOnUse"
       id="circleBorderColor"
       y2="16.248501"
       x2="9.5471001"
       y1="41.179295"
       x1="54.509937"
       xlink:href="#fieldGradient">
      <stop
         offset="0"
         style="stop-color:#3e79ca;stop-opacity:1;"
         id="stop21221" />
      <stop
         offset="1"
         style="stop-color:#36a8ff;stop-opacity:1;"
         id="stop21223" />
    </linearGradient>
    <radialGradient
       id="shadowColor">
      <stop
         offset="0"
         style="stop-color:#000000;stop-opacity:0.31182796;"
         id="stop20244" />
      <stop
         offset="0.88"
         style="stop-color:#000000;stop-opacity:0.60573477;"
         id="stop20246" />
      <stop
         offset="1"
         style="stop-color:#000000;stop-opacity:0;"
         id="stop20248" />
    </radialGradient>
    <linearGradient
       id="radialGradientLand">
      <stop
         id="stop17269"
         offset="0"
         style="stop-color:#49c007;stop-opacity:1;" />
      <stop
         id="stop17271"
         offset="1"
         style="stop-color:#209305;stop-opacity:1;" />
    </linearGradient>
    <radialGradient
       inkscape:collect="always"
       xlink:href="#radialGradientLand"
       id="radialGradient17265"
       cx="27.293375"
       cy="22.184755"
       fx="27.293375"
       fy="22.184755"
       r="25.796875"
       gradientTransform="matrix(0.7383772,-1.1352882,0.7527133,0.4895553,-5.4921904,38.937284)"
       gradientUnits="userSpaceOnUse" />
    <linearGradient
       x1="55.454102"
       y1="42.752899"
       x2="9.5471001"
       y2="16.248501"
       id="linearGradient4174"
       xlink:href="#edgeGradient"
       gradientUnits="userSpaceOnUse" />
    <linearGradient
       x1="42.986301"
       y1="7.0127001"
       x2="22.0144"
       y2="51.987099"
       id="linearGradient4172"
       xlink:href="#fieldGradient"
       gradientUnits="userSpaceOnUse" />
    <radialGradient
       cx="32.5"
       cy="29.5"
       r="26.5"
       fx="32.5"
       fy="29.5"
       id="radialGradient4170"
       xlink:href="#shadowGradient"
       gradientUnits="userSpaceOnUse" />
    <radialGradient
       id="shadowGradient">
      <stop
         id="stop17"
         style="stop-color:#c0c0c0;stop-opacity:1"
         offset="0" />
      <stop
         id="stop19"
         style="stop-color:#c0c0c0;stop-opacity:1"
         offset="0.88" />
      <stop
         id="stop21"
         style="stop-color:#c0c0c0;stop-opacity:0"
         offset="1" />
    </radialGradient>
    <linearGradient
       x1="52.778114"
       y1="-13.238551"
       x2="22.0144"
       y2="51.987099"
       id="fieldGradient"
       gradientUnits="userSpaceOnUse">
      <stop
         id="stop7"
         style="stop-color:#d8ebff;stop-opacity:1;"
         offset="0" />
      <stop
         id="stop9"
         style="stop-color:#4fa9ff;stop-opacity:1;"
         offset="1" />
    </linearGradient>
    <linearGradient
       x1="54.509937"
       y1="41.179295"
       x2="9.5471001"
       y2="16.248501"
       id="edgeGradient"
       gradientUnits="userSpaceOnUse"
       spreadMethod="pad"
       xlink:href="#fieldGradient">
      <stop
         id="stop12"
         style="stop-color:#2b79e0;stop-opacity:1;"
         offset="0" />
      <stop
         id="stop14"
         style="stop-color:#008df7;stop-opacity:1;"
         offset="1" />
    </linearGradient>
    <defs
       id="defs3242">
      <circle
         r="51.375"
         cy="61.875"
         cx="61.625"
         id="SVGID_5_" />
    </defs>
    <clipPath
       id="SVGID_6_">
      <use
         id="use3246"
         overflow="visible"
         xlink:href="#SVGID_5_"
         style="overflow:visible"
         x="0"
         y="0"
         width="62"
         height="62" />
    </clipPath>
    <linearGradient
       gradientTransform="matrix(1,0,0,-1,0,-538)"
       y2="-652.24951"
       x2="61.6255"
       y1="-551.25"
       x1="61.6255"
       gradientUnits="userSpaceOnUse"
       id="SVGID_7_">
      <stop
         id="stop3249"
         style="stop-color:#FFFFFF"
         offset="0" />
      <stop
         id="stop3251"
         style="stop-color:#E1F1FF"
         offset="0.1478" />
      <stop
         id="stop3253"
         style="stop-color:#D4EBFF"
         offset="0.2363" />
      <stop
         id="stop3255"
         style="stop-color:#E3F2FF"
         offset="0.3505" />
      <stop
         id="stop3257"
         style="stop-color:#F3F9FF"
         offset="0.5264" />
      <stop
         id="stop3259"
         style="stop-color:#FCFEFF"
         offset="0.7262" />
      <stop
         id="stop3261"
         style="stop-color:#FFFFFF"
         offset="1" />
    </linearGradient>
    <defs
       id="defs3271">
      <circle
         r="51.375"
         cy="61.875"
         cx="61.625"
         id="SVGID_8_" />
    </defs>
    <clipPath
       id="SVGID_9_">
      <use
         id="use3275"
         overflow="visible"
         xlink:href="#SVGID_8_"
         style="overflow:visible"
         x="0"
         y="0"
         width="62"
         height="62" />
    </clipPath>
    <linearGradient
       gradientTransform="translate(0,-665)"
       y2="728.875"
       x2="107.833"
       y1="728.875"
       x1="10.25"
       gradientUnits="userSpaceOnUse"
       id="SVGID_10_">
      <stop
         id="stop3278"
         style="stop-color:#FFFFFF"
         offset="0" />
      <stop
         id="stop3280"
         style="stop-color:#EDF7FF"
         offset="0.1435" />
      <stop
         id="stop3282"
         style="stop-color:#E0F2FF"
         offset="0.2802" />
      <stop
         id="stop3284"
         style="stop-color:#E3F3FF"
         offset="0.3063" />
      <stop
         id="stop3286"
         style="stop-color:#F3FAFF"
         offset="0.4942" />
      <stop
         id="stop3288"
         style="stop-color:#FCFEFF"
         offset="0.7076" />
      <stop
         id="stop3290"
         style="stop-color:#FFFFFF"
         offset="1" />
    </linearGradient>
    <radialGradient
       id="SVGID_3_"
       cx="61.833"
       cy="-600.16602"
       r="53.000999"
       gradientTransform="matrix(1,0,0,-1,0,-538)"
       gradientUnits="userSpaceOnUse">
      <stop
         offset="0.95050001"
         style="stop-color:#3c6bf3;stop-opacity:1;"
         id="stop3227" />
      <stop
         offset="1"
         style="stop-color:#3c8af2;stop-opacity:1;"
         id="stop3229" />
    </radialGradient>
    <linearGradient
       inkscape:collect="always"
       xlink:href="#edgeGradient"
       id="linearGradient17291"
       gradientUnits="userSpaceOnUse"
       x1="55.454102"
       y1="42.752899"
       x2="9.5471001"
       y2="16.248501" />
    <linearGradient
       inkscape:collect="always"
       xlink:href="#SVGID_7_"
       id="linearGradient2440"
       gradientUnits="userSpaceOnUse"
       gradientTransform="matrix(1,0,0,-1,0,-538)"
       x1="61.6255"
       y1="-551.25"
       x2="61.6255"
       y2="-652.24951" />
    <linearGradient
       id="SVGID_13_"
       gradientUnits="userSpaceOnUse"
       x1="62.4063"
       y1="-595"
       x2="62.4063"
       y2="-603.18707"
       gradientTransform="matrix(1,0,0,-1,0,-538)">
      <stop
         offset="0"
         style="stop-color:#8BA4D6"
         id="stop3535" />
      <stop
         offset="1"
         style="stop-color:#1B3EA6"
         id="stop3537" />
    </linearGradient>
    <linearGradient
       id="SVGID_11_"
       gradientUnits="userSpaceOnUse"
       x1="-160.0361"
       y1="-726.61621"
       x2="-160.0361"
       y2="-729.13458"
       gradientTransform="matrix(0.4699332,0.04741368,0.08074037,-0.2759618,171.41242,-150.97698)">
      <stop
         offset="0"
         style="stop-color:#524AC9"
         id="stop3506" />
      <stop
         offset="0.0957"
         style="stop-color:#5855BC"
         id="stop3508" />
      <stop
         offset="0.2352"
         style="stop-color:#5D60AF"
         id="stop3510" />
      <stop
         offset="0.3681"
         style="stop-color:#5F64AB"
         id="stop3512" />
      <stop
         offset="0.7253"
         style="stop-color:#190C7F"
         id="stop3514" />
    </linearGradient>
    <linearGradient
       id="SVGID_12_"
       gradientUnits="userSpaceOnUse"
       x1="-915.77289"
       y1="-785.93951"
       x2="-915.77289"
       y2="-789.15601"
       gradientTransform="matrix(0.1444826,-0.2594453,-0.2594453,-0.1444826,-26.436133,-312.62999)">
      <stop
         offset="0"
         style="stop-color:#524AC9"
         id="stop3519" />
      <stop
         offset="0.0957"
         style="stop-color:#5855BC"
         id="stop3521" />
      <stop
         offset="0.2352"
         style="stop-color:#5D60AF"
         id="stop3523" />
      <stop
         offset="0.3681"
         style="stop-color:#5F64AB"
         id="stop3525" />
      <stop
         offset="0.7253"
         style="stop-color:#190C7F"
         id="stop3527" />
    </linearGradient>
    <radialGradient
       inkscape:collect="always"
       xlink:href="#shadowColor"
       id="radialGradient2273"
       gradientUnits="userSpaceOnUse"
       gradientTransform="matrix(0.89363619,-0.00522196,0.00476212,0.83924208,-2.147862,1.7076212)"
       cx="31.385874"
       cy="32.356133"
       fx="31.385874"
       fy="32.356133"
       r="26.5" />
    <radialGradient
       inkscape:collect="always"
       xlink:href="#fieldGradient"
       id="radialGradient2275"
       gradientUnits="userSpaceOnUse"
       gradientTransform="matrix(0.33535239,1.0399243,-0.86926271,0.2717981,32.674096,-5.5015653)"
       cx="16.352713"
       cy="26.318125"
       fx="16.352713"
       fy="26.318125"
       r="26.799999" />
    <radialGradient
       inkscape:collect="always"
       xlink:href="#radialGradientLand"
       id="radialGradient2279"
       gradientUnits="userSpaceOnUse"
       gradientTransform="matrix(0.382526,-1.3439084,1.0992837,0.3207092,-11.729592,45.423975)"
       cx="24.112741"
       cy="21.770895"
       fx="24.112741"
       fy="21.770895"
       r="25.796875" />
    <linearGradient
       inkscape:collect="always"
       xlink:href="#circleBorderColor"
       id="linearGradient2281"
       gradientUnits="userSpaceOnUse"
       x1="55.454102"
       y1="42.752899"
       x2="9.5471001"
       y2="16.248501"
       gradientTransform="matrix(0.89493028,0,0,0.8949305,-2.1428384,-2.1428433)" />
    <path
       d="m 127.65,64 c 0,35.15 -28.5,63.66 -63.66,63.66 C 28.84,127.66 0.35,99.16 0.35,64 0.35,28.85 28.85,0.35 63.99,0.35 c 35.16,0 63.66,28.5 63.66,63.65 z"
       id="SVGID_1_"
       inkscape:connector-curvature="0" />
    <radialGradient
       inkscape:collect="always"
       xlink:href="#radialGradientLand"
       id="radialGradient910"
       cx="52.785004"
       cy="52.064541"
       fx="52.785004"
       fy="52.064541"
       r="55.5816"
       gradientTransform="matrix(0.09224181,-0.99581484,1.4901166,0.1380504,-29.666216,97.4411)"
       gradientUnits="userSpaceOnUse" />
    <meshgradient
       inkscape:collect="always"
       id="meshgradient912"
       gradientUnits="userSpaceOnUse"
       x="-2.2160294"
       y="-1.8438129">
      <meshrow
         id="meshrow914">
        <meshpatch
           id="meshpatch916">
          <stop
             path="c 36.6684,0  73.3369,0  110.005,0"
             style="stop-color:#ffffff;stop-opacity:1"
             id="stop918" />
          <stop
             path="c 0,35.9404  0,71.8807  0,107.821"
             style="stop-color:#49c007;stop-opacity:1"
             id="stop920" />
          <stop
             path="c -36.6684,0  -73.3369,0  -110.005,0"
             style="stop-color:#ffffff;stop-opacity:1"
             id="stop922" />
          <stop
             path="c 0,-35.9404  0,-71.8807  0,-107.821"
             style="stop-color:#49c007;stop-opacity:1"
             id="stop924" />
        </meshpatch>
      </meshrow>
    </meshgradient>
    <radialGradient
       inkscape:collect="always"
       xlink:href="#radialGradientLand"
       id="radialGradient926"
       gradientUnits="userSpaceOnUse"
       gradientTransform="matrix(0.59087277,-1.6272015,1.3567854,0.49275605,-49.044626,112.30127)"
       cx="52.785004"
       cy="52.064541"
       fx="52.785004"
       fy="52.064541"
       r="55.5816" />
    <radialGradient
       inkscape:collect="always"
       xlink:href="#radialGradientLand"
       id="radialGradient912"
       gradientUnits="userSpaceOnUse"
       gradientTransform="matrix(0.09224181,-0.99581484,1.4901166,0.1380504,-29.666216,97.4411)"
       cx="52.785004"
       cy="52.064541"
       fx="52.785004"
       fy="52.064541"
       r="55.5816" />
    <radialGradient
       inkscape:collect="always"
       xlink:href="#radialGradientLand"
       id="radialGradient914"
       gradientUnits="userSpaceOnUse"
       gradientTransform="matrix(0.09224181,-0.99581484,1.4901166,0.1380504,-29.666216,97.4411)"
       cx="52.785004"
       cy="52.064541"
       fx="52.785004"
       fy="52.064541"
       r="55.5816" />
    <radialGradient
       inkscape:collect="always"
       xlink:href="#radialGradientLand"
       id="radialGradient916"
       gradientUnits="userSpaceOnUse"
       gradientTransform="matrix(0.09224181,-0.99581484,1.4901166,0.1380504,-29.666216,97.4411)"
       cx="52.785004"
       cy="52.064541"
       fx="52.785004"
       fy="52.064541"
       r="55.5816" />
    <radialGradient
       inkscape:collect="always"
       xlink:href="#radialGradientLand"
       id="radialGradient918"
       gradientUnits="userSpaceOnUse"
       gradientTransform="matrix(0.09224181,-0.99581484,1.4901166,0.1380504,-29.666216,97.4411)"
       cx="52.785004"
       cy="52.064541"
       fx="52.785004"
       fy="52.064541"
       r="55.5816" />
  </defs>
  <ellipse
     id="circle4163"
     style="display:inline;fill:url(#radialGradient2273);fill-opacity:1;stroke-width:1.00649786"
     cy="26.58"
     cx="27.232"
     inkscape:label="shadow"
     rx="26.545"
     ry="26.799999" />
  <ellipse
     id="circle4165"
     style="display:inline;fill:url(#radialGradient2275);fill-opacity:1;stroke:none;stroke-width:1.63316298;stroke-miterlimit:4;stroke-dasharray:none;stroke-opacity:1"
     cy="25.659872"
     cx="25.138235"
     inkscape:label="blueOcean"
     rx="23.111361"
     ry="23.102808" />
  <ellipse
     style="display:inline;opacity:0.29807691;fill:#ffffff;fill-opacity:1;stroke:none;stroke-width:4.64146233;stroke-linecap:butt;stroke-linejoin:miter;stroke-miterlimit:4;stroke-dasharray:none;stroke-opacity:1"
     id="path3228"
     cx="25.138235"
     cy="25.659872"
     inkscape:label="gradientOverOcean"
     rx="23.111361"
     ry="23.102808" />
  <g
     id="g921"
     transform="matrix(0.35036033,0,0,0.35020317,3.2666739,3.2482415)"
     inkscape:label="Asia-Australia"
     style="display:inline">
    <defs
       id="defs896">
      <path
         d="m 127.65,64 c 0,35.15 -28.5,63.66 -63.66,63.66 C 28.84,127.66 0.35,99.16 0.35,64 0.35,28.85 28.85,0.35 63.99,0.35 c 35.16,0 63.66,28.5 63.66,63.65 z"
         id="path932"
         inkscape:connector-curvature="0" />
    </defs>
    <clipPath
       id="SVGID_2_">
      <use
         id="use898"
         xlink:href="#SVGID_1_"
         style="overflow:visible"
         x="0"
         y="0"
         width="100%"
         height="100%" />
    </clipPath>
    <g
       id="g919"
       clip-path="url(#SVGID_2_)"
       inkscape:label="Asia-Australia-Landmasses">
      <g
         id="g915"
         inkscape:label="Landmasses"
         style="opacity:0.98999999;fill:url(#meshgradient912);fill-opacity:1;stroke:#1a7a0b;stroke-width:1.15731823;stroke-miterlimit:4;stroke-dasharray:none;stroke-opacity:1">
        <path
           id="path903"
           style="display:inline;fill:url(#radialGradient926);fill-opacity:1;stroke:#1a7a0b;stroke-width:1.15731823;stroke-miterlimit:4;stroke-dasharray:none;stroke-opacity:1"
           d="m 5,61.63 c 1.02,0.1 2.02,0.28 2.9,0.89 1.2,0.82 1.58,2.38 1.92,3.74 0.81,3.25 0.27,6.76 1.32,9.92 0.53,1.6 0.89,3.1 1.72,4.53 0.8,1.35 1.73,2.58 2.66,3.81 1.18,1.51 3.43,3.57 5.36,2.19 1.75,-1.25 1.62,-4.56 1.61,-6.53 -0.01,-1.85 0.34,-3.66 0.87,-5.41 0.3,-0.97 0.48,-2.01 0.73,-2.99 0.4,-1.61 1.04,-2.83 2.01,-4.14 2.26,-3.04 6.42,-4.31 9.92,-3.15 2,0.66 4,1.6 5.83,2.68 1.57,0.93 2.64,2.49 3.9,3.8 0.92,0.95 1.84,1.75 3.17,1.91 1.37,0.17 2.31,0.02 3.52,0.88 0.48,0.34 1.03,0.71 1.34,1.24 0.31,0.56 0.08,1.15 0.31,1.67 0.63,1.41 2.36,1.18 3.59,1.19 2.48,0.01 5.52,-1.56 6.22,-4.28 0.26,-1.01 -0.5,-1.87 -0.02,-2.85 0.51,-1.06 2.17,-1.84 3.06,-2.57 2.09,-1.71 4.78,-5.39 3.75,-8.38 -0.43,-1.28 -1.38,-2.83 -2.37,-3.74 -1.05,-0.96 -2.5,-1.57 -2.94,-2.96 -0.56,-1.82 -0.91,-4.13 -0.07,-5.91 0.43,-0.92 1.31,-1.77 1.91,-2.6 0.73,-1 1.29,-2.11 2.01,-3.1 0.98,-1.35 2.52,-1.99 3.87,-2.84 1.32,-0.84 2.47,-2.29 2.99,-3.81 0.51,-1.49 0.55,-2.58 1.72,-3.8 1.38,-1.46 3.41,-1.93 4.84,-3.32 1.25,-1.22 1.51,-2.33 2.01,-3.85 0.56,-1.7 2.16,-3.41 3.75,-4.07 3.08,-1.29 6.66,-1.15 9.68,0.24 2.26,1.04 5.19,2.61 7.72,1.63 3.6,-1.39 1.43,-4.45 0.18,-6.77 -1.08,-2 -2.7,-3.82 -4.37,-5.3 C 99.41,7.6 97.03,5.96 94.33,4.6 92.07,3.44 89.95,2.44 87.51,1.74 86.7,1.5 86.12,1.02 85.39,0.64 84.35,0.09 83.16,-0.19 82.05,-0.52 76.16,-2.25 69.9,-1.78 63.86,-1.8 57.14,-1.79 50.19,0.1 43.91,2.39 c -4.62,1.69 -9.43,2.98 -13.8,5.35 -4.24,2.31 -8.46,5.11 -11.89,8.52 -2.99,2.99 -5.81,6.31 -8.23,9.76 -1.24,1.77 -2.66,3.49 -3.76,5.36 -0.82,1.38 -1.07,2.77 -2.22,3.97 -1.13,1.17 -1.76,2.62 -2.32,4.13 -0.38,1.04 -0.88,1.94 -1.34,2.93 -0.43,0.91 -0.55,1.92 -0.93,2.84 -1.15,2.8 -1.93,6.52 -1.53,9.58 0.22,1.7 0.51,3.51 1.58,4.92 0.47,0.63 1.1,1.22 1.85,1.53 0.76,0.32 1.48,0.15 2.27,0.23 0.47,0.05 0.94,0.08 1.41,0.12 z"
           inkscape:connector-curvature="0"
           inkscape:label="Asia" />
        <path
           id="path905"
           style="fill:url(#radialGradient912);fill-opacity:1;stroke:#1a7a0b;stroke-width:1.15731823;stroke-miterlimit:4;stroke-dasharray:none;stroke-opacity:1"
           d="m 79.34,43.82 c -0.54,0.69 -1.26,1.25 -1.79,1.96 -0.49,0.65 -0.54,1.14 -0.76,1.89 -0.7,2.41 -2.67,0.96 -4.29,1.84 -1.37,0.75 -1.61,3.47 -1.65,4.83 -0.07,2.27 1.74,3.18 3.32,1.42 0.66,-0.74 0.87,-1.16 1.91,-1.18 1.05,-0.02 1.85,-0.02 2.82,-0.53 0.79,-0.44 1.21,-0.92 1.22,-1.85 0.01,-0.52 -0.44,-1.01 -0.42,-1.48 0.04,-0.83 0.15,-0.39 0.75,-0.82 1.15,-0.79 1.92,-2.05 2.43,-3.34 0.42,-1.08 0.17,-3.13 1.04,-3.93 0.59,-0.55 1.6,-0.42 2.09,-0.94 1.47,-1.58 -0.77,-7.22 -3.27,-6.07 -1.23,0.56 -3.62,1.74 -3.88,3.24 -0.19,1.1 0.98,1.72 1.25,2.67 0.25,0.91 -0.22,1.57 -0.77,2.29 z"
           inkscape:connector-curvature="0"
           inkscape:label="Japan" />
        <path
           id="path907"
           style="display:inline;fill:url(#radialGradient914);fill-opacity:1;stroke:#1a7a0b;stroke-width:1.15731823;stroke-miterlimit:4;stroke-dasharray:none;stroke-opacity:1"
           d="m 72.1,75.95 c -1.53,0 -3.88,-0.32 -5.09,0.93 -3.09,3.27 3.32,3.12 4.99,3.12 1.56,0 2.81,0.19 4.33,0.47 1.28,0.25 2.55,0.43 3.33,-0.95 0.95,-1.69 -0.45,-3.04 -2.02,-3.47 -1.87,-0.54 -3.63,-0.1 -5.54,-0.1 z"
           inkscape:connector-curvature="0"
           inkscape:label="Indonesia" />
        <path
           id="path909"
           style="fill:url(#radialGradient916);fill-opacity:1;stroke:#1a7a0b;stroke-width:1.15731823;stroke-miterlimit:4;stroke-dasharray:none;stroke-opacity:1"
           d="m 82.95,77.69 c 0.93,0.52 3.38,0.87 4.32,0.29 0.83,-0.51 0.86,-1.9 0.31,-2.63 -1.09,-1.49 -4,-1.57 -5.53,-0.87 -0.87,0.39 -1.23,0.52 -0.77,1.49 0.29,0.6 1.09,1.38 1.67,1.72 z"
           inkscape:connector-curvature="0"
           inkscape:label="PapauNewGuinea" />
        <path
           id="path911"
           style="fill:url(#radialGradient918);fill-opacity:1;stroke:#1a7a0b;stroke-width:1.15731823;stroke-miterlimit:4;stroke-dasharray:none;stroke-opacity:1"
           d="m 77.52,87.61 c -2.23,-1.6 -2.59,-2.72 -5.71,-0.95 -2.11,1.19 -3.9,2.46 -5.71,4.05 -1.79,1.57 -3.98,2.81 -4.3,5.4 -0.23,1.94 0.11,3.35 1.62,4.58 1.78,1.45 3.53,1.42 5.73,1.42 1.5,0 3.07,-0.15 4.57,-0.01 1.46,0.15 2.58,1.03 3.79,1.74 2.18,1.25 4.53,1.37 6.89,1.89 2.85,0.63 5.83,0.09 7.91,-2.01 2.52,-2.54 2.93,-7.48 1.78,-10.72 -0.8,-2.27 -1.81,-4.61 -3.74,-6.06 -2.39,-1.78 -4.1,-0.1 -6.07,1.09 -1.79,1.09 -4.51,1.08 -6.25,-0.08 -0.19,-0.11 -0.36,-0.22 -0.51,-0.34 z"
           inkscape:connector-curvature="0"
           inkscape:label="Australia" />
        <path
           id="path913"
           style="opacity:0.98999999;fill:url(#radialGradient910);fill-opacity:1;stroke:#1a7a0b;stroke-width:1.15731823;stroke-miterlimit:4;stroke-dasharray:none;stroke-opacity:1"
           d="m 27.89,84.12 c 3.14,1.18 0.14,5.02 -1.97,5.25 -1.42,0.16 -1.56,-1.6 -1.39,-2.66 0.25,-1.59 1.65,-3.24 3.36,-2.59 z"
           inkscape:connector-curvature="0"
           inkscape:label="SriLanka" />
      </g>
    </g>
  </g>
  <circle
     id="circle13325"
     style="display:inline;fill:none;stroke:url(#linearGradient2281);stroke-width:1.82159495;stroke-miterlimit:4;stroke-dasharray:none"
     cy="25.599998"
     cx="25.599998"
     inkscape:label="border"
     r="23.089203" />
</svg>
