<?xml version="1.0" encoding="utf-8"?>
<svg viewBox="0 0 500 242" xmlns="http://www.w3.org/2000/svg" xmlns:xlink="http://www.w3.org/1999/xlink" xmlns:bx="https://boxy-svg.com">
  <defs>
    <pattern id="pattern-4" viewBox="0 0 100 100" patternUnits="userSpaceOnUse" preserveAspectRatio="none" width="100" height="100" patternTransform="matrix(1, 0, 0, 1, 0, 0)">
      <rect x="0.068" y="-0.242" width="104.289" height="100.642" style="stroke: rgb(0, 0, 0); stroke-width: 0px; fill: rgb(240, 240, 240);" transform="matrix(0, 1, -1, 0, 100.363487, -3.187764)"/>
      <rect x="-109.778" y="-93.358" width="118.194" height="2.621" style="stroke: rgb(0, 0, 0); stroke-width: 0px; fill: rgb(227, 227, 227);" transform="matrix(-1, 0, 0, -1, 0, 0)"/>
      <rect x="-111.544" y="-87.83" width="118.194" height="2.621" style="stroke: rgb(0, 0, 0); stroke-width: 0px; fill: rgb(227, 227, 227);" transform="matrix(-1, 0, 0, -1, 0, 0)"/>
      <rect x="-109.749" y="-82.046" width="118.194" height="2.621" style="stroke: rgb(0, 0, 0); stroke-width: 0px; fill: rgb(227, 227, 227);" transform="matrix(-1, 0, 0, -1, 0, 0)"/>
      <rect x="-111.515" y="-76.518" width="118.194" height="2.621" style="stroke: rgb(0, 0, 0); stroke-width: 0px; fill: rgb(227, 227, 227);" transform="matrix(-1, 0, 0, -1, 0, 0)"/>
      <rect x="-109.764" y="-70.833" width="118.194" height="2.621" style="stroke: rgb(0, 0, 0); stroke-width: 0px; fill: rgb(227, 227, 227);" transform="matrix(-1, 0, 0, -1, 0, 0)"/>
      <rect x="-111.53" y="-65.305" width="118.194" height="2.621" style="stroke: rgb(0, 0, 0); stroke-width: 0px; fill: rgb(227, 227, 227);" transform="matrix(-1, 0, 0, -1, 0, 0)"/>
      <rect x="-109.735" y="-59.521" width="118.194" height="2.621" style="stroke: rgb(0, 0, 0); stroke-width: 0px; fill: rgb(227, 227, 227);" transform="matrix(-1, 0, 0, -1, 0, 0)"/>
      <rect x="-111.501" y="-53.993" width="118.194" height="2.621" style="stroke: rgb(0, 0, 0); stroke-width: 0px; fill: rgb(227, 227, 227);" transform="matrix(-1, 0, 0, -1, 0, 0)"/>
      <rect x="-108.289" y="-48.016" width="118.194" height="2.621" style="stroke: rgb(0, 0, 0); stroke-width: 0px; fill: rgb(227, 227, 227);" transform="matrix(-1, 0, 0, -1, 0, 0)"/>
      <rect x="-110.055" y="-42.488" width="118.194" height="2.621" style="stroke: rgb(0, 0, 0); stroke-width: 0px; fill: rgb(227, 227, 227);" transform="matrix(-1, 0, 0, -1, 0, 0)"/>
      <rect x="-108.26" y="-36.704" width="118.194" height="2.621" style="stroke: rgb(0, 0, 0); stroke-width: 0px; fill: rgb(227, 227, 227);" transform="matrix(-1, 0, 0, -1, 0, 0)"/>
      <rect x="-110.026" y="-31.176" width="118.194" height="2.621" style="stroke: rgb(0, 0, 0); stroke-width: 0px; fill: rgb(227, 227, 227);" transform="matrix(-1, 0, 0, -1, 0, 0)"/>
      <rect x="-108.275" y="-25.491" width="118.194" height="2.621" style="stroke: rgb(0, 0, 0); stroke-width: 0px; fill: rgb(227, 227, 227);" transform="matrix(-1, 0, 0, -1, 0, 0)"/>
      <rect x="-110.041" y="-19.963" width="118.194" height="2.621" style="stroke: rgb(0, 0, 0); stroke-width: 0px; fill: rgb(227, 227, 227);" transform="matrix(-1, 0, 0, -1, 0, 0)"/>
      <rect x="-108.246" y="-14.179" width="118.194" height="2.621" style="stroke: rgb(0, 0, 0); stroke-width: 0px; fill: rgb(227, 227, 227);" transform="matrix(-1, 0, 0, -1, 0, 0)"/>
      <rect x="-110.012" y="-8.651" width="118.194" height="2.621" style="stroke: rgb(0, 0, 0); stroke-width: 0px; fill: rgb(227, 227, 227);" transform="matrix(-1, 0, 0, -1, 0, 0)"/>
      <rect x="-108.809" y="-99" width="118.194" height="2.621" style="stroke: rgb(0, 0, 0); stroke-width: 0px; fill: rgb(227, 227, 227);" transform="matrix(-1, 0, 0, -1, 0, 0)"/>
      <rect x="-111.202" y="-3.487" width="118.194" height="2.621" style="stroke: rgb(0, 0, 0); stroke-width: 0px; fill: rgb(227, 227, 227);" transform="matrix(-1, 0, 0, -1, 0, 0)"/>
    </pattern>
    <pattern id="pattern-0" viewBox="0 0 100 100" patternUnits="userSpaceOnUse" preserveAspectRatio="none" width="100" height="100" patternTransform="matrix(1, 0, 0, 1, 0, 0)">
      <rect x="0.068" y="-0.242" width="104.289" height="100.642" style="stroke: rgb(0, 0, 0); stroke-width: 0px; fill: rgb(240, 240, 240);" transform="matrix(0, 1, -1, 0, 100.363487, -3.187764)"/>
      <rect x="-109.778" y="-93.358" width="118.194" height="2.621" style="stroke: rgb(0, 0, 0); stroke-width: 0px; fill: rgb(227, 227, 227);" transform="matrix(-1, 0, 0, -1, 0, 0)"/>
      <rect x="-111.544" y="-87.83" width="118.194" height="2.621" style="stroke: rgb(0, 0, 0); stroke-width: 0px; fill: rgb(227, 227, 227);" transform="matrix(-1, 0, 0, -1, 0, 0)"/>
      <rect x="-109.749" y="-82.046" width="118.194" height="2.621" style="stroke: rgb(0, 0, 0); stroke-width: 0px; fill: rgb(227, 227, 227);" transform="matrix(-1, 0, 0, -1, 0, 0)"/>
      <rect x="-111.515" y="-76.518" width="118.194" height="2.621" style="stroke: rgb(0, 0, 0); stroke-width: 0px; fill: rgb(227, 227, 227);" transform="matrix(-1, 0, 0, -1, 0, 0)"/>
      <rect x="-109.764" y="-70.833" width="118.194" height="2.621" style="stroke: rgb(0, 0, 0); stroke-width: 0px; fill: rgb(227, 227, 227);" transform="matrix(-1, 0, 0, -1, 0, 0)"/>
      <rect x="-111.53" y="-65.305" width="118.194" height="2.621" style="stroke: rgb(0, 0, 0); stroke-width: 0px; fill: rgb(227, 227, 227);" transform="matrix(-1, 0, 0, -1, 0, 0)"/>
      <rect x="-109.735" y="-59.521" width="118.194" height="2.621" style="stroke: rgb(0, 0, 0); stroke-width: 0px; fill: rgb(227, 227, 227);" transform="matrix(-1, 0, 0, -1, 0, 0)"/>
      <rect x="-111.501" y="-53.993" width="118.194" height="2.621" style="stroke: rgb(0, 0, 0); stroke-width: 0px; fill: rgb(227, 227, 227);" transform="matrix(-1, 0, 0, -1, 0, 0)"/>
      <rect x="-108.289" y="-48.016" width="118.194" height="2.621" style="stroke: rgb(0, 0, 0); stroke-width: 0px; fill: rgb(227, 227, 227);" transform="matrix(-1, 0, 0, -1, 0, 0)"/>
      <rect x="-110.055" y="-42.488" width="118.194" height="2.621" style="stroke: rgb(0, 0, 0); stroke-width: 0px; fill: rgb(227, 227, 227);" transform="matrix(-1, 0, 0, -1, 0, 0)"/>
      <rect x="-108.26" y="-36.704" width="118.194" height="2.621" style="stroke: rgb(0, 0, 0); stroke-width: 0px; fill: rgb(227, 227, 227);" transform="matrix(-1, 0, 0, -1, 0, 0)"/>
      <rect x="-110.026" y="-31.176" width="118.194" height="2.621" style="stroke: rgb(0, 0, 0); stroke-width: 0px; fill: rgb(227, 227, 227);" transform="matrix(-1, 0, 0, -1, 0, 0)"/>
      <rect x="-108.275" y="-25.491" width="118.194" height="2.621" style="stroke: rgb(0, 0, 0); stroke-width: 0px; fill: rgb(227, 227, 227);" transform="matrix(-1, 0, 0, -1, 0, 0)"/>
      <rect x="-110.041" y="-19.963" width="118.194" height="2.621" style="stroke: rgb(0, 0, 0); stroke-width: 0px; fill: rgb(227, 227, 227);" transform="matrix(-1, 0, 0, -1, 0, 0)"/>
      <rect x="-108.246" y="-14.179" width="118.194" height="2.621" style="stroke: rgb(0, 0, 0); stroke-width: 0px; fill: rgb(227, 227, 227);" transform="matrix(-1, 0, 0, -1, 0, 0)"/>
      <rect x="-110.012" y="-8.651" width="118.194" height="2.621" style="stroke: rgb(0, 0, 0); stroke-width: 0px; fill: rgb(227, 227, 227);" transform="matrix(-1, 0, 0, -1, 0, 0)"/>
      <rect x="-108.809" y="-99" width="118.194" height="2.621" style="stroke: rgb(0, 0, 0); stroke-width: 0px; fill: rgb(227, 227, 227);" transform="matrix(-1, 0, 0, -1, 0, 0)"/>
      <rect x="-111.202" y="-3.487" width="118.194" height="2.621" style="stroke: rgb(0, 0, 0); stroke-width: 0px; fill: rgb(227, 227, 227);" transform="matrix(-1, 0, 0, -1, 0, 0)"/>
    </pattern>
    <pattern id="pattern-1" viewBox="0 0 100 100" patternUnits="userSpaceOnUse" preserveAspectRatio="none" width="100" height="100" patternTransform="matrix(1, 0, 0, 1, 0, 0)">
      <rect x="-2.16" y="-0.42" width="104.289" height="100.642" style="stroke: rgb(0, 0, 0); stroke-width: 0px; fill: rgb(240, 240, 240);"/>
      <rect x="-8.087" y="5.963" width="118.194" height="2.621" style="stroke: rgb(0, 0, 0); stroke-width: 0px; fill: rgb(227, 227, 227);" transform="matrix(0, 1, -1, 0, 100.280998, -1.504997)"/>
      <rect x="-9.853" y="11.491" width="118.194" height="2.621" style="stroke: rgb(0, 0, 0); stroke-width: 0px; fill: rgb(227, 227, 227);" transform="matrix(0, 1, -1, 0, 100.280998, -1.504997)"/>
      <rect x="-8.058" y="17.275" width="118.194" height="2.621" style="stroke: rgb(0, 0, 0); stroke-width: 0px; fill: rgb(227, 227, 227);" transform="matrix(0, 1, -1, 0, 100.280998, -1.504997)"/>
      <rect x="-9.824" y="22.803" width="118.194" height="2.621" style="stroke: rgb(0, 0, 0); stroke-width: 0px; fill: rgb(227, 227, 227);" transform="matrix(0, 1, -1, 0, 100.280998, -1.504997)"/>
      <rect x="-8.073" y="28.488" width="118.194" height="2.621" style="stroke: rgb(0, 0, 0); stroke-width: 0px; fill: rgb(227, 227, 227);" transform="matrix(0, 1, -1, 0, 100.280998, -1.504997)"/>
      <rect x="-9.839" y="34.016" width="118.194" height="2.621" style="stroke: rgb(0, 0, 0); stroke-width: 0px; fill: rgb(227, 227, 227);" transform="matrix(0, 1, -1, 0, 100.280998, -1.504997)"/>
      <rect x="-8.044" y="39.8" width="118.194" height="2.621" style="stroke: rgb(0, 0, 0); stroke-width: 0px; fill: rgb(227, 227, 227);" transform="matrix(0, 1, -1, 0, 100.280998, -1.504997)"/>
      <rect x="-9.81" y="45.328" width="118.194" height="2.621" style="stroke: rgb(0, 0, 0); stroke-width: 0px; fill: rgb(227, 227, 227);" transform="matrix(0, 1, -1, 0, 100.280998, -1.504997)"/>
      <rect x="-6.598" y="51.305" width="118.194" height="2.621" style="stroke: rgb(0, 0, 0); stroke-width: 0px; fill: rgb(227, 227, 227);" transform="matrix(0, 1, -1, 0, 100.280998, -1.504997)"/>
      <rect x="-8.364" y="56.833" width="118.194" height="2.621" style="stroke: rgb(0, 0, 0); stroke-width: 0px; fill: rgb(227, 227, 227);" transform="matrix(0, 1, -1, 0, 100.280998, -1.504997)"/>
      <rect x="-6.569" y="62.617" width="118.194" height="2.621" style="stroke: rgb(0, 0, 0); stroke-width: 0px; fill: rgb(227, 227, 227);" transform="matrix(0, 1, -1, 0, 100.280998, -1.504997)"/>
      <rect x="-8.335" y="68.145" width="118.194" height="2.621" style="stroke: rgb(0, 0, 0); stroke-width: 0px; fill: rgb(227, 227, 227);" transform="matrix(0, 1, -1, 0, 100.280998, -1.504997)"/>
      <rect x="-6.584" y="73.83" width="118.194" height="2.621" style="stroke: rgb(0, 0, 0); stroke-width: 0px; fill: rgb(227, 227, 227);" transform="matrix(0, 1, -1, 0, 100.280998, -1.504997)"/>
      <rect x="-8.35" y="79.358" width="118.194" height="2.621" style="stroke: rgb(0, 0, 0); stroke-width: 0px; fill: rgb(227, 227, 227);" transform="matrix(0, 1, -1, 0, 100.280998, -1.504997)"/>
      <rect x="-6.555" y="85.142" width="118.194" height="2.621" style="stroke: rgb(0, 0, 0); stroke-width: 0px; fill: rgb(227, 227, 227);" transform="matrix(0, 1, -1, 0, 100.280998, -1.504997)"/>
      <rect x="-8.321" y="90.67" width="118.194" height="2.621" style="stroke: rgb(0, 0, 0); stroke-width: 0px; fill: rgb(227, 227, 227);" transform="matrix(0, 1, -1, 0, 100.280998, -1.504997)"/>
      <rect x="-7.118" y="0.321" width="118.194" height="2.621" style="stroke: rgb(0, 0, 0); stroke-width: 0px; fill: rgb(227, 227, 227);" transform="matrix(0, 1, -1, 0, 100.280998, -1.504997)"/>
      <rect x="-9.511" y="95.834" width="118.194" height="2.621" style="stroke: rgb(0, 0, 0); stroke-width: 0px; fill: rgb(227, 227, 227);" transform="matrix(0, 1, -1, 0, 100.280998, -1.504997)"/>
    </pattern>
    <pattern id="pattern-2" viewBox="0 0 100 100" patternUnits="userSpaceOnUse" preserveAspectRatio="none" width="100" height="100" patternTransform="matrix(1, 0, 0, 1, 0, 0)">
      <rect x="-2.16" y="-0.42" width="104.289" height="100.642" style="stroke: rgb(0, 0, 0); stroke-width: 0px; fill: rgb(240, 240, 240);"/>
      <rect x="-8.087" y="5.963" width="118.194" height="2.621" style="stroke: rgb(0, 0, 0); stroke-width: 0px; fill: rgb(227, 227, 227);" transform="matrix(0, 1, -1, 0, 100.280998, -1.504997)"/>
      <rect x="-9.853" y="11.491" width="118.194" height="2.621" style="stroke: rgb(0, 0, 0); stroke-width: 0px; fill: rgb(227, 227, 227);" transform="matrix(0, 1, -1, 0, 100.280998, -1.504997)"/>
      <rect x="-8.058" y="17.275" width="118.194" height="2.621" style="stroke: rgb(0, 0, 0); stroke-width: 0px; fill: rgb(227, 227, 227);" transform="matrix(0, 1, -1, 0, 100.280998, -1.504997)"/>
      <rect x="-9.824" y="22.803" width="118.194" height="2.621" style="stroke: rgb(0, 0, 0); stroke-width: 0px; fill: rgb(227, 227, 227);" transform="matrix(0, 1, -1, 0, 100.280998, -1.504997)"/>
      <rect x="-8.073" y="28.488" width="118.194" height="2.621" style="stroke: rgb(0, 0, 0); stroke-width: 0px; fill: rgb(227, 227, 227);" transform="matrix(0, 1, -1, 0, 100.280998, -1.504997)"/>
      <rect x="-9.839" y="34.016" width="118.194" height="2.621" style="stroke: rgb(0, 0, 0); stroke-width: 0px; fill: rgb(227, 227, 227);" transform="matrix(0, 1, -1, 0, 100.280998, -1.504997)"/>
      <rect x="-8.044" y="39.8" width="118.194" height="2.621" style="stroke: rgb(0, 0, 0); stroke-width: 0px; fill: rgb(227, 227, 227);" transform="matrix(0, 1, -1, 0, 100.280998, -1.504997)"/>
      <rect x="-9.81" y="45.328" width="118.194" height="2.621" style="stroke: rgb(0, 0, 0); stroke-width: 0px; fill: rgb(227, 227, 227);" transform="matrix(0, 1, -1, 0, 100.280998, -1.504997)"/>
      <rect x="-6.598" y="51.305" width="118.194" height="2.621" style="stroke: rgb(0, 0, 0); stroke-width: 0px; fill: rgb(227, 227, 227);" transform="matrix(0, 1, -1, 0, 100.280998, -1.504997)"/>
      <rect x="-8.364" y="56.833" width="118.194" height="2.621" style="stroke: rgb(0, 0, 0); stroke-width: 0px; fill: rgb(227, 227, 227);" transform="matrix(0, 1, -1, 0, 100.280998, -1.504997)"/>
      <rect x="-6.569" y="62.617" width="118.194" height="2.621" style="stroke: rgb(0, 0, 0); stroke-width: 0px; fill: rgb(227, 227, 227);" transform="matrix(0, 1, -1, 0, 100.280998, -1.504997)"/>
      <rect x="-8.335" y="68.145" width="118.194" height="2.621" style="stroke: rgb(0, 0, 0); stroke-width: 0px; fill: rgb(227, 227, 227);" transform="matrix(0, 1, -1, 0, 100.280998, -1.504997)"/>
      <rect x="-6.584" y="73.83" width="118.194" height="2.621" style="stroke: rgb(0, 0, 0); stroke-width: 0px; fill: rgb(227, 227, 227);" transform="matrix(0, 1, -1, 0, 100.280998, -1.504997)"/>
      <rect x="-8.35" y="79.358" width="118.194" height="2.621" style="stroke: rgb(0, 0, 0); stroke-width: 0px; fill: rgb(227, 227, 227);" transform="matrix(0, 1, -1, 0, 100.280998, -1.504997)"/>
      <rect x="-6.555" y="85.142" width="118.194" height="2.621" style="stroke: rgb(0, 0, 0); stroke-width: 0px; fill: rgb(227, 227, 227);" transform="matrix(0, 1, -1, 0, 100.280998, -1.504997)"/>
      <rect x="-8.321" y="90.67" width="118.194" height="2.621" style="stroke: rgb(0, 0, 0); stroke-width: 0px; fill: rgb(227, 227, 227);" transform="matrix(0, 1, -1, 0, 100.280998, -1.504997)"/>
      <rect x="-7.118" y="0.321" width="118.194" height="2.621" style="stroke: rgb(0, 0, 0); stroke-width: 0px; fill: rgb(227, 227, 227);" transform="matrix(0, 1, -1, 0, 100.280998, -1.504997)"/>
      <rect x="-9.511" y="95.834" width="118.194" height="2.621" style="stroke: rgb(0, 0, 0); stroke-width: 0px; fill: rgb(227, 227, 227);" transform="matrix(0, 1, -1, 0, 100.280998, -1.504997)"/>
    </pattern>
    <pattern id="pattern-1-0" patternTransform="matrix(1, 0, 0, 1, 0, 0)" xlink:href="#pattern-3"/>
    <pattern id="pattern-3" viewBox="0 0 100 100" patternUnits="userSpaceOnUse" preserveAspectRatio="none" width="100" height="100" patternTransform="matrix(1, 0, 0, 1, 0, 0)">
      <rect x="-2.16" y="-0.42" width="104.289" height="100.642" style="stroke: rgb(0, 0, 0); stroke-width: 0px; fill: rgb(240, 240, 240);"/>
      <rect x="-8.087" y="5.963" width="118.194" height="2.621" style="stroke: rgb(0, 0, 0); stroke-width: 0px; fill: rgb(227, 227, 227);" transform="matrix(0, 1, -1, 0, 100.280998, -1.504997)"/>
      <rect x="-9.853" y="11.491" width="118.194" height="2.621" style="stroke: rgb(0, 0, 0); stroke-width: 0px; fill: rgb(227, 227, 227);" transform="matrix(0, 1, -1, 0, 100.280998, -1.504997)"/>
      <rect x="-8.058" y="17.275" width="118.194" height="2.621" style="stroke: rgb(0, 0, 0); stroke-width: 0px; fill: rgb(227, 227, 227);" transform="matrix(0, 1, -1, 0, 100.280998, -1.504997)"/>
      <rect x="-9.824" y="22.803" width="118.194" height="2.621" style="stroke: rgb(0, 0, 0); stroke-width: 0px; fill: rgb(227, 227, 227);" transform="matrix(0, 1, -1, 0, 100.280998, -1.504997)"/>
      <rect x="-8.073" y="28.488" width="118.194" height="2.621" style="stroke: rgb(0, 0, 0); stroke-width: 0px; fill: rgb(227, 227, 227);" transform="matrix(0, 1, -1, 0, 100.280998, -1.504997)"/>
      <rect x="-9.839" y="34.016" width="118.194" height="2.621" style="stroke: rgb(0, 0, 0); stroke-width: 0px; fill: rgb(227, 227, 227);" transform="matrix(0, 1, -1, 0, 100.280998, -1.504997)"/>
      <rect x="-8.044" y="39.8" width="118.194" height="2.621" style="stroke: rgb(0, 0, 0); stroke-width: 0px; fill: rgb(227, 227, 227);" transform="matrix(0, 1, -1, 0, 100.280998, -1.504997)"/>
      <rect x="-9.81" y="45.328" width="118.194" height="2.621" style="stroke: rgb(0, 0, 0); stroke-width: 0px; fill: rgb(227, 227, 227);" transform="matrix(0, 1, -1, 0, 100.280998, -1.504997)"/>
      <rect x="-6.598" y="51.305" width="118.194" height="2.621" style="stroke: rgb(0, 0, 0); stroke-width: 0px; fill: rgb(227, 227, 227);" transform="matrix(0, 1, -1, 0, 100.280998, -1.504997)"/>
      <rect x="-8.364" y="56.833" width="118.194" height="2.621" style="stroke: rgb(0, 0, 0); stroke-width: 0px; fill: rgb(227, 227, 227);" transform="matrix(0, 1, -1, 0, 100.280998, -1.504997)"/>
      <rect x="-6.569" y="62.617" width="118.194" height="2.621" style="stroke: rgb(0, 0, 0); stroke-width: 0px; fill: rgb(227, 227, 227);" transform="matrix(0, 1, -1, 0, 100.280998, -1.504997)"/>
      <rect x="-8.335" y="68.145" width="118.194" height="2.621" style="stroke: rgb(0, 0, 0); stroke-width: 0px; fill: rgb(227, 227, 227);" transform="matrix(0, 1, -1, 0, 100.280998, -1.504997)"/>
      <rect x="-6.584" y="73.83" width="118.194" height="2.621" style="stroke: rgb(0, 0, 0); stroke-width: 0px; fill: rgb(227, 227, 227);" transform="matrix(0, 1, -1, 0, 100.280998, -1.504997)"/>
      <rect x="-8.35" y="79.358" width="118.194" height="2.621" style="stroke: rgb(0, 0, 0); stroke-width: 0px; fill: rgb(227, 227, 227);" transform="matrix(0, 1, -1, 0, 100.280998, -1.504997)"/>
      <rect x="-6.555" y="85.142" width="118.194" height="2.621" style="stroke: rgb(0, 0, 0); stroke-width: 0px; fill: rgb(227, 227, 227);" transform="matrix(0, 1, -1, 0, 100.280998, -1.504997)"/>
      <rect x="-8.321" y="90.67" width="118.194" height="2.621" style="stroke: rgb(0, 0, 0); stroke-width: 0px; fill: rgb(227, 227, 227);" transform="matrix(0, 1, -1, 0, 100.280998, -1.504997)"/>
      <rect x="-7.118" y="0.321" width="118.194" height="2.621" style="stroke: rgb(0, 0, 0); stroke-width: 0px; fill: rgb(227, 227, 227);" transform="matrix(0, 1, -1, 0, 100.280998, -1.504997)"/>
      <rect x="-9.511" y="95.834" width="118.194" height="2.621" style="stroke: rgb(0, 0, 0); stroke-width: 0px; fill: rgb(227, 227, 227);" transform="matrix(0, 1, -1, 0, 100.280998, -1.504997)"/>
    </pattern>
    <pattern id="pattern-1-1" patternTransform="matrix(1, 0, 0, 1, 0, 0)" xlink:href="#pattern-3"/>
  </defs>
  <g transform="matrix(-1.551797, 0.690905, -0.690905, -1.551797, 1049.135025, -95.908876)" style="">
    <title>Plastic Bag 2</title>
    <path d="M 459.595 43.134 C 466.623 51.716 459.754 65.572 459.834 76.792 C 459.914 88.012 466.98 101.868 460.074 110.45 C 454.256 117.677 441.855 110.45 432.744 110.45 C 423.634 110.45 411.334 117.678 405.414 110.45 C 398.384 101.868 405.254 88.012 405.174 76.792 C 405.094 65.572 398.028 51.716 404.935 43.134 C 410.752 35.906 423.155 43.134 432.265 43.134 C 441.375 43.134 453.675 35.907 459.595 43.134 Z" style="fill: rgb(236, 236, 236); stroke: rgb(219, 219, 219);" transform="matrix(0.999973, 0.007383, -0.007383, 0.999973, 0.578743, -3.191085)"/>
    <path d="M 461.358 16.189 C 462.892 22.833 461.358 29.822 461.358 36.638 C 461.358 43.454 462.892 50.442 461.358 57.086 C 461.007 58.609 458.211 57.086 456.638 57.086 C 455.065 57.086 452.269 58.609 451.918 57.086 C 450.384 50.442 451.918 43.454 451.918 36.638 C 451.918 29.822 450.384 22.833 451.918 16.189 C 452.621 13.145 461.007 14.667 461.358 16.189 Z" style="fill: rgb(236, 236, 236); stroke: rgb(219, 219, 219);"/>
    <path d="M 413.803 14.62 C 415.337 21.542 413.803 28.822 413.803 35.922 C 413.803 43.022 415.337 50.302 413.803 57.223 C 413.452 58.809 410.656 57.223 409.083 57.223 C 407.51 57.223 404.714 58.809 404.363 57.223 C 402.829 50.302 404.363 43.022 404.363 35.922 C 404.363 28.822 402.829 21.542 404.363 14.62 C 405.066 11.45 413.452 13.035 413.803 14.62 Z" style="fill: rgb(236, 236, 236); stroke: rgb(219, 219, 219);"/>
    <path d="M 460.483 45.453 C 467.71 54.035 460.483 67.892 460.483 79.112 C 460.483 90.332 467.71 104.189 460.483 112.771 C 454.396 119.998 441.585 112.771 432.136 112.771 C 422.687 112.771 409.875 119.999 403.788 112.771 C 396.56 104.189 403.788 90.332 403.788 79.112 C 403.788 67.892 396.56 54.035 403.788 45.453 C 409.875 38.225 422.687 45.453 432.136 45.453 C 441.585 45.453 454.396 38.226 460.483 45.453 Z" style="fill: rgb(236, 236, 236); stroke: rgb(219, 219, 219);"/>
    <path d="M 460.523 17.041 C 461.731 23.523 460.523 30.342 460.523 36.992 C 460.523 43.642 461.731 50.46 460.523 56.942 C 460.247 58.428 458.045 56.942 456.806 56.942 C 455.568 56.942 453.366 58.428 453.09 56.942 C 451.881 50.46 453.09 43.642 453.09 36.992 C 453.09 30.342 451.881 23.523 453.09 17.041 C 453.643 14.071 460.247 15.556 460.523 17.041 Z" style="fill: rgb(236, 236, 236); stroke: rgb(236, 236, 236);"/>
    <path d="M 412.9 15.459 C 414.108 21.941 412.9 28.76 412.9 35.41 C 412.9 42.06 414.108 48.878 412.9 55.36 C 412.624 56.846 410.422 55.36 409.183 55.36 C 407.945 55.36 405.743 56.846 405.467 55.36 C 404.258 48.878 405.467 42.06 405.467 35.41 C 405.467 28.76 404.258 21.941 405.467 15.459 C 406.02 12.489 412.624 13.974 412.9 15.459 Z" style="fill: rgb(236, 236, 236); stroke: rgb(236, 236, 236);"/>
  </g>
  <g style="" transform="matrix(1.560037, -1.732597, 1.732597, 1.560037, -5.432796, 347.250066)">
    <title>Bottle 2</title>
    <ellipse style="fill: rgb(236, 236, 236); stroke: rgb(219, 219, 219);" cx="192.555" cy="54.592" rx="11.304" ry="11.117"/>
    <path style="fill: rgb(236, 236, 236); stroke: rgb(219, 219, 219);" d="M 186.241 62.405 H 199.374 A 6 6 0 0 1 205.374 68.405 V 93.791 A 3 3 0 0 1 202.374 96.791 H 183.241 A 3 3 0 0 1 180.241 93.791 V 68.405 A 6 6 0 0 1 186.241 62.405 Z" bx:shape="rect 180.241 62.405 25.133 34.386 6 6 3 3 1@feceb626"/>
    <rect x="187.833" y="41.069" width="9.036" height="2.56" style="fill: rgb(236, 236, 236); stroke: rgb(219, 219, 219);"/>
    <rect x="186.964" y="37.211" width="10.489" height="3.682" style="fill: rgb(236, 236, 236); stroke: rgb(219, 219, 219);"/>
    <g transform="matrix(-0.508233, -0.293428, 0.293428, -0.508233, 246.162582, 251.52771)" style="">
      <title>Chips Bag</title>
      <path d="M 277.636 195.914 C 281.406 197.06 280.542 206.248 279.613 211.191 C 278.684 216.134 277.823 221.086 277.824 221.853 C 277.825 222.571 277.044 227.002 277.986 231.952 C 278.926 236.902 280.2 245.068 276.483 246.198 C 270.636 247.976 260.866 244.348 254.535 243.908 C 248.202 243.467 241.772 242.582 235.537 242.582 C 229.313 242.582 222.895 243.475 216.574 243.923 C 210.253 244.372 200.12 247.075 194.278 245.3 C 190.509 244.155 194.404 236.419 195.332 231.477 C 196.26 226.534 194.473 222.412 194.473 221.645 C 194.471 219.615 195.105 217.418 194.517 215.433 C 193.93 213.448 194.768 211.365 194.419 209.354 C 194.243 208.338 194.228 206.138 194.407 204.136 C 194.587 202.134 192.434 196.076 194.55 195.432 C 200.395 193.654 210.167 197.489 216.499 197.93 C 222.832 198.37 229.261 199.255 235.497 199.255 C 238.755 199.255 241.963 198.686 245.17 198.117 C 248.378 197.547 251.585 196.978 254.843 196.976 C 257.877 196.975 260.955 197.107 263.985 197.455 C 267.015 197.804 274.789 195.049 277.636 195.914 Z" style="stroke: rgb(219, 219, 219); fill: url(#pattern-4);" transform="matrix(1, 0.000871, -0.000871, 1, 0.192428, -0.205942)"/>
      <path d="M 268.361 197.131 C 271.28 194.984 270.654 206.419 269.942 211.361 C 269.232 216.304 268.573 221.256 268.573 222.023 C 268.573 222.741 267.975 227.172 268.688 232.122 C 269.401 237.072 270.85 246.754 267.534 246.368 C 262.812 245.819 255.64 244.518 250.818 244.078 C 245.995 243.637 241.099 242.752 236.348 242.752 C 231.607 242.752 226.719 243.645 221.903 244.093 C 217.089 244.542 209.218 244.888 204.534 245.679 C 200.793 246.311 205.022 236.589 205.732 231.647 C 206.443 226.704 205.086 222.582 205.086 221.815 C 205.086 219.785 205.57 217.588 205.123 215.603 C 204.677 213.618 205.317 211.535 205.053 209.524 C 204.92 208.508 204.909 206.309 205.047 204.307 C 205.185 202.305 202.969 194.94 205.163 195.603 C 209.735 196.985 217.056 197.66 221.879 198.101 C 226.703 198.541 231.599 199.426 236.348 199.426 C 238.831 199.426 241.273 198.857 243.717 198.288 C 246.162 197.718 248.604 197.149 251.087 197.147 C 253.397 197.146 255.741 197.278 258.048 197.626 C 260.357 197.975 266.451 198.536 268.361 197.131 Z" style="fill: rgb(236, 236, 236); stroke: rgb(219, 219, 219);"/>
    </g>
    <g transform="matrix(0.236236, 0.46364, -0.499535, 0.254526, 145.821259, -104.811913)" style="">
      <title>To-Go-Cup</title>
      <path style="fill: rgb(236, 236, 236); stroke: rgb(219, 219, 219);" d="M 235.783 54.535 L 241.827 89.894 C 241.827 89.894 252.555 94.428 260.11 89.441 L 263.887 54.233 L 235.783 54.535 Z"/>
      <path style="stroke: rgb(219, 219, 219); fill: rgb(219, 219, 219);" d="M 234.032 54.152 L 265.601 53.829 L 265.601 51.85 L 264.012 51.712 L 264.012 49.319 C 264.012 49.319 251.836 46.833 235.887 49.502 L 235.71 51.989 L 233.944 52.126 L 234.032 54.152 Z"/>
    </g>
  </g>
  <g transform="matrix(0.821678, 0, 0, 0.821678, 150.427004, -87.836732)" style="">
    <title>Takeout Box 2</title>
    <path style="fill: rgb(236, 236, 236); stroke: rgb(219, 219, 219);" d="M 257.961 330.965 C 257.961 330.965 262.081 297.446 277.326 295.143 L 334.737 295.561 L 338.438 295.611 L 395.849 295.193 C 411.094 297.497 415.214 331.015 415.214 331.015"/>
    <path style="fill: rgb(236, 236, 236); stroke: rgb(219, 219, 219);" d="M 258.097 367.975 C 258.097 367.975 262.217 334.456 277.462 332.153 L 334.873 332.571 L 338.574 332.621 L 395.985 332.203 C 411.23 334.507 415.35 368.025 415.35 368.025" transform="matrix(-1, 0, 0, -1, 673.446991, 700.178009)"/>
    <rect style="stroke: rgb(219, 219, 219); fill: rgb(219, 219, 219);" x="255.138" y="329.48" width="162.084" height="3.366" rx="1.7" ry="1.7"/>
    <path style="fill: rgb(236, 236, 236); stroke-width: 2px; stroke: rgb(219, 219, 219);" d="M 325.357 332.968 L 328.948 340.683 L 335.706 340.78 L 339.398 340.844 L 346.156 340.747 L 349.747 333.032"/>
  </g>
  <g transform="matrix(0.893309, 0.397726, -0.397726, 0.893309, -211.739032, -243.058094)" style="">
    <title>Fork</title>
    <path style="fill: rgb(236, 236, 236); stroke: rgb(219, 219, 219);" d="M 413.784 167.25 H 420.73 V 235.367 A 3 3 0 0 1 417.73 238.367 H 416.784 A 3 3 0 0 1 413.784 235.367 V 167.25 Z" bx:shape="rect 413.784 167.25 6.946 71.117 0 0 3 3 1@b3ae20bf"/>
    <path style="fill: rgb(236, 236, 236); stroke: rgb(219, 219, 219);" d="M 421.146 166.678 C 427.475 166.871 423.593 132.812 423.593 132.812 L 422.577 126.759 L 420.562 149.928 L 417.792 149.928 L 417.189 132.411 L 416.439 126.552 L 414.266 149.844 L 412 149.844 L 411.328 131.795 L 410.784 127.017 C 410.784 127.017 404.185 162.806 413.163 167.027 L 421.146 166.678 Z"/>
    <path style="fill: rgb(236, 236, 236); stroke-width: 0px; stroke: rgb(219, 219, 219);" d="M 414.282 153.437 H 420.304 V 179.257 A 3 3 0 0 1 417.304 182.257 H 417.282 A 3 3 0 0 1 414.282 179.257 V 153.437 Z" bx:shape="rect 414.282 153.437 6.022 28.82 0 0 3 3 1@f689f845"/>
  </g>
  <g transform="matrix(1.698653, 0, 0, 1.698653, -75.581948, -142.848665)" style="">
    <title>Balloon</title>
    <path d="M 137.856 174.431 L 142.02 181.558 L 133.691 181.558 L 137.856 174.431 Z" style="fill: rgb(236, 236, 236); stroke: rgb(219, 219, 219);" bx:shape="triangle 133.691 174.431 8.329 7.127 0.5 0 1@83c04683"/>
    <ellipse style="fill: rgb(236, 236, 236); stroke: rgb(219, 219, 219);" cx="138.015" cy="146.811" rx="23.912" ry="31.101"/>
  </g>
  <g transform="matrix(-1.136621, 1.262345, -1.262345, -1.136621, 752.913952, 53.135682)" style="">
    <title>Chips Bag</title>
    <path d="M 277.636 195.914 C 281.406 197.06 280.542 206.248 279.613 211.191 C 278.684 216.134 277.823 221.086 277.824 221.853 C 277.825 222.571 277.044 227.002 277.986 231.952 C 278.926 236.902 280.2 245.068 276.483 246.198 C 270.636 247.976 260.866 244.348 254.535 243.908 C 248.202 243.467 241.772 242.582 235.537 242.582 C 229.313 242.582 222.895 243.475 216.574 243.923 C 210.253 244.372 200.12 247.075 194.278 245.3 C 190.509 244.155 194.404 236.419 195.332 231.477 C 196.26 226.534 194.473 222.412 194.473 221.645 C 194.471 219.615 195.105 217.418 194.517 215.433 C 193.93 213.448 194.768 211.365 194.419 209.354 C 194.243 208.338 194.228 206.138 194.407 204.136 C 194.587 202.134 192.434 196.076 194.55 195.432 C 200.395 193.654 210.167 197.489 216.499 197.93 C 222.832 198.37 229.261 199.255 235.497 199.255 C 238.755 199.255 241.963 198.686 245.17 198.117 C 248.378 197.547 251.585 196.978 254.843 196.976 C 257.877 196.975 260.955 197.107 263.985 197.455 C 267.015 197.804 274.789 195.049 277.636 195.914 Z" style="fill: url(#pattern-0); stroke: rgb(219, 219, 219);" transform="matrix(1, 0.000871, -0.000871, 1, 0.192428, -0.205942)"/>
    <path d="M 268.361 197.131 C 271.28 194.984 270.654 206.419 269.942 211.361 C 269.232 216.304 268.573 221.256 268.573 222.023 C 268.573 222.741 267.975 227.172 268.688 232.122 C 269.401 237.072 270.85 246.754 267.534 246.368 C 262.812 245.819 255.64 244.518 250.818 244.078 C 245.995 243.637 241.099 242.752 236.348 242.752 C 231.607 242.752 226.719 243.645 221.903 244.093 C 217.089 244.542 209.218 244.888 204.534 245.679 C 200.793 246.311 205.022 236.589 205.732 231.647 C 206.443 226.704 205.086 222.582 205.086 221.815 C 205.086 219.785 205.57 217.588 205.123 215.603 C 204.677 213.618 205.317 211.535 205.053 209.524 C 204.92 208.508 204.909 206.309 205.047 204.307 C 205.185 202.305 202.969 194.94 205.163 195.603 C 209.735 196.985 217.056 197.66 221.879 198.101 C 226.703 198.541 231.599 199.426 236.348 199.426 C 238.831 199.426 241.273 198.857 243.717 198.288 C 246.162 197.718 248.604 197.149 251.087 197.147 C 253.397 197.146 255.741 197.278 258.048 197.626 C 260.357 197.975 266.451 198.536 268.361 197.131 Z" style="fill: rgb(236, 236, 236); stroke: rgb(219, 219, 219);"/>
  </g>
  <g transform="matrix(1.698653, 0, 0, 1.698653, -366.673803, 10.515809)" style="">
    <title>To-Go-Cup</title>
    <path style="fill: rgb(236, 236, 236); stroke: rgb(219, 219, 219);" d="M 235.783 54.535 L 241.827 89.894 C 241.827 89.894 252.555 94.428 260.11 89.441 L 263.887 54.233 L 235.783 54.535 Z"/>
    <path style="stroke: rgb(219, 219, 219); fill: rgb(219, 219, 219);" d="M 234.032 54.152 L 265.601 53.829 L 265.601 51.85 L 264.012 51.712 L 264.012 49.319 C 264.012 49.319 251.836 46.833 235.887 49.502 L 235.71 51.989 L 233.944 52.126 L 234.032 54.152 Z"/>
  </g>
  <g style="" transform="matrix(2.331439, 0, 0, 2.331439, -186.242648, -17.781584)">
    <title>Bottle 2</title>
    <ellipse style="fill: rgb(236, 236, 236); stroke: rgb(219, 219, 219);" cx="192.555" cy="54.592" rx="11.304" ry="11.117"/>
    <path style="fill: rgb(236, 236, 236); stroke: rgb(219, 219, 219);" d="M 186.241 62.405 H 199.374 A 6 6 0 0 1 205.374 68.405 V 93.791 A 3 3 0 0 1 202.374 96.791 H 183.241 A 3 3 0 0 1 180.241 93.791 V 68.405 A 6 6 0 0 1 186.241 62.405 Z" bx:shape="rect 180.241 62.405 25.133 34.386 6 6 3 3 1@feceb626"/>
    <rect x="187.833" y="41.069" width="9.036" height="2.56" style="fill: rgb(236, 236, 236); stroke: rgb(219, 219, 219);"/>
    <rect x="186.964" y="37.211" width="10.489" height="3.682" style="fill: rgb(236, 236, 236); stroke: rgb(219, 219, 219);"/>
  </g>
  <g transform="matrix(0.207016, -1.685989, 1.685989, 0.207016, -32.447762, 709.827464)" style="">
    <title>Plastic Bag</title>
    <rect x="300.835" y="49.758" width="60.605" height="66.094" style="fill: rgb(236, 236, 236); stroke: rgb(219, 219, 219);"/>
    <rect x="300.635" y="24.174" width="9.719" height="94.698" style="fill: rgb(236, 236, 236); stroke: rgb(219, 219, 219);"/>
    <rect x="351.884" y="24.129" width="9.719" height="94.698" style="fill: rgb(236, 236, 236); stroke: rgb(219, 219, 219);"/>
    <rect x="300.727" y="52.897" width="60.605" height="66.094" style="fill: rgb(236, 236, 236); stroke: rgb(219, 219, 219);"/>
  </g>
  <g transform="matrix(-0.12497, 1.434327, -1.685992, 0.207013, 519.861519, -462.191444)" style="">
    <title>Plastic Bag 2</title>
    <path d="M 459.595 43.134 C 466.623 51.716 459.754 65.572 459.834 76.792 C 459.914 88.012 466.98 101.868 460.074 110.45 C 454.256 117.677 441.855 110.45 432.744 110.45 C 423.634 110.45 411.334 117.678 405.414 110.45 C 398.384 101.868 405.254 88.012 405.174 76.792 C 405.094 65.572 398.028 51.716 404.935 43.134 C 410.752 35.906 423.155 43.134 432.265 43.134 C 441.375 43.134 453.675 35.907 459.595 43.134 Z" style="fill: rgb(236, 236, 236); stroke: rgb(219, 219, 219);" transform="matrix(0.999973, 0.007383, -0.007383, 0.999973, 0.578743, -3.191085)"/>
    <path d="M 461.358 16.189 C 462.892 22.833 461.358 29.822 461.358 36.638 C 461.358 43.454 462.892 50.442 461.358 57.086 C 461.007 58.609 458.211 57.086 456.638 57.086 C 455.065 57.086 452.269 58.609 451.918 57.086 C 450.384 50.442 451.918 43.454 451.918 36.638 C 451.918 29.822 450.384 22.833 451.918 16.189 C 452.621 13.145 461.007 14.667 461.358 16.189 Z" style="fill: rgb(236, 236, 236); stroke: rgb(219, 219, 219);"/>
    <path d="M 413.803 14.62 C 415.337 21.542 413.803 28.822 413.803 35.922 C 413.803 43.022 415.337 50.302 413.803 57.223 C 413.452 58.809 410.656 57.223 409.083 57.223 C 407.51 57.223 404.714 58.809 404.363 57.223 C 402.829 50.302 404.363 43.022 404.363 35.922 C 404.363 28.822 402.829 21.542 404.363 14.62 C 405.066 11.45 413.452 13.035 413.803 14.62 Z" style="fill: rgb(236, 236, 236); stroke: rgb(219, 219, 219);"/>
    <path d="M 460.483 45.453 C 467.71 54.035 460.483 67.892 460.483 79.112 C 460.483 90.332 467.71 104.189 460.483 112.771 C 454.396 119.998 441.585 112.771 432.136 112.771 C 422.687 112.771 409.875 119.999 403.788 112.771 C 396.56 104.189 403.788 90.332 403.788 79.112 C 403.788 67.892 396.56 54.035 403.788 45.453 C 409.875 38.225 422.687 45.453 432.136 45.453 C 441.585 45.453 454.396 38.226 460.483 45.453 Z" style="fill: rgb(236, 236, 236); stroke: rgb(219, 219, 219);"/>
    <path d="M 460.523 17.041 C 461.731 23.523 460.523 30.342 460.523 36.992 C 460.523 43.642 461.731 50.46 460.523 56.942 C 460.247 58.428 458.045 56.942 456.806 56.942 C 455.568 56.942 453.366 58.428 453.09 56.942 C 451.881 50.46 453.09 43.642 453.09 36.992 C 453.09 30.342 451.881 23.523 453.09 17.041 C 453.643 14.071 460.247 15.556 460.523 17.041 Z" style="fill: rgb(236, 236, 236); stroke: rgb(236, 236, 236);"/>
    <path d="M 412.9 15.459 C 414.108 21.941 412.9 28.76 412.9 35.41 C 412.9 42.06 414.108 48.878 412.9 55.36 C 412.624 56.846 410.422 55.36 409.183 55.36 C 407.945 55.36 405.743 56.846 405.467 55.36 C 404.258 48.878 405.467 42.06 405.467 35.41 C 405.467 28.76 404.258 21.941 405.467 15.459 C 406.02 12.489 412.624 13.974 412.9 15.459 Z" style="fill: rgb(236, 236, 236); stroke: rgb(236, 236, 236);"/>
  </g>
  <g transform="matrix(0.656143, -0.476714, 0.476714, 0.656143, 25.444991, 243.420841)" style="">
    <title>Knife</title>
    <path style="fill: rgb(236, 236, 236); stroke: rgb(219, 219, 219);" d="M 438.236 169.975 H 445.182 V 238.092 A 3 3 0 0 1 442.182 241.092 H 441.236 A 3 3 0 0 1 438.236 238.092 V 169.975 Z" bx:shape="rect 438.236 169.975 6.946 71.117 0 0 3 3 1@79b74cc0"/>
    <path style="fill: rgb(236, 236, 236); stroke: rgb(219, 219, 219);" d="M 445.129 170.12 L 445.776 121.202 C 445.776 121.202 424.026 164.217 438.014 169.716 L 445.129 170.12 Z"/>
    <path style="fill: rgb(236, 236, 236); stroke-width: 0px; stroke: rgb(219, 219, 219);" d="M 438.639 155.047 H 444.596 V 180.867 A 2.979 3 0 0 1 441.618 183.867 H 441.618 A 2.979 3 0 0 1 438.639 180.867 V 155.047 Z" bx:shape="rect 438.639 155.047 5.957 28.82 0 0 3 3 1@fe80fbea"/>
  </g>
  <g transform="matrix(0.294967, -1.672847, 1.672847, 0.294967, 63.409226, 599.414743)" style="">
    <title>To-Go-Cup</title>
    <path style="fill: rgb(236, 236, 236); stroke: rgb(219, 219, 219);" d="M 235.783 54.535 L 241.827 89.894 C 241.827 89.894 252.555 94.428 260.11 89.441 L 263.887 54.233 L 235.783 54.535 Z"/>
    <path style="stroke: rgb(219, 219, 219); fill: rgb(219, 219, 219);" d="M 234.032 54.152 L 265.601 53.829 L 265.601 51.85 L 264.012 51.712 L 264.012 49.319 C 264.012 49.319 251.836 46.833 235.887 49.502 L 235.71 51.989 L 233.944 52.126 L 234.032 54.152 Z"/>
  </g>
  <g transform="matrix(1.698653, 0, 0, 1.698653, 103.060754, 8.879884)" style="">
    <title>Wrapper</title>
    <path d="M 136.856 96.698 C 136.695 97.036 136.518 97.33 136.327 97.587 C 136.136 97.844 135.931 98.063 135.714 98.246 C 135.497 98.43 135.268 98.58 135.026 98.702 C 134.786 98.822 134.534 98.912 134.272 98.973 C 134.011 99.037 133.739 99.073 133.459 99.087 C 133.18 99.102 132.893 99.094 132.598 99.068 C 132.304 99.04 132.002 98.997 131.697 98.937 C 131.39 98.879 131.079 98.804 130.763 98.72 C 130.448 98.637 130.128 98.541 129.807 98.439 C 129.485 98.34 129.161 98.231 128.836 98.12 C 128.511 98.01 128.184 97.898 127.859 97.786 C 127.533 97.672 127.208 97.561 126.885 97.456 C 126.562 97.352 126.241 97.252 125.923 97.161 C 125.605 97.07 125.291 96.987 124.981 96.92 C 124.671 96.852 124.366 96.796 124.068 96.758 C 123.769 96.72 123.477 96.698 123.192 96.698 C 122.908 96.698 122.615 96.72 122.317 96.758 C 122.018 96.796 121.713 96.852 121.404 96.92 C 121.095 96.987 120.78 97.07 120.461 97.161 C 120.144 97.252 119.823 97.352 119.5 97.456 C 119.176 97.561 118.852 97.672 118.525 97.786 C 118.2 97.898 117.874 98.01 117.548 98.12 C 117.224 98.231 116.9 98.34 116.578 98.439 C 116.257 98.54 115.937 98.635 115.621 98.72 C 115.306 98.804 114.995 98.879 114.688 98.937 C 114.381 98.997 114.081 99.042 113.786 99.068 C 113.492 99.094 113.205 99.103 112.925 99.087 C 112.646 99.073 112.375 99.037 112.113 98.973 C 111.852 98.912 111.6 98.822 111.358 98.702 C 111.118 98.58 110.888 98.43 110.67 98.246 C 110.453 98.063 110.249 97.844 110.058 97.587 C 109.867 97.33 109.69 97.036 109.528 96.698 C 109.294 96.211 109.088 95.707 108.91 95.193 C 108.731 94.68 108.579 94.154 108.451 93.616 C 108.323 93.081 108.219 92.533 108.135 91.977 C 108.052 91.42 107.989 90.855 107.945 90.28 C 107.901 89.706 107.876 89.123 107.866 88.534 C 107.856 87.944 107.861 87.349 107.88 86.746 C 107.898 86.143 107.929 85.534 107.97 84.924 C 108.011 84.312 108.063 83.694 108.121 83.074 C 108.18 82.453 108.246 81.831 108.316 81.206 C 108.387 80.579 108.462 79.953 108.539 79.324 C 108.616 78.697 108.695 78.067 108.773 77.439 C 108.85 76.81 108.927 76.181 109.001 75.554 C 109.073 74.928 109.144 74.303 109.206 73.682 C 109.27 73.058 109.326 72.44 109.374 71.825 C 109.421 71.21 109.46 70.598 109.487 69.992 C 109.513 69.388 109.528 68.786 109.528 68.192 C 109.528 67.598 109.513 66.998 109.487 66.392 C 109.46 65.788 109.421 65.176 109.374 64.56 C 109.326 63.946 109.27 63.326 109.206 62.704 C 109.144 62.08 109.073 61.456 109.001 60.828 C 108.927 60.203 108.85 59.574 108.773 58.947 C 108.695 58.318 108.616 57.689 108.539 57.058 C 108.462 56.432 108.387 55.804 108.316 55.178 C 108.246 54.553 108.18 53.93 108.121 53.31 C 108.063 52.689 108.011 52.073 107.97 51.46 C 107.929 50.848 107.898 50.24 107.88 49.637 C 107.861 49.036 107.856 48.44 107.866 47.852 C 107.876 47.261 107.901 46.68 107.945 46.105 C 107.989 45.531 108.052 44.964 108.135 44.408 C 108.219 43.851 108.323 43.304 108.451 42.767 C 108.579 42.231 108.731 41.704 108.91 41.19 C 109.088 40.677 109.293 40.175 109.528 39.685 C 109.69 39.349 109.867 39.053 110.058 38.798 C 110.249 38.541 110.453 38.323 110.67 38.137 C 110.887 37.953 111.117 37.803 111.358 37.683 C 111.6 37.563 111.852 37.475 112.113 37.412 C 112.375 37.349 112.646 37.312 112.925 37.297 C 113.205 37.284 113.492 37.29 113.786 37.317 C 114.081 37.343 114.381 37.388 114.688 37.447 C 114.994 37.507 115.305 37.579 115.621 37.663 C 115.937 37.747 116.257 37.843 116.578 37.946 C 116.9 38.046 117.224 38.154 117.548 38.264 C 117.874 38.374 118.2 38.488 118.525 38.6 C 118.852 38.712 119.176 38.823 119.5 38.927 C 119.823 39.033 120.144 39.132 120.461 39.225 C 120.78 39.315 121.095 39.396 121.404 39.465 C 121.713 39.534 122.018 39.587 122.317 39.625 C 122.615 39.664 122.908 39.685 123.192 39.685 C 123.477 39.685 123.769 39.664 124.068 39.625 C 124.366 39.587 124.671 39.534 124.981 39.465 C 125.291 39.396 125.605 39.315 125.923 39.225 C 126.241 39.132 126.562 39.033 126.885 38.927 C 127.208 38.823 127.533 38.712 127.859 38.6 C 128.184 38.488 128.51 38.374 128.836 38.264 C 129.16 38.154 129.485 38.046 129.807 37.946 C 130.128 37.843 130.448 37.747 130.763 37.663 C 131.079 37.579 131.39 37.507 131.697 37.447 C 132.002 37.388 132.304 37.343 132.598 37.317 C 132.893 37.29 133.18 37.284 133.459 37.297 C 133.739 37.312 134.011 37.349 134.272 37.412 C 134.534 37.475 134.785 37.563 135.026 37.683 C 135.267 37.803 135.497 37.953 135.714 38.137 C 135.931 38.323 136.136 38.541 136.327 38.798 C 136.517 39.053 136.694 39.349 136.856 39.685 C 137.091 40.175 137.296 40.677 137.474 41.19 C 137.653 41.704 137.805 42.231 137.933 42.767 C 138.062 43.304 138.166 43.851 138.249 44.408 C 138.333 44.964 138.395 45.531 138.439 46.105 C 138.482 46.68 138.508 47.261 138.518 47.852 C 138.529 48.44 138.523 49.036 138.505 49.637 C 138.487 50.24 138.455 50.848 138.414 51.46 C 138.373 52.073 138.321 52.689 138.263 53.31 C 138.205 53.93 138.139 54.553 138.068 55.178 C 137.997 55.804 137.922 56.432 137.845 57.058 C 137.768 57.689 137.69 58.318 137.612 58.947 C 137.534 59.574 137.457 60.203 137.383 60.828 C 137.311 61.456 137.241 62.08 137.178 62.704 C 137.115 63.326 137.058 63.946 137.01 64.56 C 136.963 65.176 136.924 65.788 136.897 66.392 C 136.871 66.998 136.856 67.598 136.856 68.192 C 136.856 68.786 136.871 69.388 136.897 69.992 C 136.924 70.598 136.963 71.21 137.01 71.825 C 137.058 72.44 137.115 73.058 137.178 73.682 C 137.241 74.303 137.311 74.928 137.383 75.554 C 137.457 76.181 137.534 76.81 137.612 77.439 C 137.69 78.067 137.768 78.697 137.845 79.324 C 137.922 79.953 137.997 80.579 138.068 81.206 C 138.138 81.831 138.204 82.453 138.263 83.074 C 138.321 83.694 138.373 84.312 138.414 84.924 C 138.455 85.534 138.487 86.143 138.505 86.746 C 138.523 87.349 138.529 87.944 138.518 88.534 C 138.508 89.123 138.482 89.706 138.439 90.28 C 138.395 90.855 138.333 91.42 138.249 91.977 C 138.166 92.533 138.062 93.081 137.933 93.616 C 137.805 94.154 137.653 94.68 137.474 95.193 C 137.296 95.707 137.091 96.211 136.856 96.698 Z" style="fill: url(#pattern-1); stroke: rgb(219, 219, 219);" transform="matrix(0.173648, 0.984808, -0.984808, 0.173648, 168.956848, -64.969519)"/>
    <path d="M 137.07 90.944 C 136.909 91.214 136.732 91.449 136.541 91.655 C 136.35 91.86 136.145 92.035 135.928 92.182 C 135.711 92.329 135.482 92.449 135.24 92.546 C 135 92.642 134.748 92.714 134.486 92.763 C 134.225 92.814 133.953 92.843 133.673 92.854 C 133.394 92.866 133.107 92.86 132.812 92.839 C 132.518 92.817 132.216 92.782 131.911 92.734 C 131.604 92.688 131.293 92.628 130.977 92.561 C 130.662 92.494 130.342 92.418 130.021 92.336 C 129.699 92.257 129.375 92.17 129.05 92.081 C 128.725 91.993 128.398 91.903 128.073 91.814 C 127.747 91.723 127.422 91.634 127.099 91.55 C 126.776 91.467 126.455 91.387 126.137 91.314 C 125.819 91.241 125.505 91.175 125.195 91.121 C 124.885 91.067 124.58 91.022 124.282 90.992 C 123.983 90.961 123.691 90.944 123.406 90.944 C 123.122 90.944 122.829 90.961 122.531 90.992 C 122.232 91.022 121.927 91.067 121.618 91.121 C 121.309 91.175 120.994 91.241 120.675 91.314 C 120.358 91.387 120.037 91.467 119.714 91.55 C 119.39 91.634 119.066 91.723 118.739 91.814 C 118.414 91.903 118.088 91.993 117.762 92.081 C 117.438 92.17 117.114 92.257 116.792 92.336 C 116.471 92.417 116.151 92.493 115.835 92.561 C 115.52 92.628 115.209 92.688 114.902 92.734 C 114.595 92.782 114.295 92.818 114 92.839 C 113.706 92.86 113.419 92.867 113.139 92.854 C 112.86 92.843 112.589 92.814 112.327 92.763 C 112.066 92.714 111.814 92.642 111.572 92.546 C 111.332 92.449 111.102 92.329 110.884 92.182 C 110.667 92.035 110.463 91.86 110.272 91.655 C 110.081 91.449 109.904 91.214 109.742 90.944 C 109.508 90.554 109.302 90.151 109.124 89.74 C 108.945 89.33 108.793 88.909 108.665 88.479 C 108.537 88.051 108.433 87.613 108.349 87.168 C 108.266 86.723 108.203 86.271 108.159 85.811 C 108.115 85.352 108.09 84.886 108.08 84.415 C 108.07 83.943 108.075 83.467 108.094 82.985 C 108.112 82.503 108.143 82.016 108.184 81.528 C 108.225 81.038 108.277 80.544 108.335 80.048 C 108.394 79.552 108.46 79.054 108.53 78.554 C 108.601 78.053 108.676 77.552 108.753 77.049 C 108.83 76.548 108.909 76.044 108.987 75.542 C 109.064 75.039 109.141 74.536 109.215 74.034 C 109.287 73.534 109.358 73.034 109.42 72.537 C 109.484 72.038 109.54 71.544 109.588 71.052 C 109.635 70.56 109.674 70.071 109.701 69.586 C 109.727 69.103 109.742 68.622 109.742 68.147 C 109.742 67.672 109.727 67.192 109.701 66.707 C 109.674 66.224 109.635 65.735 109.588 65.242 C 109.54 64.751 109.484 64.255 109.42 63.758 C 109.358 63.259 109.287 62.76 109.215 62.258 C 109.141 61.758 109.064 61.255 108.987 60.753 C 108.909 60.25 108.83 59.747 108.753 59.243 C 108.676 58.742 108.601 58.24 108.53 57.739 C 108.46 57.239 108.394 56.741 108.335 56.245 C 108.277 55.749 108.225 55.256 108.184 54.766 C 108.143 54.276 108.112 53.79 108.094 53.308 C 108.075 52.827 108.07 52.351 108.08 51.88 C 108.09 51.408 108.115 50.943 108.159 50.483 C 108.203 50.024 108.266 49.571 108.349 49.126 C 108.433 48.681 108.537 48.243 108.665 47.814 C 108.793 47.385 108.945 46.964 109.124 46.553 C 109.302 46.142 109.507 45.741 109.742 45.349 C 109.904 45.08 110.081 44.844 110.272 44.64 C 110.463 44.434 110.667 44.26 110.884 44.111 C 111.101 43.964 111.331 43.844 111.572 43.748 C 111.814 43.652 112.066 43.582 112.327 43.531 C 112.589 43.481 112.86 43.451 113.139 43.439 C 113.419 43.429 113.706 43.434 114 43.455 C 114.295 43.476 114.595 43.512 114.902 43.559 C 115.208 43.607 115.519 43.665 115.835 43.732 C 116.151 43.799 116.471 43.876 116.792 43.958 C 117.114 44.038 117.438 44.125 117.762 44.213 C 118.088 44.301 118.414 44.392 118.739 44.481 C 119.066 44.571 119.39 44.66 119.714 44.743 C 120.037 44.828 120.358 44.907 120.675 44.981 C 120.994 45.053 121.309 45.118 121.618 45.173 C 121.927 45.228 122.232 45.271 122.531 45.301 C 122.829 45.332 123.122 45.349 123.406 45.349 C 123.691 45.349 123.983 45.332 124.282 45.301 C 124.58 45.271 124.885 45.228 125.195 45.173 C 125.505 45.118 125.819 45.053 126.137 44.981 C 126.455 44.907 126.776 44.828 127.099 44.743 C 127.422 44.66 127.747 44.571 128.073 44.481 C 128.398 44.392 128.724 44.301 129.05 44.213 C 129.374 44.125 129.699 44.038 130.021 43.958 C 130.342 43.876 130.662 43.799 130.977 43.732 C 131.293 43.665 131.604 43.607 131.911 43.559 C 132.216 43.512 132.518 43.476 132.812 43.455 C 133.107 43.434 133.394 43.429 133.673 43.439 C 133.953 43.451 134.225 43.481 134.486 43.531 C 134.748 43.582 134.999 43.652 135.24 43.748 C 135.481 43.844 135.711 43.964 135.928 44.111 C 136.145 44.26 136.35 44.434 136.541 44.64 C 136.731 44.844 136.908 45.08 137.07 45.349 C 137.305 45.741 137.51 46.142 137.688 46.553 C 137.867 46.964 138.019 47.385 138.147 47.814 C 138.276 48.243 138.38 48.681 138.463 49.126 C 138.547 49.571 138.609 50.024 138.653 50.483 C 138.696 50.943 138.722 51.408 138.732 51.88 C 138.743 52.351 138.737 52.827 138.719 53.308 C 138.701 53.79 138.669 54.276 138.628 54.766 C 138.587 55.256 138.535 55.749 138.477 56.245 C 138.419 56.741 138.353 57.239 138.282 57.739 C 138.211 58.24 138.136 58.742 138.059 59.243 C 137.982 59.747 137.904 60.25 137.826 60.753 C 137.748 61.255 137.671 61.758 137.597 62.258 C 137.525 62.76 137.455 63.259 137.392 63.758 C 137.329 64.255 137.272 64.751 137.224 65.242 C 137.177 65.735 137.138 66.224 137.111 66.707 C 137.085 67.192 137.07 67.672 137.07 68.147 C 137.07 68.622 137.085 69.103 137.111 69.586 C 137.138 70.071 137.177 70.56 137.224 71.052 C 137.272 71.544 137.329 72.038 137.392 72.537 C 137.455 73.034 137.525 73.534 137.597 74.034 C 137.671 74.536 137.748 75.039 137.826 75.542 C 137.904 76.044 137.982 76.548 138.059 77.049 C 138.136 77.552 138.211 78.053 138.282 78.554 C 138.352 79.054 138.418 79.552 138.477 80.048 C 138.535 80.544 138.587 81.038 138.628 81.528 C 138.669 82.016 138.701 82.503 138.719 82.985 C 138.737 83.467 138.743 83.943 138.732 84.415 C 138.722 84.886 138.696 85.352 138.653 85.811 C 138.609 86.271 138.547 86.723 138.463 87.168 C 138.38 87.613 138.276 88.051 138.147 88.479 C 138.019 88.909 137.867 89.33 137.688 89.74 C 137.51 90.151 137.305 90.554 137.07 90.944 Z" style="fill: rgb(236, 236, 236); stroke: rgb(219, 219, 219);" transform="matrix(0.173648, 0.984808, -0.984808, 0.173648, 169.088982, -65.217769)"/>
    <rect style="stroke-width: 0px; fill: rgb(255, 255, 255); stroke: rgb(219, 219, 219);" transform="matrix(0.981627, -0.190809, 0.190809, 0.981627, -47.110161, -33.100185)" x="138.082" y="123.817" width="21.302" height="16.472" rx="1" ry="1"/>
  </g>
  <g transform="matrix(1.698653, 0, 0, 1.698653, -212.855716, -207.474017)" style="">
    <title>Bottle</title>
    <path style="fill: rgb(236, 236, 236); stroke: rgb(219, 219, 219);" d="M 175.967 185.018 H 200.205 A 8.7 8.7 0 0 1 208.905 193.718 V 198.495 A 4 4 0 0 1 204.905 202.495 H 171.267 A 4 4 0 0 1 167.267 198.495 V 193.718 A 8.7 8.7 0 0 1 175.967 185.018 Z" bx:shape="rect 167.267 185.018 41.638 17.477 8.7 8.7 4 4 1@a42ad1a2"/>
    <rect style="fill: rgb(236, 236, 236); stroke: rgb(219, 219, 219);" x="181.389" y="177.336" width="12.26" height="7.523"/>
    <rect x="170.395" y="202.468" width="35.431" height="20.994" style="fill: rgb(236, 236, 236); stroke: rgb(219, 219, 219);"/>
    <path style="fill: rgb(236, 236, 236); stroke: rgb(219, 219, 219);" d="M -202.987 -249.655 H -173.198 A 6 6 0 0 1 -167.198 -243.655 V -227.407 A 4 4 0 0 1 -171.198 -223.407 H -204.987 A 4 4 0 0 1 -208.987 -227.407 V -243.655 A 6 6 0 0 1 -202.987 -249.655 Z" transform="matrix(-1, 0, 0, -1, 0, 0)" bx:shape="rect -208.987 -249.655 41.789 26.248 6 6 4 4 1@0b030d2e"/>
    <rect style="fill: rgb(236, 236, 236); stroke: rgb(219, 219, 219);" x="179.687" y="169.408" width="15.401" height="7.754"/>
  </g>
  <g transform="matrix(1.440539, 0.900148, -0.900148, 1.440539, -54.785184, -29.036375)" style="">
    <title>Wrapper</title>
    <path d="M 136.856 96.698 C 136.695 97.036 136.518 97.33 136.327 97.587 C 136.136 97.844 135.931 98.063 135.714 98.246 C 135.497 98.43 135.268 98.58 135.026 98.702 C 134.786 98.822 134.534 98.912 134.272 98.973 C 134.011 99.037 133.739 99.073 133.459 99.087 C 133.18 99.102 132.893 99.094 132.598 99.068 C 132.304 99.04 132.002 98.997 131.697 98.937 C 131.39 98.879 131.079 98.804 130.763 98.72 C 130.448 98.637 130.128 98.541 129.807 98.439 C 129.485 98.34 129.161 98.231 128.836 98.12 C 128.511 98.01 128.184 97.898 127.859 97.786 C 127.533 97.672 127.208 97.561 126.885 97.456 C 126.562 97.352 126.241 97.252 125.923 97.161 C 125.605 97.07 125.291 96.987 124.981 96.92 C 124.671 96.852 124.366 96.796 124.068 96.758 C 123.769 96.72 123.477 96.698 123.192 96.698 C 122.908 96.698 122.615 96.72 122.317 96.758 C 122.018 96.796 121.713 96.852 121.404 96.92 C 121.095 96.987 120.78 97.07 120.461 97.161 C 120.144 97.252 119.823 97.352 119.5 97.456 C 119.176 97.561 118.852 97.672 118.525 97.786 C 118.2 97.898 117.874 98.01 117.548 98.12 C 117.224 98.231 116.9 98.34 116.578 98.439 C 116.257 98.54 115.937 98.635 115.621 98.72 C 115.306 98.804 114.995 98.879 114.688 98.937 C 114.381 98.997 114.081 99.042 113.786 99.068 C 113.492 99.094 113.205 99.103 112.925 99.087 C 112.646 99.073 112.375 99.037 112.113 98.973 C 111.852 98.912 111.6 98.822 111.358 98.702 C 111.118 98.58 110.888 98.43 110.67 98.246 C 110.453 98.063 110.249 97.844 110.058 97.587 C 109.867 97.33 109.69 97.036 109.528 96.698 C 109.294 96.211 109.088 95.707 108.91 95.193 C 108.731 94.68 108.579 94.154 108.451 93.616 C 108.323 93.081 108.219 92.533 108.135 91.977 C 108.052 91.42 107.989 90.855 107.945 90.28 C 107.901 89.706 107.876 89.123 107.866 88.534 C 107.856 87.944 107.861 87.349 107.88 86.746 C 107.898 86.143 107.929 85.534 107.97 84.924 C 108.011 84.312 108.063 83.694 108.121 83.074 C 108.18 82.453 108.246 81.831 108.316 81.206 C 108.387 80.579 108.462 79.953 108.539 79.324 C 108.616 78.697 108.695 78.067 108.773 77.439 C 108.85 76.81 108.927 76.181 109.001 75.554 C 109.073 74.928 109.144 74.303 109.206 73.682 C 109.27 73.058 109.326 72.44 109.374 71.825 C 109.421 71.21 109.46 70.598 109.487 69.992 C 109.513 69.388 109.528 68.786 109.528 68.192 C 109.528 67.598 109.513 66.998 109.487 66.392 C 109.46 65.788 109.421 65.176 109.374 64.56 C 109.326 63.946 109.27 63.326 109.206 62.704 C 109.144 62.08 109.073 61.456 109.001 60.828 C 108.927 60.203 108.85 59.574 108.773 58.947 C 108.695 58.318 108.616 57.689 108.539 57.058 C 108.462 56.432 108.387 55.804 108.316 55.178 C 108.246 54.553 108.18 53.93 108.121 53.31 C 108.063 52.689 108.011 52.073 107.97 51.46 C 107.929 50.848 107.898 50.24 107.88 49.637 C 107.861 49.036 107.856 48.44 107.866 47.852 C 107.876 47.261 107.901 46.68 107.945 46.105 C 107.989 45.531 108.052 44.964 108.135 44.408 C 108.219 43.851 108.323 43.304 108.451 42.767 C 108.579 42.231 108.731 41.704 108.91 41.19 C 109.088 40.677 109.293 40.175 109.528 39.685 C 109.69 39.349 109.867 39.053 110.058 38.798 C 110.249 38.541 110.453 38.323 110.67 38.137 C 110.887 37.953 111.117 37.803 111.358 37.683 C 111.6 37.563 111.852 37.475 112.113 37.412 C 112.375 37.349 112.646 37.312 112.925 37.297 C 113.205 37.284 113.492 37.29 113.786 37.317 C 114.081 37.343 114.381 37.388 114.688 37.447 C 114.994 37.507 115.305 37.579 115.621 37.663 C 115.937 37.747 116.257 37.843 116.578 37.946 C 116.9 38.046 117.224 38.154 117.548 38.264 C 117.874 38.374 118.2 38.488 118.525 38.6 C 118.852 38.712 119.176 38.823 119.5 38.927 C 119.823 39.033 120.144 39.132 120.461 39.225 C 120.78 39.315 121.095 39.396 121.404 39.465 C 121.713 39.534 122.018 39.587 122.317 39.625 C 122.615 39.664 122.908 39.685 123.192 39.685 C 123.477 39.685 123.769 39.664 124.068 39.625 C 124.366 39.587 124.671 39.534 124.981 39.465 C 125.291 39.396 125.605 39.315 125.923 39.225 C 126.241 39.132 126.562 39.033 126.885 38.927 C 127.208 38.823 127.533 38.712 127.859 38.6 C 128.184 38.488 128.51 38.374 128.836 38.264 C 129.16 38.154 129.485 38.046 129.807 37.946 C 130.128 37.843 130.448 37.747 130.763 37.663 C 131.079 37.579 131.39 37.507 131.697 37.447 C 132.002 37.388 132.304 37.343 132.598 37.317 C 132.893 37.29 133.18 37.284 133.459 37.297 C 133.739 37.312 134.011 37.349 134.272 37.412 C 134.534 37.475 134.785 37.563 135.026 37.683 C 135.267 37.803 135.497 37.953 135.714 38.137 C 135.931 38.323 136.136 38.541 136.327 38.798 C 136.517 39.053 136.694 39.349 136.856 39.685 C 137.091 40.175 137.296 40.677 137.474 41.19 C 137.653 41.704 137.805 42.231 137.933 42.767 C 138.062 43.304 138.166 43.851 138.249 44.408 C 138.333 44.964 138.395 45.531 138.439 46.105 C 138.482 46.68 138.508 47.261 138.518 47.852 C 138.529 48.44 138.523 49.036 138.505 49.637 C 138.487 50.24 138.455 50.848 138.414 51.46 C 138.373 52.073 138.321 52.689 138.263 53.31 C 138.205 53.93 138.139 54.553 138.068 55.178 C 137.997 55.804 137.922 56.432 137.845 57.058 C 137.768 57.689 137.69 58.318 137.612 58.947 C 137.534 59.574 137.457 60.203 137.383 60.828 C 137.311 61.456 137.241 62.08 137.178 62.704 C 137.115 63.326 137.058 63.946 137.01 64.56 C 136.963 65.176 136.924 65.788 136.897 66.392 C 136.871 66.998 136.856 67.598 136.856 68.192 C 136.856 68.786 136.871 69.388 136.897 69.992 C 136.924 70.598 136.963 71.21 137.01 71.825 C 137.058 72.44 137.115 73.058 137.178 73.682 C 137.241 74.303 137.311 74.928 137.383 75.554 C 137.457 76.181 137.534 76.81 137.612 77.439 C 137.69 78.067 137.768 78.697 137.845 79.324 C 137.922 79.953 137.997 80.579 138.068 81.206 C 138.138 81.831 138.204 82.453 138.263 83.074 C 138.321 83.694 138.373 84.312 138.414 84.924 C 138.455 85.534 138.487 86.143 138.505 86.746 C 138.523 87.349 138.529 87.944 138.518 88.534 C 138.508 89.123 138.482 89.706 138.439 90.28 C 138.395 90.855 138.333 91.42 138.249 91.977 C 138.166 92.533 138.062 93.081 137.933 93.616 C 137.805 94.154 137.653 94.68 137.474 95.193 C 137.296 95.707 137.091 96.211 136.856 96.698 Z" style="stroke: rgb(219, 219, 219); fill: url(#pattern-2);" transform="matrix(0.173648, 0.984808, -0.984808, 0.173648, 168.956848, -64.969519)"/>
    <path d="M 137.07 90.944 C 136.909 91.214 136.732 91.449 136.541 91.655 C 136.35 91.86 136.145 92.035 135.928 92.182 C 135.711 92.329 135.482 92.449 135.24 92.546 C 135 92.642 134.748 92.714 134.486 92.763 C 134.225 92.814 133.953 92.843 133.673 92.854 C 133.394 92.866 133.107 92.86 132.812 92.839 C 132.518 92.817 132.216 92.782 131.911 92.734 C 131.604 92.688 131.293 92.628 130.977 92.561 C 130.662 92.494 130.342 92.418 130.021 92.336 C 129.699 92.257 129.375 92.17 129.05 92.081 C 128.725 91.993 128.398 91.903 128.073 91.814 C 127.747 91.723 127.422 91.634 127.099 91.55 C 126.776 91.467 126.455 91.387 126.137 91.314 C 125.819 91.241 125.505 91.175 125.195 91.121 C 124.885 91.067 124.58 91.022 124.282 90.992 C 123.983 90.961 123.691 90.944 123.406 90.944 C 123.122 90.944 122.829 90.961 122.531 90.992 C 122.232 91.022 121.927 91.067 121.618 91.121 C 121.309 91.175 120.994 91.241 120.675 91.314 C 120.358 91.387 120.037 91.467 119.714 91.55 C 119.39 91.634 119.066 91.723 118.739 91.814 C 118.414 91.903 118.088 91.993 117.762 92.081 C 117.438 92.17 117.114 92.257 116.792 92.336 C 116.471 92.417 116.151 92.493 115.835 92.561 C 115.52 92.628 115.209 92.688 114.902 92.734 C 114.595 92.782 114.295 92.818 114 92.839 C 113.706 92.86 113.419 92.867 113.139 92.854 C 112.86 92.843 112.589 92.814 112.327 92.763 C 112.066 92.714 111.814 92.642 111.572 92.546 C 111.332 92.449 111.102 92.329 110.884 92.182 C 110.667 92.035 110.463 91.86 110.272 91.655 C 110.081 91.449 109.904 91.214 109.742 90.944 C 109.508 90.554 109.302 90.151 109.124 89.74 C 108.945 89.33 108.793 88.909 108.665 88.479 C 108.537 88.051 108.433 87.613 108.349 87.168 C 108.266 86.723 108.203 86.271 108.159 85.811 C 108.115 85.352 108.09 84.886 108.08 84.415 C 108.07 83.943 108.075 83.467 108.094 82.985 C 108.112 82.503 108.143 82.016 108.184 81.528 C 108.225 81.038 108.277 80.544 108.335 80.048 C 108.394 79.552 108.46 79.054 108.53 78.554 C 108.601 78.053 108.676 77.552 108.753 77.049 C 108.83 76.548 108.909 76.044 108.987 75.542 C 109.064 75.039 109.141 74.536 109.215 74.034 C 109.287 73.534 109.358 73.034 109.42 72.537 C 109.484 72.038 109.54 71.544 109.588 71.052 C 109.635 70.56 109.674 70.071 109.701 69.586 C 109.727 69.103 109.742 68.622 109.742 68.147 C 109.742 67.672 109.727 67.192 109.701 66.707 C 109.674 66.224 109.635 65.735 109.588 65.242 C 109.54 64.751 109.484 64.255 109.42 63.758 C 109.358 63.259 109.287 62.76 109.215 62.258 C 109.141 61.758 109.064 61.255 108.987 60.753 C 108.909 60.25 108.83 59.747 108.753 59.243 C 108.676 58.742 108.601 58.24 108.53 57.739 C 108.46 57.239 108.394 56.741 108.335 56.245 C 108.277 55.749 108.225 55.256 108.184 54.766 C 108.143 54.276 108.112 53.79 108.094 53.308 C 108.075 52.827 108.07 52.351 108.08 51.88 C 108.09 51.408 108.115 50.943 108.159 50.483 C 108.203 50.024 108.266 49.571 108.349 49.126 C 108.433 48.681 108.537 48.243 108.665 47.814 C 108.793 47.385 108.945 46.964 109.124 46.553 C 109.302 46.142 109.507 45.741 109.742 45.349 C 109.904 45.08 110.081 44.844 110.272 44.64 C 110.463 44.434 110.667 44.26 110.884 44.111 C 111.101 43.964 111.331 43.844 111.572 43.748 C 111.814 43.652 112.066 43.582 112.327 43.531 C 112.589 43.481 112.86 43.451 113.139 43.439 C 113.419 43.429 113.706 43.434 114 43.455 C 114.295 43.476 114.595 43.512 114.902 43.559 C 115.208 43.607 115.519 43.665 115.835 43.732 C 116.151 43.799 116.471 43.876 116.792 43.958 C 117.114 44.038 117.438 44.125 117.762 44.213 C 118.088 44.301 118.414 44.392 118.739 44.481 C 119.066 44.571 119.39 44.66 119.714 44.743 C 120.037 44.828 120.358 44.907 120.675 44.981 C 120.994 45.053 121.309 45.118 121.618 45.173 C 121.927 45.228 122.232 45.271 122.531 45.301 C 122.829 45.332 123.122 45.349 123.406 45.349 C 123.691 45.349 123.983 45.332 124.282 45.301 C 124.58 45.271 124.885 45.228 125.195 45.173 C 125.505 45.118 125.819 45.053 126.137 44.981 C 126.455 44.907 126.776 44.828 127.099 44.743 C 127.422 44.66 127.747 44.571 128.073 44.481 C 128.398 44.392 128.724 44.301 129.05 44.213 C 129.374 44.125 129.699 44.038 130.021 43.958 C 130.342 43.876 130.662 43.799 130.977 43.732 C 131.293 43.665 131.604 43.607 131.911 43.559 C 132.216 43.512 132.518 43.476 132.812 43.455 C 133.107 43.434 133.394 43.429 133.673 43.439 C 133.953 43.451 134.225 43.481 134.486 43.531 C 134.748 43.582 134.999 43.652 135.24 43.748 C 135.481 43.844 135.711 43.964 135.928 44.111 C 136.145 44.26 136.35 44.434 136.541 44.64 C 136.731 44.844 136.908 45.08 137.07 45.349 C 137.305 45.741 137.51 46.142 137.688 46.553 C 137.867 46.964 138.019 47.385 138.147 47.814 C 138.276 48.243 138.38 48.681 138.463 49.126 C 138.547 49.571 138.609 50.024 138.653 50.483 C 138.696 50.943 138.722 51.408 138.732 51.88 C 138.743 52.351 138.737 52.827 138.719 53.308 C 138.701 53.79 138.669 54.276 138.628 54.766 C 138.587 55.256 138.535 55.749 138.477 56.245 C 138.419 56.741 138.353 57.239 138.282 57.739 C 138.211 58.24 138.136 58.742 138.059 59.243 C 137.982 59.747 137.904 60.25 137.826 60.753 C 137.748 61.255 137.671 61.758 137.597 62.258 C 137.525 62.76 137.455 63.259 137.392 63.758 C 137.329 64.255 137.272 64.751 137.224 65.242 C 137.177 65.735 137.138 66.224 137.111 66.707 C 137.085 67.192 137.07 67.672 137.07 68.147 C 137.07 68.622 137.085 69.103 137.111 69.586 C 137.138 70.071 137.177 70.56 137.224 71.052 C 137.272 71.544 137.329 72.038 137.392 72.537 C 137.455 73.034 137.525 73.534 137.597 74.034 C 137.671 74.536 137.748 75.039 137.826 75.542 C 137.904 76.044 137.982 76.548 138.059 77.049 C 138.136 77.552 138.211 78.053 138.282 78.554 C 138.352 79.054 138.418 79.552 138.477 80.048 C 138.535 80.544 138.587 81.038 138.628 81.528 C 138.669 82.016 138.701 82.503 138.719 82.985 C 138.737 83.467 138.743 83.943 138.732 84.415 C 138.722 84.886 138.696 85.352 138.653 85.811 C 138.609 86.271 138.547 86.723 138.463 87.168 C 138.38 87.613 138.276 88.051 138.147 88.479 C 138.019 88.909 137.867 89.33 137.688 89.74 C 137.51 90.151 137.305 90.554 137.07 90.944 Z" style="fill: rgb(236, 236, 236); stroke: rgb(219, 219, 219);" transform="matrix(0.173648, 0.984808, -0.984808, 0.173648, 169.088982, -65.217769)"/>
    <rect style="stroke-width: 0px; fill: rgb(255, 255, 255); stroke: rgb(219, 219, 219);" transform="matrix(0.981627, -0.190809, 0.190809, 0.981627, -47.110161, -33.100185)" x="138.082" y="123.817" width="21.302" height="16.472" rx="1" ry="1"/>
  </g>
  <g transform="matrix(1.178622, 0, 0, 1.178622, -116.658541, -3.443541)" style="">
    <title>Bonbon Wrapper</title>
    <path d="M 317.011 211.203 L 325.595 228.277 L 308.427 228.277 L 317.011 211.203 Z" style="fill: url(#pattern-1-0); stroke: rgb(219, 219, 219);" transform="matrix(0, -1, 1, 0, 27.460045, 479.993378)" bx:shape="triangle 308.427 211.203 17.168 17.074 0.5 0 1@9d22239b"/>
    <path d="M 317.011 211.203 L 325.595 228.277 L 308.427 228.277 L 317.011 211.203 Z" style="fill: url(#pattern-1-1); stroke: rgb(219, 219, 219);" transform="matrix(0, 1, -1, 0, 437.388336, -153.606186)" bx:shape="triangle 308.427 211.203 17.168 17.074 0.5 0 1@9d22239b"/>
    <ellipse style="fill: rgb(236, 236, 236); stroke: rgb(219, 219, 219);" cx="232.167" cy="162.572" rx="12.328" ry="9.449"/>
  </g>
  <g transform="matrix(1.338557, 1.045796, -1.045796, 1.338557, 497.858131, -85.235734)" style="">
    <title>Straw 2</title>
    <polygon style="fill: rgb(236, 236, 236); stroke: rgb(219, 219, 219);" points="25.461 197.73 25.959 153.248 31.253 133.833 34.374 134.662 29.368 154.007 28.632 197.649"/>
    <line style="fill: rgb(216, 216, 216); stroke: rgb(219, 219, 219);" x1="25.894" y1="157.026" x2="28.849" y2="157.059"/>
    <line style="fill: rgb(216, 216, 216); stroke: rgb(219, 219, 219);" x1="26.105" y1="154.83" x2="28.995" y2="154.895"/>
    <line style="fill: rgb(216, 216, 216); stroke: rgb(219, 219, 219);" x1="25.887" y1="152.602" x2="29.423" y2="152.595"/>
    <line style="fill: rgb(216, 216, 216); stroke: rgb(219, 219, 219);" x1="25.867" y1="159.633" x2="28.822" y2="159.666"/>
  </g>
  <g transform="matrix(0.717366, -0.192218, 0.13891, 0.731651, -94.737237, 71.206849)" style="">
    <title>Wattestbchen</title>
    <rect x="313.731" y="147.552" width="3.668" height="66.132" style="fill: rgb(236, 236, 236); stroke: rgb(219, 219, 219);"/>
    <ellipse style="fill: rgb(251, 251, 251); stroke: rgb(219, 219, 219);" cx="315.565" cy="144.218" rx="3.835" ry="7.558"/>
    <ellipse style="fill: rgb(251, 251, 251); stroke: rgb(219, 219, 219);" cx="315.398" cy="217.352" rx="3.835" ry="7.558"/>
  </g>
  <g transform="matrix(0.487237, 0.560503, -0.596708, 0.445587, 238.662388, -68.976976)" style="">
    <title>Wattestbchen</title>
    <rect x="313.731" y="147.552" width="3.668" height="66.132" style="fill: rgb(236, 236, 236); stroke: rgb(219, 219, 219);"/>
    <ellipse style="fill: rgb(251, 251, 251); stroke: rgb(219, 219, 219);" cx="315.565" cy="144.218" rx="3.835" ry="7.558"/>
    <ellipse style="fill: rgb(251, 251, 251); stroke: rgb(219, 219, 219);" cx="315.398" cy="217.352" rx="3.835" ry="7.558"/>
  </g>
  <g style="" transform="matrix(0.936046, 0, 0, 0.936046, -57.43039, -58.061616)">
    <title>Spoon</title>
    <path style="fill: rgb(236, 236, 236); stroke: rgb(219, 219, 219);" d="M 366.258 168.315 H 373.204 V 236.432 A 3 3 0 0 1 370.204 239.432 H 369.258 A 3 3 0 0 1 366.258 236.432 V 168.315 Z" bx:shape="rect 366.258 168.315 6.946 71.117 0 0 3 3 1@e18e2d49"/>
    <ellipse style="fill: rgb(236, 236, 236); stroke: rgb(219, 219, 219);" cx="369.674" cy="150.648" rx="11.923" ry="17.673"/>
    <path style="fill: rgb(236, 236, 236); stroke-width: 0px; stroke: rgb(219, 219, 219);" d="M 366.823 156.622 H 372.78 V 182.442 A 2.979 3 0 0 1 369.802 185.442 H 369.802 A 2.979 3 0 0 1 366.823 182.442 V 156.622 Z" bx:shape="rect 366.823 156.622 5.957 28.82 0 0 3 3 1@a103055f"/>
  </g>
  <g transform="matrix(1.081845, 0, 0, 1.081845, 309.489354, -86.694642)" style="">
    <title>Straw</title>
    <polygon style="fill: rgb(236, 236, 236); stroke: rgb(219, 219, 219);" points="25.461 192.712 25.959 151.723 36.243 136.697 38.757 138.242 29.368 152.423 28.632 192.638"/>
    <line style="fill: rgb(216, 216, 216); stroke: rgb(219, 219, 219);" x1="25.92" y1="156.486" x2="28.875" y2="156.519"/>
    <line style="fill: rgb(216, 216, 216); stroke: rgb(219, 219, 219);" x1="26.182" y1="154.599" x2="29.072" y2="154.664"/>
    <line style="fill: rgb(216, 216, 216); stroke: rgb(219, 219, 219);" x1="25.887" y1="152.602" x2="29.423" y2="152.595"/>
    <line style="fill: rgb(216, 216, 216); stroke: rgb(219, 219, 219);" x1="25.867" y1="158.374" x2="28.822" y2="158.407"/>
  </g>
</svg>