<?xml version="1.0" encoding="utf-8"?>
<svg viewBox="0 0 222 335" xmlns="http://www.w3.org/2000/svg">
  <path style="stroke-width: 2px; stroke-linejoin: round; fill: rgb(200, 176, 98); stroke: rgb(200, 176, 98);" d="M 131.066 240.515 C 131.066 240.515 138.012 255.881 132.571 267.75 L 155.955 267.625 C 155.955 267.625 151.439 252.633 157.922 241.514 C 164.404 230.396 140.558 234.019 140.558 234.019 L 131.066 240.515 Z"/>
  <path style="fill: none; stroke-linecap: round; stroke: rgb(200, 176, 98); stroke-width: 3px;" d="M 134.231 268.458 C 134.231 272.234 134.862 275.998 134.364 279.816 C 133.342 287.651 128.806 294.391 124.92 300.949 C 123.242 303.78 121.572 306.743 119.307 309.203 C 115.294 313.563 110.242 317.171 106.629 321.815"/>
  <path style="fill: none; stroke-linecap: round; stroke: rgb(200, 176, 98); stroke-width: 3px;" d="M 143.42 268.288 C 143.42 275.457 142.074 282.427 140.893 289.505 C 138.785 302.164 136.405 315.308 130.286 326.672"/>
  <path style="fill: none; stroke-linecap: round; stroke: rgb(200, 176, 98); stroke-width: 3px;" d="M 154.828 268.029 C 154.828 270.423 154.124 272.876 153.893 275.26 C 152.236 292.375 144.795 307.011 138.185 322.631"/>
  <path style="fill: rgb(216, 216, 216); stroke-linecap: round; stroke: rgb(200, 176, 98); stroke-width: 3px;" d="M 167.673 128.778 L 187.795 112.26"/>
  <path style="fill: rgb(216, 216, 216); stroke-linecap: round; stroke: rgb(200, 176, 98); stroke-width: 3px;" d="M 170.377 133.884 L 193.501 124.724"/>
  <path style="fill: rgb(216, 216, 216); stroke-linecap: round; stroke: rgb(200, 176, 98); stroke-width: 3px;" d="M 172.929 141.092 L 197.406 140.191"/>
  <path style="fill: rgb(216, 216, 216); stroke-linecap: round; stroke: rgb(200, 176, 98); stroke-width: 3px;" d="M 120.478 132.5 L 93.187 122.431"/>
  <path style="fill: rgb(216, 216, 216); stroke-linecap: round; stroke: rgb(200, 176, 98); stroke-width: 3px;" d="M 117.37 138.767 L 89.788 135.265"/>
  <path style="fill: rgb(216, 216, 216); stroke-linecap: round; stroke: rgb(200, 176, 98); stroke-width: 3px;" d="M 114.935 145.654 L 89.689 151.346"/>
  <path style="fill: none; stroke-linecap: round; stroke: rgb(200, 176, 98); stroke-width: 3px;" d="M 154.304 112.007 C 154.304 112.007 183.928 97.461 181.484 85.317 C 179.04 73.173 169.422 87.859 168.963 73.596 C 168.505 59.333 184.386 29.851 201.182 33.805 C 217.978 37.759 209.733 4.149 209.733 4.149"/>
  <path style="stroke-linecap: round; fill: none; stroke: rgb(200, 176, 98); stroke-width: 3px;" d="M 134.298 111.807 C 134.298 111.807 112.124 79.876 85.604 88.158 C 59.084 96.44 61.486 102.789 61.486 102.789 C 61.486 102.789 63.416 118.525 44.67 114.844 C 25.924 111.163 42.497 97.36 26.952 93.771 C 11.408 90.182 3.405 107.206 3.405 107.206"/>
  <path d="M 177.909 179.763 C 177.909 203.502 172.415 224.5 163.995 237.276 C 162.524 239.194 160.085 241.851 158.067 241.511 C 157.584 241.19 157.103 240.89 156.624 240.61 C 156.456 240.439 156.325 240.366 156.225 240.381 C 145.277 234.214 135.541 238.371 131.709 240.558 C 129.086 240.912 126.104 237.302 124.832 235.562 C 116.985 222.689 111.893 202.515 111.893 179.763 C 111.893 140.827 126.67 109.263 144.901 109.263 C 163.13 109.263 177.909 140.827 177.909 179.763 Z" style="stroke-width: 2px; stroke: rgb(214, 188, 102); fill: rgb(214, 188, 102);"/>
</svg>