<?xml version="1.0" encoding="utf-8"?>
<svg viewBox="367.201 100.634 166.514 193.071" xmlns="http://www.w3.org/2000/svg" xmlns:bx="https://boxy-svg.com">
  <path style="stroke: rgb(0, 0, 0); stroke-width: 0px; fill: rgb(144, 238, 144);" transform="matrix(0.594168, -0.439398, 0.647799, 0.875972, -413.0875, 322.754888)" d="M 971.557 313.443 A 70 70 0 1 1 971.557 453.357 A 79.583 79.583 0 0 0 971.557 313.443 Z" bx:shape="crescent 974 383.4 70 184 0.78 1@35ae0043"/>
  <path style="stroke: rgb(0, 0, 0); stroke-width: 0px; fill: rgb(144, 238, 144);" transform="matrix(-0.734758, -0.078969, -0.173354, 1.338207, 1289.618305, -236.315876)" d="M 971.557 313.443 A 70 70 0 1 1 971.557 453.357 A 79.583 79.583 0 0 0 971.557 313.443 Z" bx:shape="crescent 974 383.4 70 184 0.78 1@35ae0043"/>
  <path style="stroke: rgb(0, 0, 0); stroke-width: 0px; fill: rgb(144, 238, 144);" transform="matrix(0.408276, -0.391001, 0.513647, 0.536339, -173.463595, 428.902106)" d="M 971.557 313.443 A 70 70 0 1 1 971.557 453.357 A 79.583 79.583 0 0 0 971.557 313.443 Z" bx:shape="crescent 974 383.4 70 184 0.78 1@35ae0043"/>
  <path style="stroke: rgb(0, 0, 0); stroke-width: 0px; fill: rgb(144, 238, 144);" transform="matrix(-0.699061, -0.239622, -0.290074, 0.789789, 1303.802266, 166.201861)" d="M 971.557 313.443 A 70 70 0 1 1 971.557 453.357 A 79.583 79.583 0 0 0 971.557 313.443 Z" bx:shape="crescent 974 383.4 70 184 0.78 1@35ae0043"/>
</svg>