<?xml version="1.0" encoding="utf-8"?>
<svg viewBox="0 0 603 289" xmlns="http://www.w3.org/2000/svg">
  <g transform="matrix(-0.835817, 0, 0, 0.835817, 346.902624, -225.561801)" style="">
    <path style="fill: rgb(130, 203, 246); stroke: rgb(130, 203, 246);" d="M 89.724 349.27 L 352.686 349.891 C 352.686 349.891 333.747 441.478 277.243 447.376 C 220.739 453.274 172.705 446.847 172.705 446.847 C 172.705 446.847 81.031 443.34 89.724 349.27 Z"/>
    <path style="fill: rgb(130, 203, 246); stroke: rgb(130, 203, 246);" d="M 352.717 349.788 L 353.617 300.528 C 353.617 300.528 331.573 370.381 279.105 361.689 C 226.637 352.997 325.327 380.589 325.327 380.589 L 352.717 349.788 Z"/>
    <path style="fill: rgb(130, 203, 246); stroke: rgb(130, 203, 246);" d="M 280.156 292.586 L 376.207 293.313 C 376.207 293.313 327.914 348.807 280.156 292.586 Z" transform="matrix(0.928105, 0.372318, -0.372318, 0.928105, 137.216511, -100.247436)"/>
    <path style="fill: rgb(130, 203, 246); stroke: rgb(130, 203, 246);" d="M 324.221 290.607 L 417.682 291.334 C 417.682 291.334 370.691 346.829 324.221 290.607 Z" transform="matrix(0.927827, -0.37301, 0.37301, 0.927827, -86.322486, 160.251108)"/>
    <path style="stroke: rgb(173, 224, 255); fill: rgb(173, 224, 255);" d="M 94.915 395.242 C 94.915 395.242 162.436 371.942 211.524 397.333 C 260.612 422.724 324.723 415.741 324.723 415.741 C 324.723 415.741 308.74 445.17 273.731 447.902 C 238.722 450.634 226.329 452.8 174.497 447.823 C 122.665 442.846 101.474 417.036 94.915 395.242 Z"/>
    <path style="fill: rgb(130, 203, 246); stroke: rgb(130, 203, 246);" d="M 156.342 397.437 L 278.492 398.67 C 278.492 398.67 217.076 492.716 156.342 397.437 Z" transform="matrix(0.32559, 0.945511, -0.945511, 0.32559, 542.580963, 76.853287)"/>
    <path style="fill: none; stroke-width: 3px; stroke: rgb(68, 142, 187);" d="M 131.326 371.035 C 131.326 371.035 139.987 357.487 150.265 371.273"/>
  </g>
  <g transform="matrix(0.905519, 0.068895, -0.077522, 1.018914, 247.603031, -235.195774)" style="">
    <path style="fill: rgb(136, 183, 209); stroke: rgb(136, 183, 209);" d="M 89.724 349.27 L 352.686 349.891 C 352.686 349.891 333.747 441.478 277.243 447.376 C 220.739 453.274 172.705 446.847 172.705 446.847 C 172.705 446.847 81.031 443.34 89.724 349.27 Z"/>
    <path style="fill: rgb(136, 183, 209); stroke: rgb(136, 183, 209);" d="M 352.717 349.788 L 353.617 300.528 C 353.617 300.528 331.573 370.381 279.105 361.689 C 226.637 352.997 325.327 380.589 325.327 380.589 L 352.717 349.788 Z"/>
    <path style="fill: rgb(136, 183, 209); stroke: rgb(136, 183, 209);" d="M 280.156 292.586 L 376.207 293.313 C 376.207 293.313 327.914 348.807 280.156 292.586 Z" transform="matrix(0.928105, 0.372318, -0.372318, 0.928105, 137.216511, -100.247436)"/>
    <path style="fill: rgb(136, 183, 209); stroke: rgb(136, 183, 209);" d="M 324.221 290.607 L 417.682 291.334 C 417.682 291.334 370.691 346.829 324.221 290.607 Z" transform="matrix(0.927827, -0.37301, 0.37301, 0.927827, -86.322486, 160.251108)"/>
    <path style="fill: rgb(195, 230, 251); stroke: rgb(195, 230, 251);" d="M 94.915 395.242 C 94.915 395.242 162.436 371.942 211.524 397.333 C 260.612 422.724 324.723 415.741 324.723 415.741 C 324.723 415.741 308.74 445.17 273.731 447.902 C 238.722 450.634 226.329 452.8 174.497 447.823 C 122.665 442.846 101.474 417.036 94.915 395.242 Z"/>
    <path style="stroke: rgb(136, 183, 209); fill: rgb(136, 183, 209);" d="M 156.342 397.437 L 278.492 398.67 C 278.492 398.67 217.076 492.716 156.342 397.437 Z" transform="matrix(0.32559, 0.945511, -0.945511, 0.32559, 542.580963, 76.853287)"/>
    <path style="fill: none; stroke-width: 3px; stroke: rgb(68, 142, 187);" d="M 131.326 371.035 C 131.326 371.035 139.987 357.487 150.265 371.273"/>
  </g>
  <g transform="matrix(-0.55972, 0, 0, 0.546677, 336.495427, 33.78991)" style="">
    <path style="fill: rgb(99, 181, 229); stroke: rgb(99, 181, 229);" d="M 89.724 349.27 L 352.686 349.891 C 352.686 349.891 333.747 441.478 277.243 447.376 C 220.739 453.274 172.705 446.847 172.705 446.847 C 172.705 446.847 81.031 443.34 89.724 349.27 Z"/>
    <path style="stroke: rgb(99, 181, 229); fill: rgb(99, 181, 229);" d="M 352.717 349.788 L 353.617 300.528 C 353.617 300.528 331.573 370.381 279.105 361.689 C 226.637 352.997 325.327 380.589 325.327 380.589 L 352.717 349.788 Z"/>
    <path style="stroke: rgb(99, 181, 229); fill: rgb(99, 181, 229);" d="M 285.234 285.248 L 380.966 285.977 C 380.966 285.977 331.941 341.649 285.234 285.248 Z" transform="matrix(0.774319, 0.647894, -0.61805, 0.774319, 259.277202, -148.588177)"/>
    <path style="fill: rgb(99, 181, 229); stroke: rgb(99, 181, 229);" d="M 327.424 296.795 L 420.597 297.524 C 420.597 297.524 374.644 353.198 327.424 296.795 Z" transform="matrix(0.998052, -0.063877, 0.060935, 0.998052, -18.126058, 24.493441)"/>
    <path style="fill: rgb(173, 224, 255); stroke: rgb(179, 223, 250);" d="M 94.915 395.242 C 94.915 395.242 162.436 371.942 211.524 397.333 C 260.612 422.724 324.723 415.741 324.723 415.741 C 324.723 415.741 308.74 445.17 273.731 447.902 C 238.722 450.634 226.329 452.8 174.497 447.823 C 122.665 442.846 101.474 417.036 94.915 395.242 Z"/>
    <path style="fill: rgb(99, 181, 229); stroke: rgb(99, 181, 229);" d="M 157.922 396.984 L 277.512 398.243 C 277.512 398.243 216.012 494.287 157.922 396.984 Z" transform="matrix(0.508101, 0.881847, -0.841227, 0.508101, 459.376232, 13.999981)"/>
    <path style="fill: none; stroke-width: 3px; stroke: rgb(68, 142, 187);" d="M 131.326 371.035 C 131.326 371.035 139.987 357.487 150.265 371.273"/>
  </g>
  <g transform="matrix(0.375837, -0.079887, 0.079887, 0.375837, 268.534764, -57.239362)" style="">
    <path style="fill: rgb(95, 196, 254); stroke: rgb(95, 196, 254);" d="M 89.724 349.27 L 352.686 349.891 C 352.686 349.891 333.747 441.478 277.243 447.376 C 220.739 453.274 172.705 446.847 172.705 446.847 C 172.705 446.847 81.031 443.34 89.724 349.27 Z"/>
    <path style="fill: rgb(95, 196, 254); stroke: rgb(95, 196, 254);" d="M 352.717 349.788 L 353.617 300.528 C 353.617 300.528 331.573 370.381 279.105 361.689 C 226.637 352.997 325.327 380.589 325.327 380.589 L 352.717 349.788 Z"/>
    <path style="fill: rgb(95, 196, 254); stroke: rgb(95, 196, 254);" d="M 280.156 292.586 L 376.207 293.313 C 376.207 293.313 327.914 348.807 280.156 292.586 Z" transform="matrix(0.928105, 0.372318, -0.372318, 0.928105, 137.216511, -100.247436)"/>
    <path style="fill: rgb(95, 196, 254); stroke: rgb(95, 196, 254);" d="M 324.221 290.607 L 417.682 291.334 C 417.682 291.334 370.691 346.829 324.221 290.607 Z" transform="matrix(0.927827, -0.37301, 0.37301, 0.927827, -86.322486, 160.251108)"/>
    <path style="fill: rgb(185, 229, 255); stroke: rgb(185, 229, 255);" d="M 94.915 395.242 C 94.915 395.242 162.436 371.942 211.524 397.333 C 260.612 422.724 324.723 415.741 324.723 415.741 C 324.723 415.741 308.74 445.17 273.731 447.902 C 238.722 450.634 226.329 452.8 174.497 447.823 C 122.665 442.846 101.474 417.036 94.915 395.242 Z"/>
    <path style="fill: rgb(95, 196, 254); stroke: rgb(95, 196, 254);" d="M 156.342 397.437 L 278.492 398.67 C 278.492 398.67 217.076 492.716 156.342 397.437 Z" transform="matrix(0.32559, 0.945511, -0.945511, 0.32559, 542.580963, 76.853287)"/>
    <path style="fill: none; stroke-width: 3px; stroke: rgb(68, 142, 187);" d="M 131.326 371.035 C 131.326 371.035 139.987 357.487 150.265 371.273"/>
  </g>
</svg>