<?xml version="1.0" encoding="utf-8"?>
<svg viewBox="0 0 205 292" xmlns="http://www.w3.org/2000/svg">
  <g transform="matrix(2.639656, 0, 0, 2.639656, -1038.336319, -25.7487)" style="">
    <title>Plastic Bag 2</title>
    <path d="M 459.595 43.134 C 466.623 51.716 459.754 65.572 459.834 76.792 C 459.914 88.012 466.98 101.868 460.074 110.45 C 454.256 117.677 441.855 110.45 432.744 110.45 C 423.634 110.45 411.334 117.678 405.414 110.45 C 398.384 101.868 405.254 88.012 405.174 76.792 C 405.094 65.572 398.028 51.716 404.935 43.134 C 410.752 35.906 423.155 43.134 432.265 43.134 C 441.375 43.134 453.675 35.907 459.595 43.134 Z" style="fill: rgb(236, 236, 236); stroke: rgb(219, 219, 219);" transform="matrix(0.999973, 0.007383, -0.007383, 0.999973, 0.578743, -3.191085)"/>
    <path d="M 461.358 16.189 C 462.892 22.833 461.358 29.822 461.358 36.638 C 461.358 43.454 462.892 50.442 461.358 57.086 C 461.007 58.609 458.211 57.086 456.638 57.086 C 455.065 57.086 452.269 58.609 451.918 57.086 C 450.384 50.442 451.918 43.454 451.918 36.638 C 451.918 29.822 450.384 22.833 451.918 16.189 C 452.621 13.145 461.007 14.667 461.358 16.189 Z" style="fill: rgb(236, 236, 236); stroke: rgb(219, 219, 219);"/>
    <path d="M 413.803 14.62 C 415.337 21.542 413.803 28.822 413.803 35.922 C 413.803 43.022 415.337 50.302 413.803 57.223 C 413.452 58.809 410.656 57.223 409.083 57.223 C 407.51 57.223 404.714 58.809 404.363 57.223 C 402.829 50.302 404.363 43.022 404.363 35.922 C 404.363 28.822 402.829 21.542 404.363 14.62 C 405.066 11.45 413.452 13.035 413.803 14.62 Z" style="fill: rgb(236, 236, 236); stroke: rgb(219, 219, 219);"/>
    <path d="M 460.483 45.453 C 467.71 54.035 460.483 67.892 460.483 79.112 C 460.483 90.332 467.71 104.189 460.483 112.771 C 454.396 119.998 441.585 112.771 432.136 112.771 C 422.687 112.771 409.875 119.999 403.788 112.771 C 396.56 104.189 403.788 90.332 403.788 79.112 C 403.788 67.892 396.56 54.035 403.788 45.453 C 409.875 38.225 422.687 45.453 432.136 45.453 C 441.585 45.453 454.396 38.226 460.483 45.453 Z" style="fill: rgb(236, 236, 236); stroke: rgb(219, 219, 219);"/>
    <path d="M 460.523 17.041 C 461.731 23.523 460.523 30.342 460.523 36.992 C 460.523 43.642 461.731 50.46 460.523 56.942 C 460.247 58.428 458.045 56.942 456.806 56.942 C 455.568 56.942 453.366 58.428 453.09 56.942 C 451.881 50.46 453.09 43.642 453.09 36.992 C 453.09 30.342 451.881 23.523 453.09 17.041 C 453.643 14.071 460.247 15.556 460.523 17.041 Z" style="fill: rgb(236, 236, 236); stroke: rgb(236, 236, 236);"/>
    <path d="M 412.9 15.459 C 414.108 21.941 412.9 28.76 412.9 35.41 C 412.9 42.06 414.108 48.878 412.9 55.36 C 412.624 56.846 410.422 55.36 409.183 55.36 C 407.945 55.36 405.743 56.846 405.467 55.36 C 404.258 48.878 405.467 42.06 405.467 35.41 C 405.467 28.76 404.258 21.941 405.467 15.459 C 406.02 12.489 412.624 13.974 412.9 15.459 Z" style="fill: rgb(236, 236, 236); stroke: rgb(236, 236, 236);"/>
  </g>
</svg>