<?xml version="1.0" encoding="utf-8"?>
<svg viewBox="0 0 205 379" xmlns="http://www.w3.org/2000/svg" xmlns:bx="https://boxy-svg.com">
  <g transform="matrix(4.45487, 0, 0, 4.45487, -736.245983, -743.587841)" style="">
    <title>Bottle</title>
    <path style="fill: rgb(236, 236, 236); stroke: rgb(219, 219, 219);" d="M 175.967 185.018 H 200.205 A 8.7 8.7 0 0 1 208.905 193.718 V 198.495 A 4 4 0 0 1 204.905 202.495 H 171.267 A 4 4 0 0 1 167.267 198.495 V 193.718 A 8.7 8.7 0 0 1 175.967 185.018 Z" bx:shape="rect 167.267 185.018 41.638 17.477 8.7 8.7 4 4 1@a42ad1a2"/>
    <rect style="fill: rgb(236, 236, 236); stroke: rgb(219, 219, 219);" x="181.389" y="177.336" width="12.26" height="7.523"/>
    <rect x="170.395" y="202.468" width="35.431" height="20.994" style="fill: rgb(236, 236, 236); stroke: rgb(219, 219, 219);"/>
    <path style="fill: rgb(236, 236, 236); stroke: rgb(219, 219, 219);" d="M -202.987 -249.655 H -173.198 A 6 6 0 0 1 -167.198 -243.655 V -227.407 A 4 4 0 0 1 -171.198 -223.407 H -204.987 A 4 4 0 0 1 -208.987 -227.407 V -243.655 A 6 6 0 0 1 -202.987 -249.655 Z" transform="matrix(-1, 0, 0, -1, 0, 0)" bx:shape="rect -208.987 -249.655 41.789 26.248 6 6 4 4 1@0b030d2e"/>
    <rect style="fill: rgb(236, 236, 236); stroke: rgb(219, 219, 219);" x="179.687" y="169.408" width="15.401" height="7.754"/>
  </g>
</svg>