<?xml version="1.0" encoding="utf-8"?>
<svg viewBox="0 0 190 89" xmlns="http://www.w3.org/2000/svg" xmlns:xlink="http://www.w3.org/1999/xlink" xmlns:bx="https://boxy-svg.com">
  <defs>
    <pattern id="pattern-1-0" patternTransform="matrix(1, 0, 0, 1, 0, 0)" xlink:href="#pattern-1"/>
    <pattern id="pattern-1" viewBox="0 0 100 100" patternUnits="userSpaceOnUse" preserveAspectRatio="none" width="100" height="100" patternTransform="matrix(1, 0, 0, 1, 0, 0)">
      <rect x="-2.16" y="-0.42" width="104.289" height="100.642" style="stroke: rgb(0, 0, 0); stroke-width: 0px; fill: rgb(240, 240, 240);"/>
      <rect x="-8.087" y="5.963" width="118.194" height="2.621" style="stroke: rgb(0, 0, 0); stroke-width: 0px; fill: rgb(227, 227, 227);" transform="matrix(0, 1, -1, 0, 100.280998, -1.504997)"/>
      <rect x="-9.853" y="11.491" width="118.194" height="2.621" style="stroke: rgb(0, 0, 0); stroke-width: 0px; fill: rgb(227, 227, 227);" transform="matrix(0, 1, -1, 0, 100.280998, -1.504997)"/>
      <rect x="-8.058" y="17.275" width="118.194" height="2.621" style="stroke: rgb(0, 0, 0); stroke-width: 0px; fill: rgb(227, 227, 227);" transform="matrix(0, 1, -1, 0, 100.280998, -1.504997)"/>
      <rect x="-9.824" y="22.803" width="118.194" height="2.621" style="stroke: rgb(0, 0, 0); stroke-width: 0px; fill: rgb(227, 227, 227);" transform="matrix(0, 1, -1, 0, 100.280998, -1.504997)"/>
      <rect x="-8.073" y="28.488" width="118.194" height="2.621" style="stroke: rgb(0, 0, 0); stroke-width: 0px; fill: rgb(227, 227, 227);" transform="matrix(0, 1, -1, 0, 100.280998, -1.504997)"/>
      <rect x="-9.839" y="34.016" width="118.194" height="2.621" style="stroke: rgb(0, 0, 0); stroke-width: 0px; fill: rgb(227, 227, 227);" transform="matrix(0, 1, -1, 0, 100.280998, -1.504997)"/>
      <rect x="-8.044" y="39.8" width="118.194" height="2.621" style="stroke: rgb(0, 0, 0); stroke-width: 0px; fill: rgb(227, 227, 227);" transform="matrix(0, 1, -1, 0, 100.280998, -1.504997)"/>
      <rect x="-9.81" y="45.328" width="118.194" height="2.621" style="stroke: rgb(0, 0, 0); stroke-width: 0px; fill: rgb(227, 227, 227);" transform="matrix(0, 1, -1, 0, 100.280998, -1.504997)"/>
      <rect x="-6.598" y="51.305" width="118.194" height="2.621" style="stroke: rgb(0, 0, 0); stroke-width: 0px; fill: rgb(227, 227, 227);" transform="matrix(0, 1, -1, 0, 100.280998, -1.504997)"/>
      <rect x="-8.364" y="56.833" width="118.194" height="2.621" style="stroke: rgb(0, 0, 0); stroke-width: 0px; fill: rgb(227, 227, 227);" transform="matrix(0, 1, -1, 0, 100.280998, -1.504997)"/>
      <rect x="-6.569" y="62.617" width="118.194" height="2.621" style="stroke: rgb(0, 0, 0); stroke-width: 0px; fill: rgb(227, 227, 227);" transform="matrix(0, 1, -1, 0, 100.280998, -1.504997)"/>
      <rect x="-8.335" y="68.145" width="118.194" height="2.621" style="stroke: rgb(0, 0, 0); stroke-width: 0px; fill: rgb(227, 227, 227);" transform="matrix(0, 1, -1, 0, 100.280998, -1.504997)"/>
      <rect x="-6.584" y="73.83" width="118.194" height="2.621" style="stroke: rgb(0, 0, 0); stroke-width: 0px; fill: rgb(227, 227, 227);" transform="matrix(0, 1, -1, 0, 100.280998, -1.504997)"/>
      <rect x="-8.35" y="79.358" width="118.194" height="2.621" style="stroke: rgb(0, 0, 0); stroke-width: 0px; fill: rgb(227, 227, 227);" transform="matrix(0, 1, -1, 0, 100.280998, -1.504997)"/>
      <rect x="-6.555" y="85.142" width="118.194" height="2.621" style="stroke: rgb(0, 0, 0); stroke-width: 0px; fill: rgb(227, 227, 227);" transform="matrix(0, 1, -1, 0, 100.280998, -1.504997)"/>
      <rect x="-8.321" y="90.67" width="118.194" height="2.621" style="stroke: rgb(0, 0, 0); stroke-width: 0px; fill: rgb(227, 227, 227);" transform="matrix(0, 1, -1, 0, 100.280998, -1.504997)"/>
      <rect x="-7.118" y="0.321" width="118.194" height="2.621" style="stroke: rgb(0, 0, 0); stroke-width: 0px; fill: rgb(227, 227, 227);" transform="matrix(0, 1, -1, 0, 100.280998, -1.504997)"/>
      <rect x="-9.511" y="95.834" width="118.194" height="2.621" style="stroke: rgb(0, 0, 0); stroke-width: 0px; fill: rgb(227, 227, 227);" transform="matrix(0, 1, -1, 0, 100.280998, -1.504997)"/>
    </pattern>
    <pattern id="pattern-1-1" patternTransform="matrix(1, 0, 0, 1, 0, 0)" xlink:href="#pattern-1"/>
  </defs>
  <g transform="matrix(3.450369, 0, 0, 3.450369, -707.879161, -519.367684)" style="">
    <title>Bonbon Wrapper</title>
    <path d="M 317.011 211.203 L 325.595 228.277 L 308.427 228.277 L 317.011 211.203 Z" style="fill: url(#pattern-1-0); stroke: rgb(219, 219, 219);" transform="matrix(0, -1, 1, 0, 27.460045, 479.993378)" bx:shape="triangle 308.427 211.203 17.168 17.074 0.5 0 1@9d22239b"/>
    <path d="M 317.011 211.203 L 325.595 228.277 L 308.427 228.277 L 317.011 211.203 Z" style="fill: url(#pattern-1-1); stroke: rgb(219, 219, 219);" transform="matrix(0, 1, -1, 0, 437.388336, -153.606186)" bx:shape="triangle 308.427 211.203 17.168 17.074 0.5 0 1@9d22239b"/>
    <ellipse style="fill: rgb(236, 236, 236); stroke: rgb(219, 219, 219);" cx="232.167" cy="162.572" rx="12.328" ry="9.449"/>
  </g>
</svg>