<?xml version="1.0" encoding="utf-8"?>
<svg viewBox="0 0 190 296" xmlns="http://www.w3.org/2000/svg">
  <defs>
    <pattern id="pattern-0" viewBox="0 0 100 100" patternUnits="userSpaceOnUse" preserveAspectRatio="none" width="100" height="100" patternTransform="matrix(1, 0, 0, 1, 0, 0)">
      <rect x="0.068" y="-0.242" width="104.289" height="100.642" style="stroke: rgb(0, 0, 0); stroke-width: 0px; fill: rgb(240, 240, 240);" transform="matrix(0, 1, -1, 0, 100.363487, -3.187764)"/>
      <rect x="-109.778" y="-93.358" width="118.194" height="2.621" style="stroke: rgb(0, 0, 0); stroke-width: 0px; fill: rgb(227, 227, 227);" transform="matrix(-1, 0, 0, -1, 0, 0)"/>
      <rect x="-111.544" y="-87.83" width="118.194" height="2.621" style="stroke: rgb(0, 0, 0); stroke-width: 0px; fill: rgb(227, 227, 227);" transform="matrix(-1, 0, 0, -1, 0, 0)"/>
      <rect x="-109.749" y="-82.046" width="118.194" height="2.621" style="stroke: rgb(0, 0, 0); stroke-width: 0px; fill: rgb(227, 227, 227);" transform="matrix(-1, 0, 0, -1, 0, 0)"/>
      <rect x="-111.515" y="-76.518" width="118.194" height="2.621" style="stroke: rgb(0, 0, 0); stroke-width: 0px; fill: rgb(227, 227, 227);" transform="matrix(-1, 0, 0, -1, 0, 0)"/>
      <rect x="-109.764" y="-70.833" width="118.194" height="2.621" style="stroke: rgb(0, 0, 0); stroke-width: 0px; fill: rgb(227, 227, 227);" transform="matrix(-1, 0, 0, -1, 0, 0)"/>
      <rect x="-111.53" y="-65.305" width="118.194" height="2.621" style="stroke: rgb(0, 0, 0); stroke-width: 0px; fill: rgb(227, 227, 227);" transform="matrix(-1, 0, 0, -1, 0, 0)"/>
      <rect x="-109.735" y="-59.521" width="118.194" height="2.621" style="stroke: rgb(0, 0, 0); stroke-width: 0px; fill: rgb(227, 227, 227);" transform="matrix(-1, 0, 0, -1, 0, 0)"/>
      <rect x="-111.501" y="-53.993" width="118.194" height="2.621" style="stroke: rgb(0, 0, 0); stroke-width: 0px; fill: rgb(227, 227, 227);" transform="matrix(-1, 0, 0, -1, 0, 0)"/>
      <rect x="-108.289" y="-48.016" width="118.194" height="2.621" style="stroke: rgb(0, 0, 0); stroke-width: 0px; fill: rgb(227, 227, 227);" transform="matrix(-1, 0, 0, -1, 0, 0)"/>
      <rect x="-110.055" y="-42.488" width="118.194" height="2.621" style="stroke: rgb(0, 0, 0); stroke-width: 0px; fill: rgb(227, 227, 227);" transform="matrix(-1, 0, 0, -1, 0, 0)"/>
      <rect x="-108.26" y="-36.704" width="118.194" height="2.621" style="stroke: rgb(0, 0, 0); stroke-width: 0px; fill: rgb(227, 227, 227);" transform="matrix(-1, 0, 0, -1, 0, 0)"/>
      <rect x="-110.026" y="-31.176" width="118.194" height="2.621" style="stroke: rgb(0, 0, 0); stroke-width: 0px; fill: rgb(227, 227, 227);" transform="matrix(-1, 0, 0, -1, 0, 0)"/>
      <rect x="-108.275" y="-25.491" width="118.194" height="2.621" style="stroke: rgb(0, 0, 0); stroke-width: 0px; fill: rgb(227, 227, 227);" transform="matrix(-1, 0, 0, -1, 0, 0)"/>
      <rect x="-110.041" y="-19.963" width="118.194" height="2.621" style="stroke: rgb(0, 0, 0); stroke-width: 0px; fill: rgb(227, 227, 227);" transform="matrix(-1, 0, 0, -1, 0, 0)"/>
      <rect x="-108.246" y="-14.179" width="118.194" height="2.621" style="stroke: rgb(0, 0, 0); stroke-width: 0px; fill: rgb(227, 227, 227);" transform="matrix(-1, 0, 0, -1, 0, 0)"/>
      <rect x="-110.012" y="-8.651" width="118.194" height="2.621" style="stroke: rgb(0, 0, 0); stroke-width: 0px; fill: rgb(227, 227, 227);" transform="matrix(-1, 0, 0, -1, 0, 0)"/>
      <rect x="-108.809" y="-99" width="118.194" height="2.621" style="stroke: rgb(0, 0, 0); stroke-width: 0px; fill: rgb(227, 227, 227);" transform="matrix(-1, 0, 0, -1, 0, 0)"/>
      <rect x="-111.202" y="-3.487" width="118.194" height="2.621" style="stroke: rgb(0, 0, 0); stroke-width: 0px; fill: rgb(227, 227, 227);" transform="matrix(-1, 0, 0, -1, 0, 0)"/>
    </pattern>
  </defs>
  <g transform="matrix(0, 3.093514, -3.093514, 0, 774.909863, -587.819955)" style="">
    <title>Chips Bag</title>
    <path d="M 277.636 195.914 C 281.406 197.06 280.542 206.248 279.613 211.191 C 278.684 216.134 277.823 221.086 277.824 221.853 C 277.825 222.571 277.044 227.002 277.986 231.952 C 278.926 236.902 280.2 245.068 276.483 246.198 C 270.636 247.976 260.866 244.348 254.535 243.908 C 248.202 243.467 241.772 242.582 235.537 242.582 C 229.313 242.582 222.895 243.475 216.574 243.923 C 210.253 244.372 200.12 247.075 194.278 245.3 C 190.509 244.155 194.404 236.419 195.332 231.477 C 196.26 226.534 194.473 222.412 194.473 221.645 C 194.471 219.615 195.105 217.418 194.517 215.433 C 193.93 213.448 194.768 211.365 194.419 209.354 C 194.243 208.338 194.228 206.138 194.407 204.136 C 194.587 202.134 192.434 196.076 194.55 195.432 C 200.395 193.654 210.167 197.489 216.499 197.93 C 222.832 198.37 229.261 199.255 235.497 199.255 C 238.755 199.255 241.963 198.686 245.17 198.117 C 248.378 197.547 251.585 196.978 254.843 196.976 C 257.877 196.975 260.955 197.107 263.985 197.455 C 267.015 197.804 274.789 195.049 277.636 195.914 Z" style="fill: url(#pattern-0); stroke: rgb(219, 219, 219);" transform="matrix(1, 0.000871, -0.000871, 1, 0.192428, -0.205942)"/>
    <path d="M 268.361 197.131 C 271.28 194.984 270.654 206.419 269.942 211.361 C 269.232 216.304 268.573 221.256 268.573 222.023 C 268.573 222.741 267.975 227.172 268.688 232.122 C 269.401 237.072 270.85 246.754 267.534 246.368 C 262.812 245.819 255.64 244.518 250.818 244.078 C 245.995 243.637 241.099 242.752 236.348 242.752 C 231.607 242.752 226.719 243.645 221.903 244.093 C 217.089 244.542 209.218 244.888 204.534 245.679 C 200.793 246.311 205.022 236.589 205.732 231.647 C 206.443 226.704 205.086 222.582 205.086 221.815 C 205.086 219.785 205.57 217.588 205.123 215.603 C 204.677 213.618 205.317 211.535 205.053 209.524 C 204.92 208.508 204.909 206.309 205.047 204.307 C 205.185 202.305 202.969 194.94 205.163 195.603 C 209.735 196.985 217.056 197.66 221.879 198.101 C 226.703 198.541 231.599 199.426 236.348 199.426 C 238.831 199.426 241.273 198.857 243.717 198.288 C 246.162 197.718 248.604 197.149 251.087 197.147 C 253.397 197.146 255.741 197.278 258.048 197.626 C 260.357 197.975 266.451 198.536 268.361 197.131 Z" style="fill: rgb(236, 236, 236); stroke: rgb(219, 219, 219);"/>
  </g>
</svg>