<?xml version="1.0" encoding="utf-8"?>
<svg viewBox="0 0 78 293" xmlns="http://www.w3.org/2000/svg" xmlns:bx="https://boxy-svg.com">
  <g transform="matrix(2.493797, 0, 0, 2.493797, -1000.976883, -309.315068)" style="">
    <title>Fork</title>
    <path style="fill: rgb(236, 236, 236); stroke: rgb(219, 219, 219);" d="M 413.784 167.25 H 420.73 V 235.367 A 3 3 0 0 1 417.73 238.367 H 416.784 A 3 3 0 0 1 413.784 235.367 V 167.25 Z" bx:shape="rect 413.784 167.25 6.946 71.117 0 0 3 3 1@b3ae20bf"/>
    <path style="fill: rgb(236, 236, 236); stroke: rgb(219, 219, 219);" d="M 421.146 166.678 C 427.475 166.871 423.593 132.812 423.593 132.812 L 422.577 126.759 L 420.562 149.928 L 417.792 149.928 L 417.189 132.411 L 416.439 126.552 L 414.266 149.844 L 412 149.844 L 411.328 131.795 L 410.784 127.017 C 410.784 127.017 404.185 162.806 413.163 167.027 L 421.146 166.678 Z"/>
    <path style="fill: rgb(236, 236, 236); stroke-width: 0px; stroke: rgb(219, 219, 219);" d="M 414.282 153.437 H 420.304 V 179.257 A 3 3 0 0 1 417.304 182.257 H 417.282 A 3 3 0 0 1 414.282 179.257 V 153.437 Z" bx:shape="rect 414.282 153.437 6.022 28.82 0 0 3 3 1@f689f845"/>
  </g>
</svg>