<?xml version="1.0" encoding="utf-8"?>
<svg viewBox="0 0 373 193" xmlns="http://www.w3.org/2000/svg">
  <g transform="matrix(2.199067, 0, 0, 2.199067, -552.073372, -637.574106)" style="">
    <title>Takeout Box 2</title>
    <path style="fill: rgb(236, 236, 236); stroke: rgb(219, 219, 219);" d="M 257.961 330.965 C 257.961 330.965 262.081 297.446 277.326 295.143 L 334.737 295.561 L 338.438 295.611 L 395.849 295.193 C 411.094 297.497 415.214 331.015 415.214 331.015"/>
    <path style="fill: rgb(236, 236, 236); stroke: rgb(219, 219, 219);" d="M 258.097 367.975 C 258.097 367.975 262.217 334.456 277.462 332.153 L 334.873 332.571 L 338.574 332.621 L 395.985 332.203 C 411.23 334.507 415.35 368.025 415.35 368.025" transform="matrix(-1, 0, 0, -1, 673.446991, 700.178009)"/>
    <rect style="stroke: rgb(219, 219, 219); fill: rgb(219, 219, 219);" x="255.138" y="329.48" width="162.084" height="3.366" rx="1.7" ry="1.7"/>
    <path style="fill: rgb(236, 236, 236); stroke-width: 2px; stroke: rgb(219, 219, 219);" d="M 325.357 332.968 L 328.948 340.683 L 335.706 340.78 L 339.398 340.844 L 346.156 340.747 L 349.747 333.032"/>
  </g>
</svg>