<?xml version="1.0" encoding="utf-8"?>
<svg viewBox="0 0 373 193" xmlns="http://www.w3.org/2000/svg">
  <g transform="matrix(2.306501, 0, 0, 2.306501, -569.108102, -813.964246)" style="">
    <title>Takeout Box</title>
    <path style="fill: rgb(236, 236, 236); stroke: rgb(219, 219, 219);" d="M 251.113 394.885 C 251.113 394.885 259.729 364.467 272.037 359.896 C 284.345 355.325 378.589 358.802 378.589 358.802 C 378.589 358.802 400.935 367.945 401.622 394.358 L 251.113 394.885 Z"/>
    <path style="fill: rgb(236, 236, 236); stroke: rgb(219, 219, 219);" d="M 251.092 431.496 C 251.092 431.496 259.708 401.078 272.016 396.507 C 284.324 391.936 380.628 395.551 380.628 395.551 C 380.628 395.551 401.601 404.419 401.601 430.969 L 251.092 431.496 Z" transform="matrix(-1, 0, 0, -1, 652.693008, 825.690094)"/>
    <rect style="stroke: rgb(219, 219, 219); fill: rgb(219, 219, 219);" x="248.266" y="393.593" width="155.647" height="1.169" rx="1.4" ry="1.4"/>
    <path style="fill: rgb(236, 236, 236); stroke-width: 2px; stroke: rgb(219, 219, 219);" d="M 313.344 394.542 L 316.593 401.248 L 332.43 401.383 L 336.762 395.021 L 313.344 394.542 Z"/>
    <line style="fill: rgb(216, 216, 216); stroke-width: 2px; stroke: rgb(219, 219, 219);" x1="273.314" y1="402.018" x2="273.01" y2="419.882"/>
    <line style="fill: rgb(216, 216, 216); stroke-width: 2px; stroke: rgb(219, 219, 219);" x1="286.178" y1="402.451" x2="285.874" y2="420.315"/>
    <line style="fill: rgb(216, 216, 216); stroke-width: 2px; stroke: rgb(219, 219, 219);" x1="298.578" y1="402.119" x2="298.274" y2="419.983"/>
    <line style="fill: rgb(216, 216, 216); stroke-width: 2px; stroke: rgb(219, 219, 219);" x1="347.68" y1="402.525" x2="347.376" y2="420.389"/>
    <line style="fill: rgb(216, 216, 216); stroke-width: 2px; stroke: rgb(219, 219, 219);" x1="360.266" y1="402.959" x2="359.962" y2="420.823"/>
    <line style="fill: rgb(216, 216, 216); stroke-width: 2px; stroke: rgb(219, 219, 219);" x1="373.04" y1="402.886" x2="372.736" y2="420.75"/>
    <line style="fill: rgb(216, 216, 216); stroke-width: 2px; stroke: rgb(219, 219, 219);" x1="330.431" y1="408.438" x2="330.381" y2="421.687"/>
    <line style="fill: rgb(216, 216, 216); stroke-width: 2px; stroke: rgb(219, 219, 219);" x1="318.068" y1="408.488" x2="318.018" y2="421.737"/>
  </g>
</svg>