<?xml version="1.0" encoding="utf-8"?>
<svg viewBox="0 0 413 243" xmlns="http://www.w3.org/2000/svg">
  <defs>
    <pattern id="pattern-1" viewBox="0 0 100 100" patternUnits="userSpaceOnUse" preserveAspectRatio="none" width="100" height="100" patternTransform="matrix(1, 0, 0, 1, 0, 0)">
      <rect x="-2.16" y="-0.42" width="104.289" height="100.642" style="stroke: rgb(0, 0, 0); stroke-width: 0px; fill: rgb(240, 240, 240);"/>
      <rect x="-8.087" y="5.963" width="118.194" height="2.621" style="stroke: rgb(0, 0, 0); stroke-width: 0px; fill: rgb(227, 227, 227);" transform="matrix(0, 1, -1, 0, 100.280998, -1.504997)"/>
      <rect x="-9.853" y="11.491" width="118.194" height="2.621" style="stroke: rgb(0, 0, 0); stroke-width: 0px; fill: rgb(227, 227, 227);" transform="matrix(0, 1, -1, 0, 100.280998, -1.504997)"/>
      <rect x="-8.058" y="17.275" width="118.194" height="2.621" style="stroke: rgb(0, 0, 0); stroke-width: 0px; fill: rgb(227, 227, 227);" transform="matrix(0, 1, -1, 0, 100.280998, -1.504997)"/>
      <rect x="-9.824" y="22.803" width="118.194" height="2.621" style="stroke: rgb(0, 0, 0); stroke-width: 0px; fill: rgb(227, 227, 227);" transform="matrix(0, 1, -1, 0, 100.280998, -1.504997)"/>
      <rect x="-8.073" y="28.488" width="118.194" height="2.621" style="stroke: rgb(0, 0, 0); stroke-width: 0px; fill: rgb(227, 227, 227);" transform="matrix(0, 1, -1, 0, 100.280998, -1.504997)"/>
      <rect x="-9.839" y="34.016" width="118.194" height="2.621" style="stroke: rgb(0, 0, 0); stroke-width: 0px; fill: rgb(227, 227, 227);" transform="matrix(0, 1, -1, 0, 100.280998, -1.504997)"/>
      <rect x="-8.044" y="39.8" width="118.194" height="2.621" style="stroke: rgb(0, 0, 0); stroke-width: 0px; fill: rgb(227, 227, 227);" transform="matrix(0, 1, -1, 0, 100.280998, -1.504997)"/>
      <rect x="-9.81" y="45.328" width="118.194" height="2.621" style="stroke: rgb(0, 0, 0); stroke-width: 0px; fill: rgb(227, 227, 227);" transform="matrix(0, 1, -1, 0, 100.280998, -1.504997)"/>
      <rect x="-6.598" y="51.305" width="118.194" height="2.621" style="stroke: rgb(0, 0, 0); stroke-width: 0px; fill: rgb(227, 227, 227);" transform="matrix(0, 1, -1, 0, 100.280998, -1.504997)"/>
      <rect x="-8.364" y="56.833" width="118.194" height="2.621" style="stroke: rgb(0, 0, 0); stroke-width: 0px; fill: rgb(227, 227, 227);" transform="matrix(0, 1, -1, 0, 100.280998, -1.504997)"/>
      <rect x="-6.569" y="62.617" width="118.194" height="2.621" style="stroke: rgb(0, 0, 0); stroke-width: 0px; fill: rgb(227, 227, 227);" transform="matrix(0, 1, -1, 0, 100.280998, -1.504997)"/>
      <rect x="-8.335" y="68.145" width="118.194" height="2.621" style="stroke: rgb(0, 0, 0); stroke-width: 0px; fill: rgb(227, 227, 227);" transform="matrix(0, 1, -1, 0, 100.280998, -1.504997)"/>
      <rect x="-6.584" y="73.83" width="118.194" height="2.621" style="stroke: rgb(0, 0, 0); stroke-width: 0px; fill: rgb(227, 227, 227);" transform="matrix(0, 1, -1, 0, 100.280998, -1.504997)"/>
      <rect x="-8.35" y="79.358" width="118.194" height="2.621" style="stroke: rgb(0, 0, 0); stroke-width: 0px; fill: rgb(227, 227, 227);" transform="matrix(0, 1, -1, 0, 100.280998, -1.504997)"/>
      <rect x="-6.555" y="85.142" width="118.194" height="2.621" style="stroke: rgb(0, 0, 0); stroke-width: 0px; fill: rgb(227, 227, 227);" transform="matrix(0, 1, -1, 0, 100.280998, -1.504997)"/>
      <rect x="-8.321" y="90.67" width="118.194" height="2.621" style="stroke: rgb(0, 0, 0); stroke-width: 0px; fill: rgb(227, 227, 227);" transform="matrix(0, 1, -1, 0, 100.280998, -1.504997)"/>
      <rect x="-7.118" y="0.321" width="118.194" height="2.621" style="stroke: rgb(0, 0, 0); stroke-width: 0px; fill: rgb(227, 227, 227);" transform="matrix(0, 1, -1, 0, 100.280998, -1.504997)"/>
      <rect x="-9.511" y="95.834" width="118.194" height="2.621" style="stroke: rgb(0, 0, 0); stroke-width: 0px; fill: rgb(227, 227, 227);" transform="matrix(0, 1, -1, 0, 100.280998, -1.504997)"/>
    </pattern>
  </defs>
  <g transform="matrix(5.765514, 0, 0, 5.765514, -503.809059, -271.115727)" style="">
    <title>Wrapper</title>
    <path d="M 136.856 96.698 C 136.695 97.036 136.518 97.33 136.327 97.587 C 136.136 97.844 135.931 98.063 135.714 98.246 C 135.497 98.43 135.268 98.58 135.026 98.702 C 134.786 98.822 134.534 98.912 134.272 98.973 C 134.011 99.037 133.739 99.073 133.459 99.087 C 133.18 99.102 132.893 99.094 132.598 99.068 C 132.304 99.04 132.002 98.997 131.697 98.937 C 131.39 98.879 131.079 98.804 130.763 98.72 C 130.448 98.637 130.128 98.541 129.807 98.439 C 129.485 98.34 129.161 98.231 128.836 98.12 C 128.511 98.01 128.184 97.898 127.859 97.786 C 127.533 97.672 127.208 97.561 126.885 97.456 C 126.562 97.352 126.241 97.252 125.923 97.161 C 125.605 97.07 125.291 96.987 124.981 96.92 C 124.671 96.852 124.366 96.796 124.068 96.758 C 123.769 96.72 123.477 96.698 123.192 96.698 C 122.908 96.698 122.615 96.72 122.317 96.758 C 122.018 96.796 121.713 96.852 121.404 96.92 C 121.095 96.987 120.78 97.07 120.461 97.161 C 120.144 97.252 119.823 97.352 119.5 97.456 C 119.176 97.561 118.852 97.672 118.525 97.786 C 118.2 97.898 117.874 98.01 117.548 98.12 C 117.224 98.231 116.9 98.34 116.578 98.439 C 116.257 98.54 115.937 98.635 115.621 98.72 C 115.306 98.804 114.995 98.879 114.688 98.937 C 114.381 98.997 114.081 99.042 113.786 99.068 C 113.492 99.094 113.205 99.103 112.925 99.087 C 112.646 99.073 112.375 99.037 112.113 98.973 C 111.852 98.912 111.6 98.822 111.358 98.702 C 111.118 98.58 110.888 98.43 110.67 98.246 C 110.453 98.063 110.249 97.844 110.058 97.587 C 109.867 97.33 109.69 97.036 109.528 96.698 C 109.294 96.211 109.088 95.707 108.91 95.193 C 108.731 94.68 108.579 94.154 108.451 93.616 C 108.323 93.081 108.219 92.533 108.135 91.977 C 108.052 91.42 107.989 90.855 107.945 90.28 C 107.901 89.706 107.876 89.123 107.866 88.534 C 107.856 87.944 107.861 87.349 107.88 86.746 C 107.898 86.143 107.929 85.534 107.97 84.924 C 108.011 84.312 108.063 83.694 108.121 83.074 C 108.18 82.453 108.246 81.831 108.316 81.206 C 108.387 80.579 108.462 79.953 108.539 79.324 C 108.616 78.697 108.695 78.067 108.773 77.439 C 108.85 76.81 108.927 76.181 109.001 75.554 C 109.073 74.928 109.144 74.303 109.206 73.682 C 109.27 73.058 109.326 72.44 109.374 71.825 C 109.421 71.21 109.46 70.598 109.487 69.992 C 109.513 69.388 109.528 68.786 109.528 68.192 C 109.528 67.598 109.513 66.998 109.487 66.392 C 109.46 65.788 109.421 65.176 109.374 64.56 C 109.326 63.946 109.27 63.326 109.206 62.704 C 109.144 62.08 109.073 61.456 109.001 60.828 C 108.927 60.203 108.85 59.574 108.773 58.947 C 108.695 58.318 108.616 57.689 108.539 57.058 C 108.462 56.432 108.387 55.804 108.316 55.178 C 108.246 54.553 108.18 53.93 108.121 53.31 C 108.063 52.689 108.011 52.073 107.97 51.46 C 107.929 50.848 107.898 50.24 107.88 49.637 C 107.861 49.036 107.856 48.44 107.866 47.852 C 107.876 47.261 107.901 46.68 107.945 46.105 C 107.989 45.531 108.052 44.964 108.135 44.408 C 108.219 43.851 108.323 43.304 108.451 42.767 C 108.579 42.231 108.731 41.704 108.91 41.19 C 109.088 40.677 109.293 40.175 109.528 39.685 C 109.69 39.349 109.867 39.053 110.058 38.798 C 110.249 38.541 110.453 38.323 110.67 38.137 C 110.887 37.953 111.117 37.803 111.358 37.683 C 111.6 37.563 111.852 37.475 112.113 37.412 C 112.375 37.349 112.646 37.312 112.925 37.297 C 113.205 37.284 113.492 37.29 113.786 37.317 C 114.081 37.343 114.381 37.388 114.688 37.447 C 114.994 37.507 115.305 37.579 115.621 37.663 C 115.937 37.747 116.257 37.843 116.578 37.946 C 116.9 38.046 117.224 38.154 117.548 38.264 C 117.874 38.374 118.2 38.488 118.525 38.6 C 118.852 38.712 119.176 38.823 119.5 38.927 C 119.823 39.033 120.144 39.132 120.461 39.225 C 120.78 39.315 121.095 39.396 121.404 39.465 C 121.713 39.534 122.018 39.587 122.317 39.625 C 122.615 39.664 122.908 39.685 123.192 39.685 C 123.477 39.685 123.769 39.664 124.068 39.625 C 124.366 39.587 124.671 39.534 124.981 39.465 C 125.291 39.396 125.605 39.315 125.923 39.225 C 126.241 39.132 126.562 39.033 126.885 38.927 C 127.208 38.823 127.533 38.712 127.859 38.6 C 128.184 38.488 128.51 38.374 128.836 38.264 C 129.16 38.154 129.485 38.046 129.807 37.946 C 130.128 37.843 130.448 37.747 130.763 37.663 C 131.079 37.579 131.39 37.507 131.697 37.447 C 132.002 37.388 132.304 37.343 132.598 37.317 C 132.893 37.29 133.18 37.284 133.459 37.297 C 133.739 37.312 134.011 37.349 134.272 37.412 C 134.534 37.475 134.785 37.563 135.026 37.683 C 135.267 37.803 135.497 37.953 135.714 38.137 C 135.931 38.323 136.136 38.541 136.327 38.798 C 136.517 39.053 136.694 39.349 136.856 39.685 C 137.091 40.175 137.296 40.677 137.474 41.19 C 137.653 41.704 137.805 42.231 137.933 42.767 C 138.062 43.304 138.166 43.851 138.249 44.408 C 138.333 44.964 138.395 45.531 138.439 46.105 C 138.482 46.68 138.508 47.261 138.518 47.852 C 138.529 48.44 138.523 49.036 138.505 49.637 C 138.487 50.24 138.455 50.848 138.414 51.46 C 138.373 52.073 138.321 52.689 138.263 53.31 C 138.205 53.93 138.139 54.553 138.068 55.178 C 137.997 55.804 137.922 56.432 137.845 57.058 C 137.768 57.689 137.69 58.318 137.612 58.947 C 137.534 59.574 137.457 60.203 137.383 60.828 C 137.311 61.456 137.241 62.08 137.178 62.704 C 137.115 63.326 137.058 63.946 137.01 64.56 C 136.963 65.176 136.924 65.788 136.897 66.392 C 136.871 66.998 136.856 67.598 136.856 68.192 C 136.856 68.786 136.871 69.388 136.897 69.992 C 136.924 70.598 136.963 71.21 137.01 71.825 C 137.058 72.44 137.115 73.058 137.178 73.682 C 137.241 74.303 137.311 74.928 137.383 75.554 C 137.457 76.181 137.534 76.81 137.612 77.439 C 137.69 78.067 137.768 78.697 137.845 79.324 C 137.922 79.953 137.997 80.579 138.068 81.206 C 138.138 81.831 138.204 82.453 138.263 83.074 C 138.321 83.694 138.373 84.312 138.414 84.924 C 138.455 85.534 138.487 86.143 138.505 86.746 C 138.523 87.349 138.529 87.944 138.518 88.534 C 138.508 89.123 138.482 89.706 138.439 90.28 C 138.395 90.855 138.333 91.42 138.249 91.977 C 138.166 92.533 138.062 93.081 137.933 93.616 C 137.805 94.154 137.653 94.68 137.474 95.193 C 137.296 95.707 137.091 96.211 136.856 96.698 Z" style="fill: url(#pattern-1); stroke: rgb(219, 219, 219);" transform="matrix(0.173648, 0.984808, -0.984808, 0.173648, 168.956848, -64.969519)"/>
    <path d="M 137.07 90.944 C 136.909 91.214 136.732 91.449 136.541 91.655 C 136.35 91.86 136.145 92.035 135.928 92.182 C 135.711 92.329 135.482 92.449 135.24 92.546 C 135 92.642 134.748 92.714 134.486 92.763 C 134.225 92.814 133.953 92.843 133.673 92.854 C 133.394 92.866 133.107 92.86 132.812 92.839 C 132.518 92.817 132.216 92.782 131.911 92.734 C 131.604 92.688 131.293 92.628 130.977 92.561 C 130.662 92.494 130.342 92.418 130.021 92.336 C 129.699 92.257 129.375 92.17 129.05 92.081 C 128.725 91.993 128.398 91.903 128.073 91.814 C 127.747 91.723 127.422 91.634 127.099 91.55 C 126.776 91.467 126.455 91.387 126.137 91.314 C 125.819 91.241 125.505 91.175 125.195 91.121 C 124.885 91.067 124.58 91.022 124.282 90.992 C 123.983 90.961 123.691 90.944 123.406 90.944 C 123.122 90.944 122.829 90.961 122.531 90.992 C 122.232 91.022 121.927 91.067 121.618 91.121 C 121.309 91.175 120.994 91.241 120.675 91.314 C 120.358 91.387 120.037 91.467 119.714 91.55 C 119.39 91.634 119.066 91.723 118.739 91.814 C 118.414 91.903 118.088 91.993 117.762 92.081 C 117.438 92.17 117.114 92.257 116.792 92.336 C 116.471 92.417 116.151 92.493 115.835 92.561 C 115.52 92.628 115.209 92.688 114.902 92.734 C 114.595 92.782 114.295 92.818 114 92.839 C 113.706 92.86 113.419 92.867 113.139 92.854 C 112.86 92.843 112.589 92.814 112.327 92.763 C 112.066 92.714 111.814 92.642 111.572 92.546 C 111.332 92.449 111.102 92.329 110.884 92.182 C 110.667 92.035 110.463 91.86 110.272 91.655 C 110.081 91.449 109.904 91.214 109.742 90.944 C 109.508 90.554 109.302 90.151 109.124 89.74 C 108.945 89.33 108.793 88.909 108.665 88.479 C 108.537 88.051 108.433 87.613 108.349 87.168 C 108.266 86.723 108.203 86.271 108.159 85.811 C 108.115 85.352 108.09 84.886 108.08 84.415 C 108.07 83.943 108.075 83.467 108.094 82.985 C 108.112 82.503 108.143 82.016 108.184 81.528 C 108.225 81.038 108.277 80.544 108.335 80.048 C 108.394 79.552 108.46 79.054 108.53 78.554 C 108.601 78.053 108.676 77.552 108.753 77.049 C 108.83 76.548 108.909 76.044 108.987 75.542 C 109.064 75.039 109.141 74.536 109.215 74.034 C 109.287 73.534 109.358 73.034 109.42 72.537 C 109.484 72.038 109.54 71.544 109.588 71.052 C 109.635 70.56 109.674 70.071 109.701 69.586 C 109.727 69.103 109.742 68.622 109.742 68.147 C 109.742 67.672 109.727 67.192 109.701 66.707 C 109.674 66.224 109.635 65.735 109.588 65.242 C 109.54 64.751 109.484 64.255 109.42 63.758 C 109.358 63.259 109.287 62.76 109.215 62.258 C 109.141 61.758 109.064 61.255 108.987 60.753 C 108.909 60.25 108.83 59.747 108.753 59.243 C 108.676 58.742 108.601 58.24 108.53 57.739 C 108.46 57.239 108.394 56.741 108.335 56.245 C 108.277 55.749 108.225 55.256 108.184 54.766 C 108.143 54.276 108.112 53.79 108.094 53.308 C 108.075 52.827 108.07 52.351 108.08 51.88 C 108.09 51.408 108.115 50.943 108.159 50.483 C 108.203 50.024 108.266 49.571 108.349 49.126 C 108.433 48.681 108.537 48.243 108.665 47.814 C 108.793 47.385 108.945 46.964 109.124 46.553 C 109.302 46.142 109.507 45.741 109.742 45.349 C 109.904 45.08 110.081 44.844 110.272 44.64 C 110.463 44.434 110.667 44.26 110.884 44.111 C 111.101 43.964 111.331 43.844 111.572 43.748 C 111.814 43.652 112.066 43.582 112.327 43.531 C 112.589 43.481 112.86 43.451 113.139 43.439 C 113.419 43.429 113.706 43.434 114 43.455 C 114.295 43.476 114.595 43.512 114.902 43.559 C 115.208 43.607 115.519 43.665 115.835 43.732 C 116.151 43.799 116.471 43.876 116.792 43.958 C 117.114 44.038 117.438 44.125 117.762 44.213 C 118.088 44.301 118.414 44.392 118.739 44.481 C 119.066 44.571 119.39 44.66 119.714 44.743 C 120.037 44.828 120.358 44.907 120.675 44.981 C 120.994 45.053 121.309 45.118 121.618 45.173 C 121.927 45.228 122.232 45.271 122.531 45.301 C 122.829 45.332 123.122 45.349 123.406 45.349 C 123.691 45.349 123.983 45.332 124.282 45.301 C 124.58 45.271 124.885 45.228 125.195 45.173 C 125.505 45.118 125.819 45.053 126.137 44.981 C 126.455 44.907 126.776 44.828 127.099 44.743 C 127.422 44.66 127.747 44.571 128.073 44.481 C 128.398 44.392 128.724 44.301 129.05 44.213 C 129.374 44.125 129.699 44.038 130.021 43.958 C 130.342 43.876 130.662 43.799 130.977 43.732 C 131.293 43.665 131.604 43.607 131.911 43.559 C 132.216 43.512 132.518 43.476 132.812 43.455 C 133.107 43.434 133.394 43.429 133.673 43.439 C 133.953 43.451 134.225 43.481 134.486 43.531 C 134.748 43.582 134.999 43.652 135.24 43.748 C 135.481 43.844 135.711 43.964 135.928 44.111 C 136.145 44.26 136.35 44.434 136.541 44.64 C 136.731 44.844 136.908 45.08 137.07 45.349 C 137.305 45.741 137.51 46.142 137.688 46.553 C 137.867 46.964 138.019 47.385 138.147 47.814 C 138.276 48.243 138.38 48.681 138.463 49.126 C 138.547 49.571 138.609 50.024 138.653 50.483 C 138.696 50.943 138.722 51.408 138.732 51.88 C 138.743 52.351 138.737 52.827 138.719 53.308 C 138.701 53.79 138.669 54.276 138.628 54.766 C 138.587 55.256 138.535 55.749 138.477 56.245 C 138.419 56.741 138.353 57.239 138.282 57.739 C 138.211 58.24 138.136 58.742 138.059 59.243 C 137.982 59.747 137.904 60.25 137.826 60.753 C 137.748 61.255 137.671 61.758 137.597 62.258 C 137.525 62.76 137.455 63.259 137.392 63.758 C 137.329 64.255 137.272 64.751 137.224 65.242 C 137.177 65.735 137.138 66.224 137.111 66.707 C 137.085 67.192 137.07 67.672 137.07 68.147 C 137.07 68.622 137.085 69.103 137.111 69.586 C 137.138 70.071 137.177 70.56 137.224 71.052 C 137.272 71.544 137.329 72.038 137.392 72.537 C 137.455 73.034 137.525 73.534 137.597 74.034 C 137.671 74.536 137.748 75.039 137.826 75.542 C 137.904 76.044 137.982 76.548 138.059 77.049 C 138.136 77.552 138.211 78.053 138.282 78.554 C 138.352 79.054 138.418 79.552 138.477 80.048 C 138.535 80.544 138.587 81.038 138.628 81.528 C 138.669 82.016 138.701 82.503 138.719 82.985 C 138.737 83.467 138.743 83.943 138.732 84.415 C 138.722 84.886 138.696 85.352 138.653 85.811 C 138.609 86.271 138.547 86.723 138.463 87.168 C 138.38 87.613 138.276 88.051 138.147 88.479 C 138.019 88.909 137.867 89.33 137.688 89.74 C 137.51 90.151 137.305 90.554 137.07 90.944 Z" style="fill: rgb(236, 236, 236); stroke: rgb(219, 219, 219);" transform="matrix(0.173648, 0.984808, -0.984808, 0.173648, 169.088982, -65.217769)"/>
    <rect style="stroke-width: 0px; fill: rgb(255, 255, 255); stroke: rgb(219, 219, 219);" transform="matrix(0.981627, -0.190809, 0.190809, 0.981627, -47.110161, -33.100185)" x="138.082" y="123.817" width="21.302" height="16.472" rx="1" ry="1"/>
  </g>
</svg>