<?xml version="1.0" encoding="utf-8"?>
<svg viewBox="0 0 362 222" xmlns="http://www.w3.org/2000/svg" xmlns:bx="https://boxy-svg.com">
  <g transform="matrix(1, 0, 0, 1, -45.315171, -145.826205)">
    <title>Body</title>
    <path style="fill: rgb(174, 142, 223); stroke: rgb(174, 142, 223);" d="M 194.694 155.843 H 318.76 A 15 15 0 0 1 333.76 170.843 V 340.162 A 15 15 0 0 1 318.76 355.162 H 185.694 A 55 55 0 0 1 130.694 300.162 V 219.843 A 64 64 0 0 1 194.694 155.843 Z" bx:shape="rect 130.694 155.843 203.066 199.319 64 15 15 55 1@90eca5a6">
      <title>Body</title>
    </path>
    <path style="fill: rgb(174, 142, 223); stroke: rgb(174, 142, 223);" d="M 385.477 194.988 L 297.43 260.259 L 384.88 314.372 C 384.88 314.372 398.012 259.144 385.477 194.988 Z"/>
  </g>
  <g transform="matrix(1, 0, 0, 1, -45.315171, -145.826205)">
    <title>Mouth</title>
    <path style="fill: rgb(174, 142, 223); stroke: rgb(174, 142, 223);" d="M 61.257 279.426 H 152.925 V 298.506 H 61.257 A 7 7 0 0 1 54.257 291.506 V 286.426 A 7 7 0 0 1 61.257 279.426 Z" bx:shape="rect 54.257 279.426 98.668 19.08 7 0 0 7 1@269a0cb1"/>
    <path style="fill: rgb(174, 142, 223); stroke: rgb(174, 142, 223);" d="M 130.357 255.665 C 130.357 255.665 129.165 280.317 106.16 280.034 C 83.155 279.751 108.295 298.656 108.295 298.656 C 108.295 298.656 131.016 299.976 135.07 313.175 C 139.124 326.374 140.351 262.547 140.351 262.547 L 130.357 255.665 Z"/>
  </g>
  <g transform="matrix(1, 0, 0, 1, -45.315171, -145.826205)">
    <title>Muster</title>
    <path style="fill: rgb(116, 107, 175); stroke: rgb(116, 107, 175);" d="M 298.341 155.732 H 318.711 A 15 15 0 0 1 333.711 170.732 V 340.051 A 15 15 0 0 1 318.711 355.051 H 298.341 V 155.732 Z" bx:shape="rect 298.341 155.732 35.37 199.319 0 15 15 0 1@68c8b626"/>
    <path style="fill: rgb(116, 107, 175); stroke: rgb(116, 107, 175);" d="M 271.258 155.83 L 256.07 155.838 C 256.07 155.838 258.538 187.78 264.088 188.831 C 269.636 189.882 270.319 230.665 257.855 228.773 C 245.391 226.881 255.721 273.234 261.782 268.294 C 267.844 263.354 279.283 303.208 264.856 310.46 C 250.428 317.712 260.143 356.369 267.16 355.342 C 274.179 354.315 279.147 355.089 279.147 355.089 C 279.147 355.089 265.282 329.905 279.453 310.355 C 293.625 290.805 278.6 264.738 278.002 267.05 C 277.404 269.362 256.916 240.037 272.709 230.367 C 288.503 220.697 278.43 187.938 277.234 187.728 C 276.039 187.518 271.088 172.49 271.258 155.83 Z"/>
    <path style="fill: rgb(116, 107, 175); stroke: rgb(116, 107, 175);" d="M 236.747 155.881 L 221.559 155.889 C 221.559 155.889 224.027 187.831 229.577 188.882 C 235.125 189.933 235.808 230.716 223.344 228.824 C 210.88 226.932 221.21 273.285 227.271 268.345 C 233.333 263.405 244.772 303.259 230.345 310.511 C 215.917 317.763 225.632 356.42 232.649 355.393 C 239.668 354.366 244.636 355.14 244.636 355.14 C 244.636 355.14 230.771 329.956 244.942 310.406 C 259.114 290.856 244.089 264.789 243.491 267.101 C 242.893 269.413 222.405 240.088 238.198 230.418 C 253.992 220.748 243.919 187.989 242.723 187.779 C 241.528 187.569 236.577 172.541 236.747 155.881 Z"/>
    <path style="fill: rgb(116, 107, 175); stroke: rgb(116, 107, 175);" d="M 197.914 155.666 L 182.726 157.16 C 182.726 157.16 185.194 187.616 190.744 188.667 C 196.292 189.718 196.975 230.501 184.511 228.609 C 172.047 226.717 182.377 273.07 188.438 268.13 C 194.5 263.19 205.939 303.044 191.512 310.296 C 177.084 317.548 186.799 356.205 193.816 355.178 C 200.835 354.151 205.803 354.925 205.803 354.925 C 205.803 354.925 191.938 329.741 206.109 310.191 C 220.281 290.641 205.256 264.574 204.658 266.886 C 204.06 269.198 183.572 239.873 199.365 230.203 C 215.159 220.533 205.086 187.774 203.89 187.564 C 202.695 187.354 197.744 172.326 197.914 155.666 Z"/>
    <path style="fill: rgb(116, 107, 175); stroke: rgb(116, 107, 175);" d="M 160.959 165.548 L 148.048 175.811 C 148.048 175.811 148.097 193.279 153.647 194.33 C 159.195 195.381 159.878 236.164 147.414 234.272 C 134.95 232.38 145.28 278.733 151.341 273.793 C 157.403 268.853 168.842 308.707 154.415 315.959 C 139.987 323.211 145.408 339.592 151.244 343.557 C 157.08 347.522 163.338 350.121 163.338 350.121 C 163.338 350.121 154.841 335.404 169.012 315.854 C 183.184 296.304 168.159 270.237 167.561 272.549 C 166.963 274.861 146.475 245.536 162.268 235.866 C 178.062 226.196 167.989 193.437 166.793 193.227 C 165.598 193.017 158.212 181.51 160.959 165.548 Z"/>
  </g>
  <ellipse style="stroke: rgb(0, 0, 0);" cx="142.774" cy="75.219" rx="9.379" ry="9.179">
    <title>Eye</title>
  </ellipse>
</svg>