<?xml version="1.0" encoding="utf-8"?>
<svg viewBox="0 0 478 256" xmlns="http://www.w3.org/2000/svg">
  <g style="" transform="matrix(1.590239, 0, 0, 1.590239, -153.838549, -257.784122)">
    <title>round fins</title>
    <ellipse style="fill: rgb(176, 120, 120); stroke: rgb(176, 120, 120);" cx="242.332" cy="193.013" rx="31.627" ry="22.091"/>
    <ellipse style="fill: rgb(176, 120, 120); stroke: rgb(176, 120, 120);" cx="295.428" cy="193.372" rx="21.563" ry="23.314"/>
    <ellipse style="fill: rgb(176, 120, 120); stroke: rgb(176, 120, 120);" cx="239.169" cy="288.322" rx="31.627" ry="22.091"/>
    <ellipse style="fill: rgb(176, 120, 120); stroke: rgb(176, 120, 120);" cx="292.428" cy="288.681" rx="21.563" ry="23.314"/>
  </g>
  <g style="" transform="matrix(1.590239, 0, 0, 1.590239, -153.838549, -257.784122)">
    <title>Body</title>
    <g>
      <ellipse style="fill: rgb(202, 141, 141); stroke: rgb(202, 141, 141);" cx="272.566" cy="239.335" rx="106.249" ry="54.563"/>
      <path style="fill: rgb(202, 141, 141); stroke: rgb(202, 141, 141);" d="M 357.503 271.439 L 385.281 250.259 C 385.281 250.259 392.171 234.953 386.949 229.441 C 381.727 223.929 364.066 211.648 364.066 211.648 L 357.503 271.439 Z"/>
    </g>
    <path style="fill: rgb(193, 135, 135); stroke: rgb(193, 135, 135);" d="M 313.68 290.228 C 359.59 280.442 384.702 250.842 384.702 250.842 C 384.702 250.842 191.927 208.627 173.506 259.43 C 193.366 280.73 233.951 302.604 313.68 290.228 Z">
      <title>Lower Body</title>
    </path>
  </g>
  <g style="" transform="matrix(1.590239, 0, 0, 1.590239, -153.838549, -257.784122)">
    <title>back fins</title>
    <ellipse style="fill: rgb(176, 120, 120); stroke: rgb(176, 120, 120);" cx="205.866" cy="399.132" rx="38.781" ry="19.916" transform="matrix(-0.848048, -0.529919, 0.529919, -0.848048, 109.210022, 662.704493)"/>
    <path style="fill: rgb(176, 120, 120); stroke: rgb(176, 120, 120);" d="M 107.702 206.841 L 120.771 196.052 L 104.188 184.957 L 107.702 206.841 Z" transform="matrix(-0.848048, -0.529919, 0.529919, -0.848048, 104.056945, 421.635836)"/>
    <ellipse style="fill: rgb(176, 120, 120); stroke: rgb(176, 120, 120);" cx="205.866" cy="399.132" rx="39.972" ry="20.527" transform="matrix(-0.848048, 0.529919, -0.529919, -0.848048, 529.435072, 486.254256)"/>
    <path style="fill: rgb(176, 120, 120); stroke: rgb(176, 120, 120);" d="M 105.397 290.63 L 118.868 279.51 L 101.776 268.073 L 105.397 290.63 Z" transform="matrix(-0.848048, 0.529919, -0.529919, -0.848048, 351.914048, 457.79333)"/>
    <path style="fill: rgb(176, 120, 120); stroke: rgb(176, 120, 120);" d="M 175.777 215.801 C 175.777 215.801 190.754 237.889 173.901 259.279 C 157.048 280.669 150.405 214.556 150.405 214.556 L 175.777 215.801 Z"/>
    <path style="fill: rgb(176, 120, 120); stroke: rgb(176, 120, 120);" d="M 175.832 215.479 C 175.832 215.479 162.721 199.495 148.475 193.73 C 134.229 187.965 147.771 277.509 147.771 277.509 C 147.771 277.509 168.484 268.211 172.509 259.417 C 176.534 250.623 176.386 215.479 175.832 215.479 Z"/>
  </g>
  <ellipse style="fill: rgb(38, 40, 37); stroke: rgb(38, 40, 37);" cx="403.118" cy="96.869" rx="8.239" ry="8.468">
    <title>Eye</title>
  </ellipse>
</svg>